<svg width="52" height="51" viewBox="0 0 52 51" fill="none" xmlns="http://www.w3.org/2000/svg">
<path d="M41.9223 42.0776L9.76698 10.3883H6.19417L2.15533 6.34949V12.5631L6.19417 16.9126L13.9612 18.466L34.466 38.1941L35.3981 46.1165L39.4369 50H45.1845L41.9223 46.1165V42.0776Z" fill="#6B6BFF"/>
<path d="M46.7379 11.7864L50 5.10679L48.2913 4.01941L38.6602 13.4951L39.4369 12.8738L46.7379 11.7864Z" fill="#6B6BFF"/>
<path d="M2.15533 49.6893L20.0194 32.2913L24.3689 37.2621L19.0874 38.3495L18.1553 42.233L10.0777 49.6893H2.15533Z" fill="#6B6BFF"/>
<path d="M13.3398 32.9126L9.30097 34L2.15533 41.3009V49.534H10.3883L17.6893 42.3883L18.932 38.5048" stroke="#0000FF" stroke-width="2"/>
<path d="M21.1068 24.835L13.9612 18.1553L6.19417 16.9126L2.46602 12.7184L2 6.03883L6.19417 10.3883H10.233V6.03883L7.12621 2H12.7184L16.7573 6.03883L17.6893 13.4951L25.1456 20.9515M20.0194 31.8252L38.9709 12.8738M38.9709 12.8738L40.5243 5.41748L46.5825 2L49.8447 5.41748L46.5825 11.6311L38.9709 12.8738ZM14.8932 27.3204L24.6796 37.2621L18.7767 38.3495L13.3398 32.7573L14.8932 27.3204Z" stroke="#0000FF" stroke-width="2"/>
<path d="M30.8932 26.8544L38.0388 33.534L45.8058 34.7767L49.534 38.9709L50 45.6505L45.8058 41.301L41.767 41.301L41.767 45.6505L44.8738 49.6893L39.2816 49.6893L35.2427 45.6505L34.3107 38.1942L26.8544 30.7379" stroke="#0000FF" stroke-width="2"/>
</svg>
