<svg width="56" height="51" viewBox="0 0 56 51" fill="none" xmlns="http://www.w3.org/2000/svg">
<path d="M15.2474 23.8915V48.4995L19.5618 45.3036L20.0411 34.4378L21.7988 35.3965L31.2266 32.5203L34.5822 35.3965L35.2214 39.2315H39.5358L40.9739 42.9067L47.6852 39.8707L48.1645 34.4378L36.3399 25.1698L36.8193 14.9431L29.3091 9.66999L22.9174 12.3865L15.2474 8.87103L15.7268 15.4225L19.5618 17.34L20.0411 23.5719L15.2474 23.8915Z" fill="#9696FF"/>
<path d="M15.0876 48.4995L19.7215 45.3036V30.2832L28.0307 24.5307L27.8709 15.4225L15.4071 8.55145L2.3042 15.4225L2.62378 25.1698L10.933 30.443L10.7732 34.7573L8.05671 38.2728L10.7732 41.3088L8.05671 44.8242L15.0876 48.4995ZM15.0876 48.4995V28.845" stroke="#0000FF" stroke-width="3"/>
<path d="M11.2526 23.5719H19.7215V17.0205L15.0876 15.103L10.933 17.0205L11.2526 23.5719Z" stroke="#0000FF" stroke-width="3"/>
<path d="M47.7306 39.9823L48.0634 34.363L36.2241 25.1193L36.8034 15.0298L29.5259 9.55059L22.5978 12.3864M47.7306 39.9823L40.5069 43.2623L39.4078 38.9578L35.343 39.2305L34.2438 34.926L30.9415 32.1449L21.6716 35.4492L19.8813 34.363M47.7306 39.9823L32.2388 27.8869" stroke="#0000FF" stroke-width="3"/>
<path d="M26.273 11.1081L26.273 4.23709L20.8401 2L15.2474 4.23709L15.2474 15.4225" stroke="#0000FF" stroke-width="3"/>
</svg>
