<svg width="87" height="84" viewBox="0 0 87 84" fill="none" xmlns="http://www.w3.org/2000/svg">
<path fill-rule="evenodd" clip-rule="evenodd" d="M2.27353 3.31261C2.27353 1.49984 3.2481 2.26176 5.06087 2.26176H82.5566C84.3694 2.26176 84.8784 1.7736 84.8784 3.58638L85.4255 57.4711C85.4255 59.2838 84.503 59.6593 82.6902 59.6593L5.00879 59.9328C3.19602 59.9328 2 60.6515 2 58.8387L2.27353 3.31261ZM9.38521 9.60398V53.3682H78.0403V9.33018L9.38521 9.60398Z" fill="#9696FF"/>
<path fill-rule="evenodd" clip-rule="evenodd" d="M56.4315 66.2236L56.7051 72.2412L68.7298 81.3697L63.0639 62.2888L67.2177 53.5824L67.0179 47.0245L56.6511 40.0148L44.5947 47.1287L45.9549 57.1186L48.4993 60.4796L55.8845 64.856L56.2417 57.7443C56.2417 57.7443 52.1623 52.9626 51.7816 53.0944C51.4005 53.2265 52.8757 50.6326 52.8757 50.6326L56.2417 47.3503L61.0815 52.0003L56.2417 58.2914V64.1093L56.4315 66.2236Z" fill="#9696FF"/>
<path d="M38.8277 53.1167L9.30583 53.3333L9.15771 9.57842L77.8485 9.48056L78.0402 53.3679H73.3903" stroke="#0000FF" stroke-width="3" stroke-miterlimit="1.5" stroke-linecap="round" stroke-linejoin="round"/>
<path d="M73.8482 59.7185L85.247 59.7121L84.8268 2.05209L2.08608 2L2.0083 59.7587L38.8714 60.1349" stroke="#0000FF" stroke-width="3" stroke-miterlimit="1.5" stroke-linecap="round" stroke-linejoin="round"/>
<path d="M19.7168 25.7897L25.7191 21.3076L31.4155 25.4797L36.3587 21.6574L41.8378 25.9531L47.1881 21.49L52.9247 25.5988L58.7406 21.4762" stroke="#0000FF" stroke-width="3" stroke-miterlimit="1.5" stroke-linecap="round" stroke-linejoin="round"/>
<path d="M47.4319 32.4891L41.9707 36.222L36.3755 32.5869L31.1134 36.4435L25.7984 32.8746L20.0361 36.4792" stroke="#0000FF" stroke-width="3" stroke-miterlimit="1.5" stroke-linecap="round" stroke-linejoin="round"/>
<path fill-rule="evenodd" clip-rule="evenodd" d="M45.087 46.3477L45.0186 58.3396L56.3507 65.359L66.45 58.9559L67.3245 46.543L56.1673 39.8783L45.087 46.3477Z" stroke="#0000FF" stroke-width="3" stroke-miterlimit="1.5" stroke-linecap="round" stroke-linejoin="round"/>
<path fill-rule="evenodd" clip-rule="evenodd" d="M56.3383 46.9529L51.1436 52.4263L56.179 57.5898L61.6752 52.6906L56.3383 46.9529Z" stroke="#0000FF" stroke-width="3" stroke-miterlimit="1.5" stroke-linecap="round" stroke-linejoin="round"/>
<path d="M49.0924 60.876L43.2363 82L56.689 72.0135L68.6408 81.0451L63.1732 61.0427" stroke="#0000FF" stroke-width="3" stroke-miterlimit="1.5" stroke-linecap="round" stroke-linejoin="round"/>
</svg>
