<svg width="610" height="599" viewBox="0 0 610 599" fill="none" xmlns="http://www.w3.org/2000/svg">
<rect width="610" height="599" fill="white"/>
<path d="M272 314L458 314C458 416.725 374.725 500 272 500C169.275 500 86 416.725 86 314L272 314Z" fill="#0000FF"/>
<path d="M458 314L460.5 314L460.5 311.5L458 311.5L458 314ZM86 314L86 311.5L83.5 311.5L83.5 314L86 314ZM272 316.5L458 316.5L458 311.5L272 311.5L272 316.5ZM455.5 314C455.5 415.344 373.344 497.5 272 497.5L272 502.5C376.106 502.5 460.5 418.106 460.5 314L455.5 314ZM272 497.5C170.656 497.5 88.5 415.344 88.5 314L83.5 314C83.5 418.106 167.894 502.5 272 502.5L272 497.5ZM86 316.5L272 316.5L272 311.5L86 311.5L86 316.5Z" fill="#F3F5F9"/>
<path d="M272 314L86 314C86 211.275 169.275 128 272 128L272 314Z" fill="#0000FF"/>
<path d="M272 314L272 316.5L274.5 316.5L274.5 314L272 314ZM86 314L83.5 314L83.5 316.5L86 316.5L86 314ZM272 128L274.5 128L274.5 125.5L272 125.5L272 128ZM272 311.5L86 311.5L86 316.5L272 316.5L272 311.5ZM88.5 314C88.5 212.656 170.656 130.5 272 130.5L272 125.5C167.894 125.5 83.5 209.894 83.5 314L88.5 314ZM269.5 128L269.5 314L274.5 314L274.5 128L269.5 128Z" fill="#F3F5F9"/>
<path d="M272 314L272 128C311.279 128 349.55 140.435 381.328 163.523L272 314Z" fill="#0000FF"/>
<path d="M272 314L269.5 314L269.5 321.694L274.023 315.469L272 314ZM272 128L272 125.5L269.5 125.5L269.5 128L272 128ZM381.328 163.523L383.351 164.992L384.82 162.97L382.798 161.5L381.328 163.523ZM274.5 314L274.5 128L269.5 128L269.5 314L274.5 314ZM272 130.5C310.751 130.5 348.508 142.768 379.859 165.545L382.798 161.5C350.593 138.102 311.807 125.5 272 125.5L272 130.5ZM379.306 162.053L269.978 312.531L274.023 315.469L383.351 164.992L379.306 162.053Z" fill="#F3F5F9"/>
<path d="M272 314L381.328 163.522C397.119 174.995 411.005 188.881 422.478 204.672L272 314Z" fill="#0000FF"/>
<path d="M272 314L269.978 312.53L273.47 316.022L272 314ZM381.328 163.522L382.798 161.5L380.775 160.03L379.306 162.053L381.328 163.522ZM422.478 204.672L423.947 206.694L425.97 205.225L424.5 203.202L422.478 204.672ZM274.023 315.469L383.351 164.992L379.306 162.053L269.978 312.53L274.023 315.469ZM379.859 165.545C395.437 176.863 409.137 190.563 420.455 206.141L424.5 203.202C412.873 187.199 398.801 173.127 382.798 161.5L379.859 165.545ZM421.008 202.649L270.531 311.977L273.47 316.022L423.947 206.694L421.008 202.649Z" fill="#F3F5F9"/>
<path d="M272 313.999L422.477 204.671C433.95 220.462 442.865 237.96 448.896 256.522L272 313.999Z" fill="#0000FF"/>
<path d="M272 313.999L270.53 311.977L272.773 316.377L272 313.999ZM422.477 204.671L424.5 203.202L423.03 201.179L421.008 202.649L422.477 204.671ZM448.896 256.522L449.669 258.9L452.047 258.127L451.274 255.75L448.896 256.522ZM273.469 316.022L423.947 206.694L421.008 202.649L270.53 311.977L273.469 316.022ZM420.455 206.141C431.773 221.719 440.569 238.982 446.519 257.295L451.274 255.75C445.162 236.937 436.126 219.205 424.5 203.202L420.455 206.141ZM448.124 254.145L271.227 311.622L272.773 316.377L449.669 258.9L448.124 254.145Z" fill="#F3F5F9"/>
<path d="M272 314L448.897 256.522C454.928 275.085 458 294.482 458 314L272 314Z" fill="#0000FF"/>
<path d="M272 314L271.227 311.622L272 316.5L272 314ZM448.897 256.522L451.274 255.75L450.502 253.372L448.124 254.145L448.897 256.522ZM458 314L458 316.5L460.5 316.5L460.5 314L458 314ZM272.773 316.377L449.669 258.9L448.124 254.145L271.227 311.622L272.773 316.377ZM446.519 257.295C452.469 275.608 455.5 294.744 455.5 314L460.5 314C460.5 294.219 457.387 274.562 451.274 255.75L446.519 257.295ZM458 311.5L272 311.5L272 316.5L458 316.5L458 311.5Z" fill="#F3F5F9"/>
<circle cx="271.161" cy="315.675" r="98.8646" fill="#F3F5F9"/>
<path d="M230.204 285.832V287.64H227.228V297H224.988V287.64H222.012V285.832H230.204ZM235.774 297.144C234.921 297.144 234.153 296.957 233.47 296.584C232.788 296.2 232.249 295.661 231.854 294.968C231.47 294.275 231.278 293.475 231.278 292.568C231.278 291.661 231.476 290.861 231.87 290.168C232.276 289.475 232.825 288.941 233.518 288.568C234.212 288.184 234.985 287.992 235.838 287.992C236.692 287.992 237.465 288.184 238.158 288.568C238.852 288.941 239.396 289.475 239.79 290.168C240.196 290.861 240.398 291.661 240.398 292.568C240.398 293.475 240.19 294.275 239.774 294.968C239.369 295.661 238.814 296.2 238.11 296.584C237.417 296.957 236.638 297.144 235.774 297.144ZM235.774 295.192C236.18 295.192 236.558 295.096 236.91 294.904C237.273 294.701 237.561 294.403 237.774 294.008C237.988 293.613 238.094 293.133 238.094 292.568C238.094 291.725 237.87 291.08 237.422 290.632C236.985 290.173 236.446 289.944 235.806 289.944C235.166 289.944 234.628 290.173 234.19 290.632C233.764 291.08 233.55 291.725 233.55 292.568C233.55 293.411 233.758 294.061 234.174 294.52C234.601 294.968 235.134 295.192 235.774 295.192ZM244.65 289.976V294.264C244.65 294.563 244.719 294.781 244.858 294.92C245.007 295.048 245.252 295.112 245.594 295.112H246.634V297H245.226C243.338 297 242.394 296.083 242.394 294.248V289.976H241.338V288.136H242.394V285.944H244.65V288.136H246.634V289.976H244.65ZM247.669 292.536C247.669 291.64 247.845 290.845 248.197 290.152C248.559 289.459 249.045 288.925 249.653 288.552C250.271 288.179 250.959 287.992 251.717 287.992C252.378 287.992 252.954 288.125 253.445 288.392C253.946 288.659 254.346 288.995 254.645 289.4V288.136H256.901V297H254.645V295.704C254.357 296.12 253.957 296.467 253.445 296.744C252.943 297.011 252.362 297.144 251.701 297.144C250.954 297.144 250.271 296.952 249.653 296.568C249.045 296.184 248.559 295.645 248.197 294.952C247.845 294.248 247.669 293.443 247.669 292.536ZM254.645 292.568C254.645 292.024 254.538 291.56 254.325 291.176C254.111 290.781 253.823 290.483 253.461 290.28C253.098 290.067 252.709 289.96 252.293 289.96C251.877 289.96 251.493 290.061 251.141 290.264C250.789 290.467 250.501 290.765 250.277 291.16C250.063 291.544 249.957 292.003 249.957 292.536C249.957 293.069 250.063 293.539 250.277 293.944C250.501 294.339 250.789 294.643 251.141 294.856C251.503 295.069 251.887 295.176 252.293 295.176C252.709 295.176 253.098 295.075 253.461 294.872C253.823 294.659 254.111 294.36 254.325 293.976C254.538 293.581 254.645 293.112 254.645 292.568ZM261.328 285.16V297H259.088V285.16H261.328ZM271.21 297.112C270.431 297.112 269.727 296.979 269.098 296.712C268.479 296.445 267.989 296.061 267.626 295.56C267.263 295.059 267.077 294.467 267.066 293.784H269.466C269.498 294.243 269.658 294.605 269.946 294.872C270.245 295.139 270.65 295.272 271.162 295.272C271.685 295.272 272.095 295.149 272.394 294.904C272.693 294.648 272.842 294.317 272.842 293.912C272.842 293.581 272.741 293.309 272.538 293.096C272.335 292.883 272.079 292.717 271.77 292.6C271.471 292.472 271.055 292.333 270.522 292.184C269.797 291.971 269.205 291.763 268.746 291.56C268.298 291.347 267.909 291.032 267.578 290.616C267.258 290.189 267.098 289.624 267.098 288.92C267.098 288.259 267.263 287.683 267.594 287.192C267.925 286.701 268.389 286.328 268.986 286.072C269.583 285.805 270.266 285.672 271.034 285.672C272.186 285.672 273.119 285.955 273.834 286.52C274.559 287.075 274.959 287.853 275.034 288.856H272.57C272.549 288.472 272.383 288.157 272.074 287.912C271.775 287.656 271.375 287.528 270.874 287.528C270.437 287.528 270.085 287.64 269.818 287.864C269.562 288.088 269.434 288.413 269.434 288.84C269.434 289.139 269.53 289.389 269.722 289.592C269.925 289.784 270.17 289.944 270.458 290.072C270.757 290.189 271.173 290.328 271.706 290.488C272.431 290.701 273.023 290.915 273.482 291.128C273.941 291.341 274.335 291.661 274.666 292.088C274.997 292.515 275.162 293.075 275.162 293.768C275.162 294.365 275.007 294.92 274.698 295.432C274.389 295.944 273.935 296.355 273.338 296.664C272.741 296.963 272.031 297.112 271.21 297.112ZM285.472 288.136V297H283.216V295.88C282.928 296.264 282.549 296.568 282.08 296.792C281.621 297.005 281.12 297.112 280.576 297.112C279.883 297.112 279.269 296.968 278.736 296.68C278.203 296.381 277.781 295.949 277.472 295.384C277.173 294.808 277.024 294.125 277.024 293.336V288.136H279.264V293.016C279.264 293.72 279.44 294.264 279.792 294.648C280.144 295.021 280.624 295.208 281.232 295.208C281.851 295.208 282.336 295.021 282.688 294.648C283.04 294.264 283.216 293.72 283.216 293.016V288.136H285.472ZM289.922 289.416C290.21 289.011 290.605 288.675 291.106 288.408C291.618 288.131 292.199 287.992 292.85 287.992C293.607 287.992 294.29 288.179 294.898 288.552C295.517 288.925 296.002 289.459 296.354 290.152C296.717 290.835 296.898 291.629 296.898 292.536C296.898 293.443 296.717 294.248 296.354 294.952C296.002 295.645 295.517 296.184 294.898 296.568C294.29 296.952 293.607 297.144 292.85 297.144C292.199 297.144 291.623 297.011 291.122 296.744C290.631 296.477 290.231 296.141 289.922 295.736V301.224H287.682V288.136H289.922V289.416ZM294.61 292.536C294.61 292.003 294.498 291.544 294.274 291.16C294.061 290.765 293.773 290.467 293.41 290.264C293.058 290.061 292.674 289.96 292.258 289.96C291.853 289.96 291.469 290.067 291.106 290.28C290.754 290.483 290.466 290.781 290.242 291.176C290.029 291.571 289.922 292.035 289.922 292.568C289.922 293.101 290.029 293.565 290.242 293.96C290.466 294.355 290.754 294.659 291.106 294.872C291.469 295.075 291.853 295.176 292.258 295.176C292.674 295.176 293.058 295.069 293.41 294.856C293.773 294.643 294.061 294.339 294.274 293.944C294.498 293.549 294.61 293.08 294.61 292.536ZM300.766 289.416C301.054 289.011 301.449 288.675 301.95 288.408C302.462 288.131 303.043 287.992 303.694 287.992C304.451 287.992 305.134 288.179 305.742 288.552C306.361 288.925 306.846 289.459 307.198 290.152C307.561 290.835 307.742 291.629 307.742 292.536C307.742 293.443 307.561 294.248 307.198 294.952C306.846 295.645 306.361 296.184 305.742 296.568C305.134 296.952 304.451 297.144 303.694 297.144C303.043 297.144 302.467 297.011 301.966 296.744C301.475 296.477 301.075 296.141 300.766 295.736V301.224H298.526V288.136H300.766V289.416ZM305.454 292.536C305.454 292.003 305.342 291.544 305.118 291.16C304.905 290.765 304.617 290.467 304.254 290.264C303.902 290.061 303.518 289.96 303.102 289.96C302.697 289.96 302.313 290.067 301.95 290.28C301.598 290.483 301.31 290.781 301.086 291.176C300.873 291.571 300.766 292.035 300.766 292.568C300.766 293.101 300.873 293.565 301.086 293.96C301.31 294.355 301.598 294.659 301.95 294.872C302.313 295.075 302.697 295.176 303.102 295.176C303.518 295.176 303.902 295.069 304.254 294.856C304.617 294.643 304.905 294.339 305.118 293.944C305.342 293.549 305.454 293.08 305.454 292.536ZM311.61 285.16V297H309.37V285.16H311.61ZM322.303 288.136L316.815 301.192H314.431L316.351 296.776L312.799 288.136H315.311L317.599 294.328L319.919 288.136H322.303Z" fill="#3B3B53"/>
<path d="M244.966 307.531L241.171 308.747V312.699L244.966 311.483V316.354H240.559V320H253.937V316.354H249.836V307.531H244.966ZM265.255 314.211C265.255 316.233 263.734 316.651 262.212 316.651C261.461 316.651 260.709 316.53 260.125 316.187C259.541 315.844 259.169 315.222 259.169 314.211V313.302C259.169 311.289 260.709 310.871 262.212 310.871C262.982 310.871 263.725 310.982 264.309 311.326C264.875 311.688 265.255 312.291 265.255 313.302V314.211ZM265.302 307.522C264.291 307.299 263.224 307.216 262.212 307.216C261.201 307.216 260.134 307.299 259.132 307.522C258.325 307.698 257.574 307.967 256.896 308.348C255.366 309.192 254.308 310.648 254.308 312.996V314.517C254.308 317.903 256.535 319.425 259.132 319.991C260.134 320.213 261.201 320.297 262.212 320.297C263.224 320.297 264.291 320.213 265.302 319.991C266.109 319.814 266.851 319.545 267.538 319.174C269.068 318.321 270.126 316.864 270.126 314.517V312.996C270.126 309.619 267.899 308.088 265.302 307.522ZM281.454 314.211C281.454 316.233 279.932 316.651 278.411 316.651C277.659 316.651 276.908 316.53 276.323 316.187C275.739 315.844 275.368 315.222 275.368 314.211V313.302C275.368 311.289 276.908 310.871 278.411 310.871C279.181 310.871 279.923 310.982 280.507 311.326C281.073 311.688 281.454 312.291 281.454 313.302V314.211ZM281.5 307.522C280.489 307.299 279.422 307.216 278.411 307.216C277.399 307.216 276.333 307.299 275.331 307.522C274.523 307.698 273.772 307.967 273.095 308.348C271.564 309.192 270.506 310.648 270.506 312.996V314.517C270.506 317.903 272.733 319.425 275.331 319.991C276.333 320.213 277.399 320.297 278.411 320.297C279.422 320.297 280.489 320.213 281.5 319.991C282.307 319.814 283.049 319.545 283.736 319.174C285.267 318.321 286.324 316.864 286.324 314.517V312.996C286.324 309.619 284.098 308.088 281.5 307.522ZM291.566 317.041V315.371H298.106C298.524 315.371 298.867 315.788 298.867 316.206C298.867 316.623 298.524 317.041 298.106 317.041H291.566ZM297.197 310.5C297.615 310.5 297.958 310.917 297.958 311.335C297.958 311.752 297.615 312.179 297.197 312.179H291.566V310.5H297.197ZM301.075 313.562C301.966 312.996 302.522 312.077 302.522 310.88C302.55 308.709 300.723 307.531 298.561 307.541H286.705V320.009H299.479C301.623 320.009 303.459 318.84 303.432 316.66C303.432 315.092 302.485 314.016 301.075 313.562ZM229.296 342.009V333.493H235.076V329.541H218.655V333.493H224.435V342.009H229.296ZM243.964 329.216C239.27 329.225 235.429 330.58 235.447 335.302V336.211C235.429 340.924 239.27 342.288 243.964 342.297C248.649 342.288 252.49 340.924 252.471 336.211V335.302C252.471 330.589 248.658 329.216 243.964 329.216ZM247.61 335.905C247.638 337.946 245.949 338.317 243.964 338.345C241.969 338.317 240.281 337.946 240.309 335.905V335.599C240.281 333.567 241.969 333.196 243.964 333.168C245.949 333.196 247.638 333.567 247.61 335.599V335.905ZM260.914 337.732L265.487 341.991H271.87L265.404 335.756L271.87 329.522H265.487L260.914 333.78H258.789V329.522H253.928V341.991H258.789V337.732H260.914ZM272.557 342.009H287.15V338.809H277.418V337.213H287.15V334.328H277.418V332.732H287.15V329.541H272.557V342.009ZM301.901 336.127L296.427 329.522H289.738V341.991H294.6V334.374L301.298 341.991H306.771V329.522H301.901V336.127ZM313.516 333.632C313.516 332.639 315.372 332.417 316.884 332.417C318.405 332.417 319.695 332.648 320.251 333.632H325.345C324.881 329.735 321.253 329.244 316.884 329.216C312.505 329.216 308.423 330.069 308.423 333.632C308.414 336.749 313.303 336.99 316.782 337.167C318.739 337.259 320.251 337.343 320.251 337.89C320.251 338.855 318.396 339.105 316.884 339.105C315.362 339.105 314.073 338.855 313.516 337.89H308.423C308.887 341.759 312.514 342.288 316.884 342.297C321.263 342.297 325.345 341.453 325.345 337.89C325.354 334.764 320.465 334.522 316.986 334.346C315.028 334.253 313.516 334.179 313.516 333.632Z" fill="#0000FF"/>
<path d="M310.248 92.288C310.248 92.8853 310.104 93.4453 309.816 93.968C309.539 94.4907 309.096 94.912 308.488 95.232C307.891 95.552 307.133 95.712 306.216 95.712H304.344V100H302.104V88.832H306.216C307.08 88.832 307.816 88.9813 308.424 89.28C309.032 89.5787 309.485 89.9893 309.784 90.512C310.093 91.0347 310.248 91.6267 310.248 92.288ZM306.12 93.904C306.739 93.904 307.197 93.7653 307.496 93.488C307.795 93.2 307.944 92.8 307.944 92.288C307.944 91.2 307.336 90.656 306.12 90.656H304.344V93.904H306.12ZM311.262 95.536C311.262 94.64 311.438 93.8453 311.79 93.152C312.153 92.4587 312.638 91.9253 313.246 91.552C313.865 91.1787 314.553 90.992 315.31 90.992C315.972 90.992 316.548 91.1253 317.038 91.392C317.54 91.6587 317.94 91.9947 318.238 92.4V91.136H320.494V100H318.238V98.704C317.95 99.12 317.55 99.4667 317.038 99.744C316.537 100.011 315.956 100.144 315.294 100.144C314.548 100.144 313.865 99.952 313.246 99.568C312.638 99.184 312.153 98.6453 311.79 97.952C311.438 97.248 311.262 96.4427 311.262 95.536ZM318.238 95.568C318.238 95.024 318.132 94.56 317.918 94.176C317.705 93.7813 317.417 93.4827 317.054 93.28C316.692 93.0667 316.302 92.96 315.886 92.96C315.47 92.96 315.086 93.0613 314.734 93.264C314.382 93.4667 314.094 93.7653 313.87 94.16C313.657 94.544 313.55 95.0027 313.55 95.536C313.55 96.0693 313.657 96.5387 313.87 96.944C314.094 97.3387 314.382 97.6427 314.734 97.856C315.097 98.0693 315.481 98.176 315.886 98.176C316.302 98.176 316.692 98.0747 317.054 97.872C317.417 97.6587 317.705 97.36 317.918 96.976C318.132 96.5813 318.238 96.112 318.238 95.568ZM324.922 92.512C325.21 92.0427 325.583 91.6747 326.042 91.408C326.511 91.1413 327.045 91.008 327.642 91.008V93.36H327.05C326.346 93.36 325.813 93.5253 325.45 93.856C325.098 94.1867 324.922 94.7627 324.922 95.584V100H322.682V91.136H324.922V92.512ZM331.759 92.976V97.264C331.759 97.5627 331.828 97.7813 331.967 97.92C332.116 98.048 332.362 98.112 332.703 98.112H333.743V100H332.335C330.447 100 329.503 99.0827 329.503 97.248V92.976H328.447V91.136H329.503V88.944H331.759V91.136H333.743V92.976H331.759ZM340.266 91.008C341.322 91.008 342.175 91.344 342.826 92.016C343.477 92.6773 343.802 93.6053 343.802 94.8V100H341.562V95.104C341.562 94.4 341.386 93.8613 341.034 93.488C340.682 93.104 340.202 92.912 339.594 92.912C338.975 92.912 338.485 93.104 338.122 93.488C337.77 93.8613 337.594 94.4 337.594 95.104V100H335.354V91.136H337.594V92.24C337.893 91.856 338.271 91.5573 338.73 91.344C339.199 91.12 339.711 91.008 340.266 91.008ZM354.172 95.376C354.172 95.696 354.151 95.984 354.108 96.24H347.628C347.681 96.88 347.905 97.3813 348.3 97.744C348.695 98.1067 349.18 98.288 349.756 98.288C350.588 98.288 351.18 97.9307 351.532 97.216H353.948C353.692 98.0693 353.201 98.7733 352.476 99.328C351.751 99.872 350.86 100.144 349.804 100.144C348.951 100.144 348.183 99.9573 347.5 99.584C346.828 99.2 346.3 98.6613 345.916 97.968C345.543 97.2747 345.356 96.4747 345.356 95.568C345.356 94.6507 345.543 93.8453 345.916 93.152C346.289 92.4587 346.812 91.9253 347.484 91.552C348.156 91.1787 348.929 90.992 349.804 90.992C350.647 90.992 351.399 91.1733 352.06 91.536C352.732 91.8987 353.249 92.416 353.612 93.088C353.985 93.7493 354.172 94.512 354.172 95.376ZM351.852 94.736C351.841 94.16 351.633 93.7013 351.228 93.36C350.823 93.008 350.327 92.832 349.74 92.832C349.185 92.832 348.716 93.0027 348.332 93.344C347.959 93.6747 347.729 94.1387 347.644 94.736H351.852ZM358.047 92.512C358.335 92.0427 358.708 91.6747 359.167 91.408C359.636 91.1413 360.17 91.008 360.767 91.008V93.36H360.175C359.471 93.36 358.938 93.5253 358.575 93.856C358.223 94.1867 358.047 94.7627 358.047 95.584V100H355.807V91.136H358.047V92.512ZM365.668 100.144C364.943 100.144 364.292 100.016 363.716 99.76C363.14 99.4933 362.681 99.136 362.34 98.688C362.009 98.24 361.828 97.744 361.796 97.2H364.052C364.095 97.5413 364.26 97.824 364.548 98.048C364.847 98.272 365.215 98.384 365.652 98.384C366.079 98.384 366.409 98.2987 366.644 98.128C366.889 97.9573 367.012 97.7387 367.012 97.472C367.012 97.184 366.863 96.9707 366.564 96.832C366.276 96.6827 365.812 96.5227 365.172 96.352C364.511 96.192 363.967 96.0267 363.54 95.856C363.124 95.6853 362.761 95.424 362.452 95.072C362.153 94.72 362.004 94.2453 362.004 93.648C362.004 93.1573 362.143 92.7093 362.42 92.304C362.708 91.8987 363.113 91.5787 363.636 91.344C364.169 91.1093 364.793 90.992 365.508 90.992C366.564 90.992 367.407 91.2587 368.036 91.792C368.665 92.3147 369.012 93.024 369.076 93.92H366.932C366.9 93.568 366.751 93.2907 366.484 93.088C366.228 92.8747 365.881 92.768 365.444 92.768C365.039 92.768 364.724 92.8427 364.5 92.992C364.287 93.1413 364.18 93.3493 364.18 93.616C364.18 93.9147 364.329 94.144 364.628 94.304C364.927 94.4533 365.391 94.608 366.02 94.768C366.66 94.928 367.188 95.0933 367.604 95.264C368.02 95.4347 368.377 95.7013 368.676 96.064C368.985 96.416 369.145 96.8853 369.156 97.472C369.156 97.984 369.012 98.4427 368.724 98.848C368.447 99.2533 368.041 99.5733 367.508 99.808C366.985 100.032 366.372 100.144 365.668 100.144ZM375.987 91.008C376.659 91.008 377.256 91.1573 377.779 91.456C378.301 91.744 378.707 92.176 378.995 92.752C379.293 93.3173 379.443 94 379.443 94.8V100H377.203V95.104C377.203 94.4 377.027 93.8613 376.675 93.488C376.323 93.104 375.843 92.912 375.235 92.912C374.616 92.912 374.125 93.104 373.763 93.488C373.411 93.8613 373.235 94.4 373.235 95.104V100H370.995V88.16H373.235V92.24C373.523 91.856 373.907 91.5573 374.387 91.344C374.867 91.12 375.4 91.008 375.987 91.008ZM382.709 90.08C382.314 90.08 381.983 89.9573 381.717 89.712C381.461 89.456 381.333 89.1413 381.333 88.768C381.333 88.3947 381.461 88.0853 381.717 87.84C381.983 87.584 382.314 87.456 382.709 87.456C383.103 87.456 383.429 87.584 383.685 87.84C383.951 88.0853 384.085 88.3947 384.085 88.768C384.085 89.1413 383.951 89.456 383.685 89.712C383.429 89.9573 383.103 90.08 382.709 90.08ZM383.813 91.136V100H381.573V91.136H383.813ZM388.266 92.416C388.554 92.0107 388.949 91.6747 389.45 91.408C389.962 91.1307 390.543 90.992 391.194 90.992C391.951 90.992 392.634 91.1787 393.242 91.552C393.861 91.9253 394.346 92.4587 394.698 93.152C395.061 93.8347 395.242 94.6293 395.242 95.536C395.242 96.4427 395.061 97.248 394.698 97.952C394.346 98.6453 393.861 99.184 393.242 99.568C392.634 99.952 391.951 100.144 391.194 100.144C390.543 100.144 389.967 100.011 389.466 99.744C388.975 99.4773 388.575 99.1413 388.266 98.736V104.224H386.026V91.136H388.266V92.416ZM392.954 95.536C392.954 95.0027 392.842 94.544 392.618 94.16C392.405 93.7653 392.117 93.4667 391.754 93.264C391.402 93.0613 391.018 92.96 390.602 92.96C390.197 92.96 389.813 93.0667 389.45 93.28C389.098 93.4827 388.81 93.7813 388.586 94.176C388.373 94.5707 388.266 95.0347 388.266 95.568C388.266 96.1013 388.373 96.5653 388.586 96.96C388.81 97.3547 389.098 97.6587 389.45 97.872C389.813 98.0747 390.197 98.176 390.602 98.176C391.018 98.176 391.402 98.0693 391.754 97.856C392.117 97.6427 392.405 97.3387 392.618 96.944C392.842 96.5493 392.954 96.08 392.954 95.536ZM400.262 100.144C399.536 100.144 398.886 100.016 398.31 99.76C397.734 99.4933 397.275 99.136 396.934 98.688C396.603 98.24 396.422 97.744 396.39 97.2H398.646C398.688 97.5413 398.854 97.824 399.142 98.048C399.44 98.272 399.808 98.384 400.246 98.384C400.672 98.384 401.003 98.2987 401.238 98.128C401.483 97.9573 401.606 97.7387 401.606 97.472C401.606 97.184 401.456 96.9707 401.158 96.832C400.87 96.6827 400.406 96.5227 399.766 96.352C399.104 96.192 398.56 96.0267 398.134 95.856C397.718 95.6853 397.355 95.424 397.046 95.072C396.747 94.72 396.598 94.2453 396.598 93.648C396.598 93.1573 396.736 92.7093 397.014 92.304C397.302 91.8987 397.707 91.5787 398.23 91.344C398.763 91.1093 399.387 90.992 400.102 90.992C401.158 90.992 402 91.2587 402.63 91.792C403.259 92.3147 403.606 93.024 403.67 93.92H401.526C401.494 93.568 401.344 93.2907 401.078 93.088C400.822 92.8747 400.475 92.768 400.038 92.768C399.632 92.768 399.318 92.8427 399.094 92.992C398.88 93.1413 398.774 93.3493 398.774 93.616C398.774 93.9147 398.923 94.144 399.222 94.304C399.52 94.4533 399.984 94.608 400.614 94.768C401.254 94.928 401.782 95.0933 402.198 95.264C402.614 95.4347 402.971 95.7013 403.27 96.064C403.579 96.416 403.739 96.8853 403.75 97.472C403.75 97.984 403.606 98.4427 403.318 98.848C403.04 99.2533 402.635 99.5733 402.102 99.808C401.579 100.032 400.966 100.144 400.262 100.144Z" fill="#3B3B53"/>
<path d="M329.565 110.531L325.771 111.747V115.699L329.565 114.483V119.354H325.159V123H338.537V119.354H334.436V110.531H329.565ZM349.855 117.211C349.855 119.233 348.333 119.651 346.812 119.651C346.061 119.651 345.309 119.53 344.725 119.187C344.14 118.844 343.769 118.222 343.769 117.211V116.302C343.769 114.289 345.309 113.871 346.812 113.871C347.582 113.871 348.324 113.982 348.909 114.326C349.475 114.688 349.855 115.291 349.855 116.302V117.211ZM349.901 110.522C348.89 110.299 347.823 110.216 346.812 110.216C345.801 110.216 344.734 110.299 343.732 110.522C342.925 110.698 342.173 110.967 341.496 111.348C339.965 112.192 338.908 113.648 338.908 115.996V117.517C338.908 120.903 341.134 122.425 343.732 122.991C344.734 123.213 345.801 123.297 346.812 123.297C347.823 123.297 348.89 123.213 349.901 122.991C350.708 122.814 351.451 122.545 352.137 122.174C353.668 121.321 354.726 119.864 354.726 117.517V115.996C354.726 112.619 352.499 111.088 349.901 110.522ZM363.251 123H367.816L372.677 109.316H368.122L363.251 123ZM374.236 118.612C374.236 117.749 374.737 117.359 375.859 117.359C376.379 117.359 376.769 117.443 377.028 117.61C377.334 117.795 377.492 118.129 377.492 118.612V119.178C377.492 120.041 376.982 120.43 375.859 120.43C375.349 120.43 374.959 120.347 374.7 120.18C374.394 119.994 374.236 119.66 374.236 119.178V118.612ZM373.93 122.814C374.579 122.935 375.219 123 375.859 123C376.5 123 377.149 122.935 377.798 122.814C378.309 122.703 378.772 122.527 379.208 122.295C380.173 121.766 380.832 120.848 380.832 119.373V118.417C380.832 116.292 379.44 115.328 377.798 114.975C377.149 114.854 376.5 114.79 375.859 114.79C375.219 114.79 374.579 114.854 373.93 114.975C373.419 115.086 372.956 115.263 372.52 115.495C371.555 116.023 370.896 116.942 370.896 118.417V119.373C370.896 121.516 372.288 122.443 373.93 122.814ZM358.446 113.138C358.446 112.275 358.947 111.886 360.069 111.886C360.589 111.886 360.979 111.969 361.229 112.136C361.544 112.322 361.702 112.656 361.702 113.138V113.704C361.702 114.567 361.192 114.957 360.069 114.957C359.559 114.957 359.169 114.873 358.91 114.706C358.604 114.521 358.446 114.187 358.446 113.704V113.138ZM356.729 110.021C355.755 110.55 355.106 111.468 355.106 112.943V113.899C355.106 116.023 356.488 116.979 358.14 117.341C358.789 117.461 359.429 117.526 360.069 117.526C360.709 117.526 361.35 117.461 362.008 117.341C362.519 117.229 362.982 117.053 363.409 116.821C364.383 116.292 365.033 115.374 365.033 113.899V112.943C365.051 110.8 363.632 109.873 362.008 109.501C361.35 109.381 360.709 109.316 360.069 109.316C359.429 109.316 358.789 109.381 358.14 109.501C357.629 109.613 357.156 109.789 356.729 110.021Z" fill="#0000FF"/>
<path d="M480.28 286.832V298H478.04V290.736L475.048 298H473.352L470.344 290.736V298H468.104V286.832H470.648L474.2 295.136L477.752 286.832H480.28ZM481.919 293.536C481.919 292.64 482.095 291.845 482.447 291.152C482.809 290.459 483.295 289.925 483.903 289.552C484.521 289.179 485.209 288.992 485.967 288.992C486.628 288.992 487.204 289.125 487.695 289.392C488.196 289.659 488.596 289.995 488.895 290.4V289.136H491.151V298H488.895V296.704C488.607 297.12 488.207 297.467 487.695 297.744C487.193 298.011 486.612 298.144 485.951 298.144C485.204 298.144 484.521 297.952 483.903 297.568C483.295 297.184 482.809 296.645 482.447 295.952C482.095 295.248 481.919 294.443 481.919 293.536ZM488.895 293.568C488.895 293.024 488.788 292.56 488.575 292.176C488.361 291.781 488.073 291.483 487.711 291.28C487.348 291.067 486.959 290.96 486.543 290.96C486.127 290.96 485.743 291.061 485.391 291.264C485.039 291.467 484.751 291.765 484.527 292.16C484.313 292.544 484.207 293.003 484.207 293.536C484.207 294.069 484.313 294.539 484.527 294.944C484.751 295.339 485.039 295.643 485.391 295.856C485.753 296.069 486.137 296.176 486.543 296.176C486.959 296.176 487.348 296.075 487.711 295.872C488.073 295.659 488.361 295.36 488.575 294.976C488.788 294.581 488.895 294.112 488.895 293.568ZM495.578 290.512C495.866 290.043 496.24 289.675 496.698 289.408C497.168 289.141 497.701 289.008 498.298 289.008V291.36H497.706C497.002 291.36 496.469 291.525 496.106 291.856C495.754 292.187 495.578 292.763 495.578 293.584V298H493.338V289.136H495.578V290.512ZM505.055 298L502.047 294.224V298H499.807V286.16H502.047V292.896L505.023 289.136H507.935L504.031 293.584L507.967 298H505.055ZM517.391 293.376C517.391 293.696 517.37 293.984 517.327 294.24H510.847C510.9 294.88 511.124 295.381 511.519 295.744C511.914 296.107 512.399 296.288 512.975 296.288C513.807 296.288 514.399 295.931 514.751 295.216H517.167C516.911 296.069 516.42 296.773 515.695 297.328C514.97 297.872 514.079 298.144 513.023 298.144C512.17 298.144 511.402 297.957 510.719 297.584C510.047 297.2 509.519 296.661 509.135 295.968C508.762 295.275 508.575 294.475 508.575 293.568C508.575 292.651 508.762 291.845 509.135 291.152C509.508 290.459 510.031 289.925 510.703 289.552C511.375 289.179 512.148 288.992 513.023 288.992C513.866 288.992 514.618 289.173 515.279 289.536C515.951 289.899 516.468 290.416 516.831 291.088C517.204 291.749 517.391 292.512 517.391 293.376ZM515.071 292.736C515.06 292.16 514.852 291.701 514.447 291.36C514.042 291.008 513.546 290.832 512.959 290.832C512.404 290.832 511.935 291.003 511.551 291.344C511.178 291.675 510.948 292.139 510.863 292.736H515.071ZM521.634 290.976V295.264C521.634 295.563 521.703 295.781 521.842 295.92C521.991 296.048 522.237 296.112 522.578 296.112H523.618V298H522.21C520.322 298 519.378 297.083 519.378 295.248V290.976H518.322V289.136H519.378V286.944H521.634V289.136H523.618V290.976H521.634ZM526.365 288.08C525.97 288.08 525.64 287.957 525.373 287.712C525.117 287.456 524.989 287.141 524.989 286.768C524.989 286.395 525.117 286.085 525.373 285.84C525.64 285.584 525.97 285.456 526.365 285.456C526.76 285.456 527.085 285.584 527.341 285.84C527.608 286.085 527.741 286.395 527.741 286.768C527.741 287.141 527.608 287.456 527.341 287.712C527.085 287.957 526.76 288.08 526.365 288.08ZM527.469 289.136V298H525.229V289.136H527.469ZM534.594 289.008C535.65 289.008 536.503 289.344 537.154 290.016C537.805 290.677 538.13 291.605 538.13 292.8V298H535.89V293.104C535.89 292.4 535.714 291.861 535.362 291.488C535.01 291.104 534.53 290.912 533.922 290.912C533.303 290.912 532.813 291.104 532.45 291.488C532.098 291.861 531.922 292.4 531.922 293.104V298H529.682V289.136H531.922V290.24C532.221 289.856 532.599 289.557 533.058 289.344C533.527 289.12 534.039 289.008 534.594 289.008ZM543.732 288.992C544.394 288.992 544.975 289.125 545.476 289.392C545.978 289.648 546.372 289.984 546.66 290.4V289.136H548.916V298.064C548.916 298.885 548.751 299.616 548.42 300.256C548.09 300.907 547.594 301.419 546.932 301.792C546.271 302.176 545.471 302.368 544.532 302.368C543.274 302.368 542.239 302.075 541.428 301.488C540.628 300.901 540.175 300.101 540.068 299.088H542.292C542.41 299.493 542.66 299.813 543.044 300.048C543.439 300.293 543.914 300.416 544.468 300.416C545.119 300.416 545.647 300.219 546.052 299.824C546.458 299.44 546.66 298.853 546.66 298.064V296.688C546.372 297.104 545.972 297.451 545.46 297.728C544.959 298.005 544.383 298.144 543.732 298.144C542.986 298.144 542.303 297.952 541.684 297.568C541.066 297.184 540.575 296.645 540.212 295.952C539.86 295.248 539.684 294.443 539.684 293.536C539.684 292.64 539.86 291.845 540.212 291.152C540.575 290.459 541.06 289.925 541.668 289.552C542.287 289.179 542.975 288.992 543.732 288.992ZM546.66 293.568C546.66 293.024 546.554 292.56 546.34 292.176C546.127 291.781 545.839 291.483 545.476 291.28C545.114 291.067 544.724 290.96 544.308 290.96C543.892 290.96 543.508 291.061 543.156 291.264C542.804 291.467 542.516 291.765 542.292 292.16C542.079 292.544 541.972 293.003 541.972 293.536C541.972 294.069 542.079 294.539 542.292 294.944C542.516 295.339 542.804 295.643 543.156 295.856C543.519 296.069 543.903 296.176 544.308 296.176C544.724 296.176 545.114 296.075 545.476 295.872C545.839 295.659 546.127 295.36 546.34 294.976C546.554 294.581 546.66 294.112 546.66 293.568Z" fill="#3B3B53"/>
<path d="M492.896 313.04L493.155 311.871H502.433V308.522H489.055L487.533 315.211V315.239H494.148C497.979 315.239 498.471 315.851 498.471 316.649C498.471 317.308 497.664 317.604 495.836 317.604C493.935 317.577 492.385 317.632 492.404 316.306H487.533C487.533 320.462 490.808 321.297 495.642 321.297C498.091 321.297 499.983 320.935 501.329 320.211C502.674 319.488 503.351 318.477 503.351 317.178C503.351 313.374 499.121 313.04 494.148 313.04H492.896ZM511.877 321H516.441L521.303 307.316H516.748L511.877 321ZM522.861 316.612C522.861 315.749 523.362 315.359 524.485 315.359C525.004 315.359 525.394 315.443 525.654 315.61C525.96 315.795 526.118 316.129 526.118 316.612V317.178C526.118 318.041 525.607 318.43 524.485 318.43C523.975 318.43 523.585 318.347 523.325 318.18C523.019 317.994 522.861 317.66 522.861 317.178V316.612ZM522.555 320.814C523.205 320.935 523.845 321 524.485 321C525.125 321 525.774 320.935 526.424 320.814C526.934 320.703 527.398 320.527 527.834 320.295C528.799 319.766 529.458 318.848 529.458 317.373V316.417C529.458 314.292 528.066 313.328 526.424 312.975C525.774 312.854 525.125 312.79 524.485 312.79C523.845 312.79 523.205 312.854 522.555 312.975C522.045 313.086 521.581 313.263 521.145 313.495C520.18 314.023 519.521 314.942 519.521 316.417V317.373C519.521 319.516 520.913 320.443 522.555 320.814ZM507.071 311.138C507.071 310.275 507.572 309.886 508.695 309.886C509.214 309.886 509.604 309.969 509.854 310.136C510.17 310.322 510.328 310.656 510.328 311.138V311.704C510.328 312.567 509.817 312.957 508.695 312.957C508.185 312.957 507.795 312.873 507.535 312.706C507.229 312.521 507.071 312.187 507.071 311.704V311.138ZM505.355 308.021C504.381 308.55 503.731 309.468 503.731 310.943V311.899C503.731 314.023 505.114 314.979 506.765 315.341C507.415 315.461 508.055 315.526 508.695 315.526C509.335 315.526 509.975 315.461 510.634 315.341C511.144 315.229 511.608 315.053 512.035 314.821C513.009 314.292 513.658 313.374 513.658 311.899V310.943C513.677 308.8 512.257 307.873 510.634 307.501C509.975 307.381 509.335 307.316 508.695 307.316C508.055 307.316 507.415 307.381 506.765 307.501C506.255 307.613 505.782 307.789 505.355 308.021Z" fill="#0000FF"/>
<path d="M470.952 213.872H466.504L465.768 216H463.416L467.432 204.816H470.04L474.056 216H471.688L470.952 213.872ZM470.344 212.08L468.728 207.408L467.112 212.08H470.344ZM474.981 211.536C474.981 210.64 475.157 209.845 475.509 209.152C475.872 208.459 476.362 207.925 476.981 207.552C477.6 207.179 478.288 206.992 479.045 206.992C479.621 206.992 480.17 207.12 480.693 207.376C481.216 207.621 481.632 207.952 481.941 208.368V204.16H484.213V216H481.941V214.688C481.664 215.125 481.274 215.477 480.773 215.744C480.272 216.011 479.69 216.144 479.029 216.144C478.282 216.144 477.6 215.952 476.981 215.568C476.362 215.184 475.872 214.645 475.509 213.952C475.157 213.248 474.981 212.443 474.981 211.536ZM481.957 211.568C481.957 211.024 481.85 210.56 481.637 210.176C481.424 209.781 481.136 209.483 480.773 209.28C480.41 209.067 480.021 208.96 479.605 208.96C479.189 208.96 478.805 209.061 478.453 209.264C478.101 209.467 477.813 209.765 477.589 210.16C477.376 210.544 477.269 211.003 477.269 211.536C477.269 212.069 477.376 212.539 477.589 212.944C477.813 213.339 478.101 213.643 478.453 213.856C478.816 214.069 479.2 214.176 479.605 214.176C480.021 214.176 480.41 214.075 480.773 213.872C481.136 213.659 481.424 213.36 481.637 212.976C481.85 212.581 481.957 212.112 481.957 211.568ZM490.097 213.936L492.337 207.136H494.721L491.441 216H488.721L485.457 207.136H487.857L490.097 213.936ZM497.115 206.08C496.72 206.08 496.39 205.957 496.123 205.712C495.867 205.456 495.739 205.141 495.739 204.768C495.739 204.395 495.867 204.085 496.123 203.84C496.39 203.584 496.72 203.456 497.115 203.456C497.51 203.456 497.835 203.584 498.091 203.84C498.358 204.085 498.491 204.395 498.491 204.768C498.491 205.141 498.358 205.456 498.091 205.712C497.835 205.957 497.51 206.08 497.115 206.08ZM498.219 207.136V216H495.979V207.136H498.219ZM503.824 216.144C503.099 216.144 502.448 216.016 501.872 215.76C501.296 215.493 500.837 215.136 500.496 214.688C500.165 214.24 499.984 213.744 499.952 213.2H502.208C502.251 213.541 502.416 213.824 502.704 214.048C503.003 214.272 503.371 214.384 503.808 214.384C504.235 214.384 504.565 214.299 504.8 214.128C505.045 213.957 505.168 213.739 505.168 213.472C505.168 213.184 505.019 212.971 504.72 212.832C504.432 212.683 503.968 212.523 503.328 212.352C502.667 212.192 502.123 212.027 501.696 211.856C501.28 211.685 500.917 211.424 500.608 211.072C500.309 210.72 500.16 210.245 500.16 209.648C500.16 209.157 500.299 208.709 500.576 208.304C500.864 207.899 501.269 207.579 501.792 207.344C502.325 207.109 502.949 206.992 503.664 206.992C504.72 206.992 505.563 207.259 506.192 207.792C506.821 208.315 507.168 209.024 507.232 209.92H505.088C505.056 209.568 504.907 209.291 504.64 209.088C504.384 208.875 504.037 208.768 503.6 208.768C503.195 208.768 502.88 208.843 502.656 208.992C502.443 209.141 502.336 209.349 502.336 209.616C502.336 209.915 502.485 210.144 502.784 210.304C503.083 210.453 503.547 210.608 504.176 210.768C504.816 210.928 505.344 211.093 505.76 211.264C506.176 211.435 506.533 211.701 506.832 212.064C507.141 212.416 507.301 212.885 507.312 213.472C507.312 213.984 507.168 214.443 506.88 214.848C506.603 215.253 506.197 215.573 505.664 215.808C505.141 216.032 504.528 216.144 503.824 216.144ZM513.087 216.144C512.234 216.144 511.466 215.957 510.783 215.584C510.1 215.2 509.562 214.661 509.167 213.968C508.783 213.275 508.591 212.475 508.591 211.568C508.591 210.661 508.788 209.861 509.183 209.168C509.588 208.475 510.138 207.941 510.831 207.568C511.524 207.184 512.298 206.992 513.151 206.992C514.004 206.992 514.778 207.184 515.471 207.568C516.164 207.941 516.708 208.475 517.103 209.168C517.508 209.861 517.711 210.661 517.711 211.568C517.711 212.475 517.503 213.275 517.087 213.968C516.682 214.661 516.127 215.2 515.423 215.584C514.73 215.957 513.951 216.144 513.087 216.144ZM513.087 214.192C513.492 214.192 513.871 214.096 514.223 213.904C514.586 213.701 514.874 213.403 515.087 213.008C515.3 212.613 515.407 212.133 515.407 211.568C515.407 210.725 515.183 210.08 514.735 209.632C514.298 209.173 513.759 208.944 513.119 208.944C512.479 208.944 511.94 209.173 511.503 209.632C511.076 210.08 510.863 210.725 510.863 211.568C510.863 212.411 511.071 213.061 511.487 213.52C511.914 213.968 512.447 214.192 513.087 214.192ZM521.594 208.512C521.882 208.043 522.255 207.675 522.714 207.408C523.183 207.141 523.717 207.008 524.314 207.008V209.36H523.722C523.018 209.36 522.485 209.525 522.122 209.856C521.77 210.187 521.594 210.763 521.594 211.584V216H519.354V207.136H521.594V208.512ZM529.215 216.144C528.489 216.144 527.839 216.016 527.263 215.76C526.687 215.493 526.228 215.136 525.887 214.688C525.556 214.24 525.375 213.744 525.343 213.2H527.599C527.641 213.541 527.807 213.824 528.095 214.048C528.393 214.272 528.761 214.384 529.199 214.384C529.625 214.384 529.956 214.299 530.191 214.128C530.436 213.957 530.559 213.739 530.559 213.472C530.559 213.184 530.409 212.971 530.111 212.832C529.823 212.683 529.359 212.523 528.719 212.352C528.057 212.192 527.513 212.027 527.087 211.856C526.671 211.685 526.308 211.424 525.999 211.072C525.7 210.72 525.551 210.245 525.551 209.648C525.551 209.157 525.689 208.709 525.967 208.304C526.255 207.899 526.66 207.579 527.183 207.344C527.716 207.109 528.34 206.992 529.055 206.992C530.111 206.992 530.953 207.259 531.583 207.792C532.212 208.315 532.559 209.024 532.623 209.92H530.479C530.447 209.568 530.297 209.291 530.031 209.088C529.775 208.875 529.428 208.768 528.991 208.768C528.585 208.768 528.271 208.843 528.047 208.992C527.833 209.141 527.727 209.349 527.727 209.616C527.727 209.915 527.876 210.144 528.175 210.304C528.473 210.453 528.937 210.608 529.567 210.768C530.207 210.928 530.735 211.093 531.151 211.264C531.567 211.435 531.924 211.701 532.223 212.064C532.532 212.416 532.692 212.885 532.703 213.472C532.703 213.984 532.559 214.443 532.271 214.848C531.993 215.253 531.588 215.573 531.055 215.808C530.532 216.032 529.919 216.144 529.215 216.144Z" fill="#3B3B53"/>
<path d="M482.896 231.04L483.155 229.871H492.433V226.522H479.055L477.533 233.211V233.239H484.148C487.979 233.239 488.471 233.851 488.471 234.649C488.471 235.308 487.664 235.604 485.836 235.604C483.935 235.577 482.385 235.632 482.404 234.306H477.533C477.533 238.462 480.808 239.297 485.642 239.297C488.091 239.297 489.983 238.935 491.329 238.211C492.674 237.488 493.351 236.477 493.351 235.178C493.351 231.374 489.121 231.04 484.148 231.04H482.896ZM501.877 239H506.441L511.303 225.316H506.748L501.877 239ZM512.861 234.612C512.861 233.749 513.362 233.359 514.485 233.359C515.004 233.359 515.394 233.443 515.654 233.61C515.96 233.795 516.118 234.129 516.118 234.612V235.178C516.118 236.041 515.607 236.43 514.485 236.43C513.975 236.43 513.585 236.347 513.325 236.18C513.019 235.994 512.861 235.66 512.861 235.178V234.612ZM512.555 238.814C513.205 238.935 513.845 239 514.485 239C515.125 239 515.774 238.935 516.424 238.814C516.934 238.703 517.398 238.527 517.834 238.295C518.799 237.766 519.458 236.848 519.458 235.373V234.417C519.458 232.292 518.066 231.328 516.424 230.975C515.774 230.854 515.125 230.79 514.485 230.79C513.845 230.79 513.205 230.854 512.555 230.975C512.045 231.086 511.581 231.263 511.145 231.495C510.18 232.023 509.521 232.942 509.521 234.417V235.373C509.521 237.516 510.913 238.443 512.555 238.814ZM497.071 229.138C497.071 228.275 497.572 227.886 498.695 227.886C499.214 227.886 499.604 227.969 499.854 228.136C500.17 228.322 500.328 228.656 500.328 229.138V229.704C500.328 230.567 499.817 230.957 498.695 230.957C498.185 230.957 497.795 230.873 497.535 230.706C497.229 230.521 497.071 230.187 497.071 229.704V229.138ZM495.355 226.021C494.381 226.55 493.731 227.468 493.731 228.943V229.899C493.731 232.023 495.114 232.979 496.765 233.341C497.415 233.461 498.055 233.526 498.695 233.526C499.335 233.526 499.975 233.461 500.634 233.341C501.144 233.229 501.608 233.053 502.035 232.821C503.009 232.292 503.658 231.374 503.658 229.899V228.943C503.677 226.8 502.257 225.873 500.634 225.501C499.975 225.381 499.335 225.316 498.695 225.316C498.055 225.316 497.415 225.381 496.765 225.501C496.255 225.613 495.782 225.789 495.355 226.021Z" fill="#0000FF"/>
<path d="M430.704 142.832V144.64H427.728V154H425.488V144.64H422.512V142.832H430.704ZM440.578 149.376C440.578 149.696 440.557 149.984 440.514 150.24H434.034C434.088 150.88 434.312 151.381 434.706 151.744C435.101 152.107 435.586 152.288 436.162 152.288C436.994 152.288 437.586 151.931 437.938 151.216H440.354C440.098 152.069 439.608 152.773 438.882 153.328C438.157 153.872 437.266 154.144 436.21 154.144C435.357 154.144 434.589 153.957 433.906 153.584C433.234 153.2 432.706 152.661 432.322 151.968C431.949 151.275 431.762 150.475 431.762 149.568C431.762 148.651 431.949 147.845 432.322 147.152C432.696 146.459 433.218 145.925 433.89 145.552C434.562 145.179 435.336 144.992 436.21 144.992C437.053 144.992 437.805 145.173 438.466 145.536C439.138 145.899 439.656 146.416 440.018 147.088C440.392 147.749 440.578 148.512 440.578 149.376ZM438.258 148.736C438.248 148.16 438.04 147.701 437.634 147.36C437.229 147.008 436.733 146.832 436.146 146.832C435.592 146.832 435.122 147.003 434.738 147.344C434.365 147.675 434.136 148.139 434.05 148.736H438.258ZM441.637 149.536C441.637 148.64 441.813 147.845 442.165 147.152C442.528 146.459 443.013 145.925 443.621 145.552C444.24 145.179 444.928 144.992 445.685 144.992C446.347 144.992 446.923 145.125 447.413 145.392C447.915 145.659 448.315 145.995 448.613 146.4V145.136H450.869V154H448.613V152.704C448.325 153.12 447.925 153.467 447.413 153.744C446.912 154.011 446.331 154.144 445.669 154.144C444.923 154.144 444.24 153.952 443.621 153.568C443.013 153.184 442.528 152.645 442.165 151.952C441.813 151.248 441.637 150.443 441.637 149.536ZM448.613 149.568C448.613 149.024 448.507 148.56 448.293 148.176C448.08 147.781 447.792 147.483 447.429 147.28C447.067 147.067 446.677 146.96 446.261 146.96C445.845 146.96 445.461 147.061 445.109 147.264C444.757 147.467 444.469 147.765 444.245 148.16C444.032 148.544 443.925 149.003 443.925 149.536C443.925 150.069 444.032 150.539 444.245 150.944C444.469 151.339 444.757 151.643 445.109 151.856C445.472 152.069 445.856 152.176 446.261 152.176C446.677 152.176 447.067 152.075 447.429 151.872C447.792 151.659 448.08 151.36 448.293 150.976C448.507 150.581 448.613 150.112 448.613 149.568ZM464.065 145.008C465.153 145.008 466.028 145.344 466.689 146.016C467.361 146.677 467.697 147.605 467.697 148.8V154H465.457V149.104C465.457 148.411 465.281 147.883 464.929 147.52C464.577 147.147 464.097 146.96 463.489 146.96C462.881 146.96 462.396 147.147 462.033 147.52C461.681 147.883 461.505 148.411 461.505 149.104V154H459.265V149.104C459.265 148.411 459.089 147.883 458.737 147.52C458.385 147.147 457.905 146.96 457.297 146.96C456.678 146.96 456.188 147.147 455.825 147.52C455.473 147.883 455.297 148.411 455.297 149.104V154H453.057V145.136H455.297V146.208C455.585 145.835 455.953 145.541 456.401 145.328C456.86 145.115 457.361 145.008 457.905 145.008C458.598 145.008 459.217 145.157 459.761 145.456C460.305 145.744 460.726 146.16 461.025 146.704C461.313 146.192 461.729 145.781 462.273 145.472C462.828 145.163 463.425 145.008 464.065 145.008Z" fill="#3B3B53"/>
<path d="M429.896 169.04L430.155 167.871H439.433V164.522H426.055L424.533 171.211V171.239H431.148C434.979 171.239 435.471 171.851 435.471 172.649C435.471 173.308 434.664 173.604 432.836 173.604C430.935 173.577 429.385 173.632 429.404 172.306H424.533C424.533 176.462 427.808 177.297 432.642 177.297C435.091 177.297 436.983 176.935 438.329 176.211C439.674 175.488 440.351 174.477 440.351 173.178C440.351 169.374 436.121 169.04 431.148 169.04H429.896ZM448.877 177H453.441L458.303 163.316H453.748L448.877 177ZM459.861 172.612C459.861 171.749 460.362 171.359 461.485 171.359C462.004 171.359 462.394 171.443 462.654 171.61C462.96 171.795 463.118 172.129 463.118 172.612V173.178C463.118 174.041 462.607 174.43 461.485 174.43C460.975 174.43 460.585 174.347 460.325 174.18C460.019 173.994 459.861 173.66 459.861 173.178V172.612ZM459.555 176.814C460.205 176.935 460.845 177 461.485 177C462.125 177 462.774 176.935 463.424 176.814C463.934 176.703 464.398 176.527 464.834 176.295C465.799 175.766 466.458 174.848 466.458 173.373V172.417C466.458 170.292 465.066 169.328 463.424 168.975C462.774 168.854 462.125 168.79 461.485 168.79C460.845 168.79 460.205 168.854 459.555 168.975C459.045 169.086 458.581 169.263 458.145 169.495C457.18 170.023 456.521 170.942 456.521 172.417V173.373C456.521 175.516 457.913 176.443 459.555 176.814ZM444.071 167.138C444.071 166.275 444.572 165.886 445.695 165.886C446.214 165.886 446.604 165.969 446.854 166.136C447.17 166.322 447.328 166.656 447.328 167.138V167.704C447.328 168.567 446.817 168.957 445.695 168.957C445.185 168.957 444.795 168.873 444.535 168.706C444.229 168.521 444.071 168.187 444.071 167.704V167.138ZM442.355 164.021C441.381 164.55 440.731 165.468 440.731 166.943V167.899C440.731 170.023 442.114 170.979 443.765 171.341C444.415 171.461 445.055 171.526 445.695 171.526C446.335 171.526 446.975 171.461 447.634 171.341C448.144 171.229 448.608 171.053 449.035 170.821C450.009 170.292 450.658 169.374 450.658 167.899V166.943C450.677 164.8 449.257 163.873 447.634 163.501C446.975 163.381 446.335 163.316 445.695 163.316C445.055 163.316 444.415 163.381 443.765 163.501C443.255 163.613 442.782 163.789 442.355 164.021Z" fill="#0000FF"/>
<path d="M56.7346 155.64V158.44H60.4946V160.216H56.7346V163.176H60.9746V165H54.4946V153.816H60.9746V155.64H56.7346ZM67.9063 165L66.0823 162.248L64.4663 165H62.0663L64.9623 160.552L62.0343 156.136H64.5623L66.3703 158.872L68.0023 156.136H70.4023L67.4903 160.552L70.4343 165H67.9063ZM71.0749 160.568C71.0749 159.651 71.2615 158.851 71.6349 158.168C72.0082 157.475 72.5255 156.941 73.1869 156.568C73.8482 156.184 74.6055 155.992 75.4589 155.992C76.5575 155.992 77.4642 156.269 78.1789 156.824C78.9042 157.368 79.3895 158.136 79.6349 159.128H77.2189C77.0909 158.744 76.8722 158.445 76.5629 158.232C76.2642 158.008 75.8909 157.896 75.4429 157.896C74.8029 157.896 74.2962 158.131 73.9229 158.6C73.5495 159.059 73.3629 159.715 73.3629 160.568C73.3629 161.411 73.5495 162.067 73.9229 162.536C74.2962 162.995 74.8029 163.224 75.4429 163.224C76.3495 163.224 76.9415 162.819 77.2189 162.008H79.6349C79.3895 162.968 78.9042 163.731 78.1789 164.296C77.4535 164.861 76.5469 165.144 75.4589 165.144C74.6055 165.144 73.8482 164.957 73.1869 164.584C72.5255 164.2 72.0082 163.667 71.6349 162.984C71.2615 162.291 71.0749 161.485 71.0749 160.568ZM86.2679 156.008C86.9399 156.008 87.5372 156.157 88.0599 156.456C88.5825 156.744 88.9879 157.176 89.2759 157.752C89.5745 158.317 89.7239 159 89.7239 159.8V165H87.4839V160.104C87.4839 159.4 87.3079 158.861 86.9559 158.488C86.6039 158.104 86.1239 157.912 85.5159 157.912C84.8972 157.912 84.4065 158.104 84.0439 158.488C83.6919 158.861 83.5159 159.4 83.5159 160.104V165H81.2759V153.16H83.5159V157.24C83.8039 156.856 84.1879 156.557 84.6679 156.344C85.1479 156.12 85.6812 156.008 86.2679 156.008ZM91.278 160.536C91.278 159.64 91.454 158.845 91.806 158.152C92.1687 157.459 92.654 156.925 93.262 156.552C93.8807 156.179 94.5687 155.992 95.326 155.992C95.9873 155.992 96.5633 156.125 97.054 156.392C97.5553 156.659 97.9553 156.995 98.254 157.4V156.136H100.51V165H98.254V163.704C97.966 164.12 97.566 164.467 97.054 164.744C96.5527 165.011 95.9713 165.144 95.31 165.144C94.5633 165.144 93.8807 164.952 93.262 164.568C92.654 164.184 92.1687 163.645 91.806 162.952C91.454 162.248 91.278 161.443 91.278 160.536ZM98.254 160.568C98.254 160.024 98.1473 159.56 97.934 159.176C97.7207 158.781 97.4327 158.483 97.07 158.28C96.7073 158.067 96.318 157.96 95.902 157.96C95.486 157.96 95.102 158.061 94.75 158.264C94.398 158.467 94.11 158.765 93.886 159.16C93.6727 159.544 93.566 160.003 93.566 160.536C93.566 161.069 93.6727 161.539 93.886 161.944C94.11 162.339 94.398 162.643 94.75 162.856C95.1127 163.069 95.4967 163.176 95.902 163.176C96.318 163.176 96.7073 163.075 97.07 162.872C97.4327 162.659 97.7207 162.36 97.934 161.976C98.1473 161.581 98.254 161.112 98.254 160.568ZM107.61 156.008C108.666 156.008 109.519 156.344 110.17 157.016C110.82 157.677 111.146 158.605 111.146 159.8V165H108.906V160.104C108.906 159.4 108.73 158.861 108.378 158.488C108.026 158.104 107.546 157.912 106.938 157.912C106.319 157.912 105.828 158.104 105.466 158.488C105.114 158.861 104.938 159.4 104.938 160.104V165H102.698V156.136H104.938V157.24C105.236 156.856 105.615 156.557 106.074 156.344C106.543 156.12 107.055 156.008 107.61 156.008ZM116.748 155.992C117.409 155.992 117.991 156.125 118.492 156.392C118.993 156.648 119.388 156.984 119.676 157.4V156.136H121.932V165.064C121.932 165.885 121.767 166.616 121.436 167.256C121.105 167.907 120.609 168.419 119.948 168.792C119.287 169.176 118.487 169.368 117.548 169.368C116.289 169.368 115.255 169.075 114.444 168.488C113.644 167.901 113.191 167.101 113.084 166.088H115.308C115.425 166.493 115.676 166.813 116.06 167.048C116.455 167.293 116.929 167.416 117.484 167.416C118.135 167.416 118.663 167.219 119.068 166.824C119.473 166.44 119.676 165.853 119.676 165.064V163.688C119.388 164.104 118.988 164.451 118.476 164.728C117.975 165.005 117.399 165.144 116.748 165.144C116.001 165.144 115.319 164.952 114.7 164.568C114.081 164.184 113.591 163.645 113.228 162.952C112.876 162.248 112.7 161.443 112.7 160.536C112.7 159.64 112.876 158.845 113.228 158.152C113.591 157.459 114.076 156.925 114.684 156.552C115.303 156.179 115.991 155.992 116.748 155.992ZM119.676 160.568C119.676 160.024 119.569 159.56 119.356 159.176C119.143 158.781 118.855 158.483 118.492 158.28C118.129 158.067 117.74 157.96 117.324 157.96C116.908 157.96 116.524 158.061 116.172 158.264C115.82 158.467 115.532 158.765 115.308 159.16C115.095 159.544 114.988 160.003 114.988 160.536C114.988 161.069 115.095 161.539 115.308 161.944C115.532 162.339 115.82 162.643 116.172 162.856C116.535 163.069 116.919 163.176 117.324 163.176C117.74 163.176 118.129 163.075 118.492 162.872C118.855 162.659 119.143 162.36 119.356 161.976C119.569 161.581 119.676 161.112 119.676 160.568ZM132.36 160.376C132.36 160.696 132.338 160.984 132.296 161.24H125.816C125.869 161.88 126.093 162.381 126.488 162.744C126.882 163.107 127.368 163.288 127.944 163.288C128.776 163.288 129.368 162.931 129.72 162.216H132.136C131.88 163.069 131.389 163.773 130.664 164.328C129.938 164.872 129.048 165.144 127.992 165.144C127.138 165.144 126.37 164.957 125.688 164.584C125.016 164.2 124.488 163.661 124.104 162.968C123.73 162.275 123.544 161.475 123.544 160.568C123.544 159.651 123.73 158.845 124.104 158.152C124.477 157.459 125 156.925 125.672 156.552C126.344 156.179 127.117 155.992 127.992 155.992C128.834 155.992 129.586 156.173 130.248 156.536C130.92 156.899 131.437 157.416 131.8 158.088C132.173 158.749 132.36 159.512 132.36 160.376ZM130.04 159.736C130.029 159.16 129.821 158.701 129.416 158.36C129.01 158.008 128.514 157.832 127.928 157.832C127.373 157.832 126.904 158.003 126.52 158.344C126.146 158.675 125.917 159.139 125.832 159.736H130.04ZM137.387 165.144C136.661 165.144 136.011 165.016 135.435 164.76C134.859 164.493 134.4 164.136 134.059 163.688C133.728 163.24 133.547 162.744 133.515 162.2H135.771C135.813 162.541 135.979 162.824 136.267 163.048C136.565 163.272 136.933 163.384 137.371 163.384C137.797 163.384 138.128 163.299 138.363 163.128C138.608 162.957 138.731 162.739 138.731 162.472C138.731 162.184 138.581 161.971 138.283 161.832C137.995 161.683 137.531 161.523 136.891 161.352C136.229 161.192 135.685 161.027 135.259 160.856C134.843 160.685 134.48 160.424 134.171 160.072C133.872 159.72 133.723 159.245 133.723 158.648C133.723 158.157 133.861 157.709 134.139 157.304C134.427 156.899 134.832 156.579 135.355 156.344C135.888 156.109 136.512 155.992 137.227 155.992C138.283 155.992 139.125 156.259 139.755 156.792C140.384 157.315 140.731 158.024 140.795 158.92H138.651C138.619 158.568 138.469 158.291 138.203 158.088C137.947 157.875 137.6 157.768 137.163 157.768C136.757 157.768 136.443 157.843 136.219 157.992C136.005 158.141 135.899 158.349 135.899 158.616C135.899 158.915 136.048 159.144 136.347 159.304C136.645 159.453 137.109 159.608 137.739 159.768C138.379 159.928 138.907 160.093 139.323 160.264C139.739 160.435 140.096 160.701 140.395 161.064C140.704 161.416 140.864 161.885 140.875 162.472C140.875 162.984 140.731 163.443 140.443 163.848C140.165 164.253 139.76 164.573 139.227 164.808C138.704 165.032 138.091 165.144 137.387 165.144Z" fill="#3B3B53"/>
<path d="M84.252 179.381C84.252 176.338 81.4316 175.216 76.6353 175.216C71.9131 175.216 68.6289 176.023 68.6289 180.226H73.5088C73.481 179.066 75.0303 178.797 76.8394 178.778C78.5742 178.778 79.3721 179.168 79.3721 179.697C79.3721 180.355 77.8042 180.736 75.8467 181.218C72.6367 181.979 68.4341 183.037 68.4341 185.885V187.991H84.0479V184.428H76.1157C76.4868 183.974 77.5166 183.667 78.8062 183.361C81.1997 182.777 84.252 181.979 84.252 179.381ZM89.9946 180.04L90.2544 178.871H99.5317V175.522H86.1538L84.6323 182.211V182.239H91.2471C95.0786 182.239 95.5703 182.851 95.5703 183.649C95.5703 184.308 94.7632 184.604 92.9355 184.604C91.0337 184.577 89.4844 184.632 89.5029 183.306H84.6323C84.6323 187.462 87.9072 188.297 92.7407 188.297C95.1899 188.297 97.0825 187.935 98.4277 187.211C99.7729 186.488 100.45 185.477 100.45 184.178C100.45 180.374 96.2197 180.04 91.2471 180.04H89.9946ZM108.976 188H113.541L118.402 174.316H113.847L108.976 188ZM119.96 183.612C119.96 182.749 120.461 182.359 121.584 182.359C122.104 182.359 122.493 182.443 122.753 182.61C123.059 182.795 123.217 183.129 123.217 183.612V184.178C123.217 185.041 122.707 185.43 121.584 185.43C121.074 185.43 120.684 185.347 120.424 185.18C120.118 184.994 119.96 184.66 119.96 184.178V183.612ZM119.654 187.814C120.304 187.935 120.944 188 121.584 188C122.224 188 122.874 187.935 123.523 187.814C124.033 187.703 124.497 187.527 124.933 187.295C125.898 186.766 126.557 185.848 126.557 184.373V183.417C126.557 181.292 125.165 180.328 123.523 179.975C122.874 179.854 122.224 179.79 121.584 179.79C120.944 179.79 120.304 179.854 119.654 179.975C119.144 180.086 118.68 180.263 118.244 180.495C117.279 181.023 116.621 181.942 116.621 183.417V184.373C116.621 186.516 118.012 187.443 119.654 187.814ZM104.17 178.138C104.17 177.275 104.671 176.886 105.794 176.886C106.313 176.886 106.703 176.969 106.954 177.136C107.269 177.322 107.427 177.656 107.427 178.138V178.704C107.427 179.567 106.917 179.957 105.794 179.957C105.284 179.957 104.894 179.873 104.634 179.706C104.328 179.521 104.17 179.187 104.17 178.704V178.138ZM102.454 175.021C101.48 175.55 100.831 176.468 100.831 177.943V178.899C100.831 181.023 102.213 181.979 103.864 182.341C104.514 182.461 105.154 182.526 105.794 182.526C106.434 182.526 107.074 182.461 107.733 182.341C108.243 182.229 108.707 182.053 109.134 181.821C110.108 181.292 110.757 180.374 110.757 178.899V177.943C110.776 175.8 109.356 174.873 107.733 174.501C107.074 174.381 106.434 174.316 105.794 174.316C105.154 174.316 104.514 174.381 103.864 174.501C103.354 174.613 102.881 174.789 102.454 175.021Z" fill="#0000FF"/>
<path d="M259.248 523.288C259.248 523.885 259.104 524.445 258.816 524.968C258.539 525.491 258.096 525.912 257.488 526.232C256.891 526.552 256.133 526.712 255.216 526.712H253.344V531H251.104V519.832H255.216C256.08 519.832 256.816 519.981 257.424 520.28C258.032 520.579 258.485 520.989 258.784 521.512C259.093 522.035 259.248 522.627 259.248 523.288ZM255.12 524.904C255.739 524.904 256.197 524.765 256.496 524.488C256.795 524.2 256.944 523.8 256.944 523.288C256.944 522.2 256.336 521.656 255.12 521.656H253.344V524.904H255.12ZM263.078 523.512C263.366 523.043 263.74 522.675 264.198 522.408C264.668 522.141 265.201 522.008 265.798 522.008V524.36H265.206C264.502 524.36 263.969 524.525 263.606 524.856C263.254 525.187 263.078 525.763 263.078 526.584V531H260.838V522.136H263.078V523.512ZM275.547 526.376C275.547 526.696 275.526 526.984 275.483 527.24H269.003C269.056 527.88 269.28 528.381 269.675 528.744C270.07 529.107 270.555 529.288 271.131 529.288C271.963 529.288 272.555 528.931 272.907 528.216H275.323C275.067 529.069 274.576 529.773 273.851 530.328C273.126 530.872 272.235 531.144 271.179 531.144C270.326 531.144 269.558 530.957 268.875 530.584C268.203 530.2 267.675 529.661 267.291 528.968C266.918 528.275 266.731 527.475 266.731 526.568C266.731 525.651 266.918 524.845 267.291 524.152C267.664 523.459 268.187 522.925 268.859 522.552C269.531 522.179 270.304 521.992 271.179 521.992C272.022 521.992 272.774 522.173 273.435 522.536C274.107 522.899 274.624 523.416 274.987 524.088C275.36 524.749 275.547 525.512 275.547 526.376ZM273.227 525.736C273.216 525.16 273.008 524.701 272.603 524.36C272.198 524.008 271.702 523.832 271.115 523.832C270.56 523.832 270.091 524.003 269.707 524.344C269.334 524.675 269.104 525.139 269.019 525.736H273.227ZM280.574 531.144C279.849 531.144 279.198 531.016 278.622 530.76C278.046 530.493 277.587 530.136 277.246 529.688C276.915 529.24 276.734 528.744 276.702 528.2H278.958C279.001 528.541 279.166 528.824 279.454 529.048C279.753 529.272 280.121 529.384 280.558 529.384C280.985 529.384 281.315 529.299 281.55 529.128C281.795 528.957 281.918 528.739 281.918 528.472C281.918 528.184 281.769 527.971 281.47 527.832C281.182 527.683 280.718 527.523 280.078 527.352C279.417 527.192 278.873 527.027 278.446 526.856C278.03 526.685 277.667 526.424 277.358 526.072C277.059 525.72 276.91 525.245 276.91 524.648C276.91 524.157 277.049 523.709 277.326 523.304C277.614 522.899 278.019 522.579 278.542 522.344C279.075 522.109 279.699 521.992 280.414 521.992C281.47 521.992 282.313 522.259 282.942 522.792C283.571 523.315 283.918 524.024 283.982 524.92H281.838C281.806 524.568 281.657 524.291 281.39 524.088C281.134 523.875 280.787 523.768 280.35 523.768C279.945 523.768 279.63 523.843 279.406 523.992C279.193 524.141 279.086 524.349 279.086 524.616C279.086 524.915 279.235 525.144 279.534 525.304C279.833 525.453 280.297 525.608 280.926 525.768C281.566 525.928 282.094 526.093 282.51 526.264C282.926 526.435 283.283 526.701 283.582 527.064C283.891 527.416 284.051 527.885 284.062 528.472C284.062 528.984 283.918 529.443 283.63 529.848C283.353 530.253 282.947 530.573 282.414 530.808C281.891 531.032 281.278 531.144 280.574 531.144ZM285.325 526.536C285.325 525.64 285.501 524.845 285.853 524.152C286.216 523.459 286.701 522.925 287.309 522.552C287.928 522.179 288.616 521.992 289.373 521.992C290.034 521.992 290.61 522.125 291.101 522.392C291.602 522.659 292.002 522.995 292.301 523.4V522.136H294.557V531H292.301V529.704C292.013 530.12 291.613 530.467 291.101 530.744C290.6 531.011 290.018 531.144 289.357 531.144C288.61 531.144 287.928 530.952 287.309 530.568C286.701 530.184 286.216 529.645 285.853 528.952C285.501 528.248 285.325 527.443 285.325 526.536ZM292.301 526.568C292.301 526.024 292.194 525.56 291.981 525.176C291.768 524.781 291.48 524.483 291.117 524.28C290.754 524.067 290.365 523.96 289.949 523.96C289.533 523.96 289.149 524.061 288.797 524.264C288.445 524.467 288.157 524.765 287.933 525.16C287.72 525.544 287.613 526.003 287.613 526.536C287.613 527.069 287.72 527.539 287.933 527.944C288.157 528.339 288.445 528.643 288.797 528.856C289.16 529.069 289.544 529.176 289.949 529.176C290.365 529.176 290.754 529.075 291.117 528.872C291.48 528.659 291.768 528.36 291.981 527.976C292.194 527.581 292.301 527.112 292.301 526.568ZM298.985 519.16V531H296.745V519.16H298.985ZM309.438 526.376C309.438 526.696 309.416 526.984 309.374 527.24H302.894C302.947 527.88 303.171 528.381 303.566 528.744C303.96 529.107 304.446 529.288 305.022 529.288C305.854 529.288 306.446 528.931 306.798 528.216H309.214C308.958 529.069 308.467 529.773 307.742 530.328C307.016 530.872 306.126 531.144 305.07 531.144C304.216 531.144 303.448 530.957 302.766 530.584C302.094 530.2 301.566 529.661 301.182 528.968C300.808 528.275 300.622 527.475 300.622 526.568C300.622 525.651 300.808 524.845 301.182 524.152C301.555 523.459 302.078 522.925 302.75 522.552C303.422 522.179 304.195 521.992 305.07 521.992C305.912 521.992 306.664 522.173 307.326 522.536C307.998 522.899 308.515 523.416 308.878 524.088C309.251 524.749 309.438 525.512 309.438 526.376ZM307.118 525.736C307.107 525.16 306.899 524.701 306.494 524.36C306.088 524.008 305.592 523.832 305.006 523.832C304.451 523.832 303.982 524.003 303.598 524.344C303.224 524.675 302.995 525.139 302.91 525.736H307.118Z" fill="#3B3B53"/>
<path d="M256.296 546.04L256.556 544.871H265.833V541.522H252.456L250.934 548.211V548.239H257.549C261.38 548.239 261.872 548.851 261.872 549.649C261.872 550.308 261.065 550.604 259.237 550.604C257.335 550.577 255.786 550.632 255.805 549.306H250.934C250.934 553.462 254.209 554.297 259.042 554.297C261.492 554.297 263.384 553.935 264.729 553.211C266.075 552.488 266.752 551.477 266.752 550.178C266.752 546.374 262.521 546.04 257.549 546.04H256.296ZM278.08 548.211C278.08 550.233 276.558 550.651 275.037 550.651C274.285 550.651 273.534 550.53 272.949 550.187C272.365 549.844 271.994 549.222 271.994 548.211V547.302C271.994 545.289 273.534 544.871 275.037 544.871C275.807 544.871 276.549 544.982 277.133 545.326C277.699 545.688 278.08 546.291 278.08 547.302V548.211ZM278.126 541.522C277.115 541.299 276.048 541.216 275.037 541.216C274.025 541.216 272.958 541.299 271.957 541.522C271.149 541.698 270.398 541.967 269.721 542.348C268.19 543.192 267.132 544.648 267.132 546.996V548.517C267.132 551.903 269.359 553.425 271.957 553.991C272.958 554.213 274.025 554.297 275.037 554.297C276.048 554.297 277.115 554.213 278.126 553.991C278.933 553.814 279.675 553.545 280.362 553.174C281.893 552.321 282.95 550.864 282.95 548.517V546.996C282.95 543.619 280.724 542.088 278.126 541.522ZM291.476 554H296.041L300.902 540.316H296.347L291.476 554ZM302.46 549.612C302.46 548.749 302.961 548.359 304.084 548.359C304.604 548.359 304.993 548.443 305.253 548.61C305.559 548.795 305.717 549.129 305.717 549.612V550.178C305.717 551.041 305.207 551.43 304.084 551.43C303.574 551.43 303.184 551.347 302.924 551.18C302.618 550.994 302.46 550.66 302.46 550.178V549.612ZM302.154 553.814C302.804 553.935 303.444 554 304.084 554C304.724 554 305.374 553.935 306.023 553.814C306.533 553.703 306.997 553.527 307.433 553.295C308.398 552.766 309.057 551.848 309.057 550.373V549.417C309.057 547.292 307.665 546.328 306.023 545.975C305.374 545.854 304.724 545.79 304.084 545.79C303.444 545.79 302.804 545.854 302.154 545.975C301.644 546.086 301.18 546.263 300.744 546.495C299.779 547.023 299.121 547.942 299.121 549.417V550.373C299.121 552.516 300.512 553.443 302.154 553.814ZM286.67 544.138C286.67 543.275 287.171 542.886 288.294 542.886C288.813 542.886 289.203 542.969 289.454 543.136C289.769 543.322 289.927 543.656 289.927 544.138V544.704C289.927 545.567 289.417 545.957 288.294 545.957C287.784 545.957 287.394 545.873 287.134 545.706C286.828 545.521 286.67 545.187 286.67 544.704V544.138ZM284.954 541.021C283.98 541.55 283.331 542.468 283.331 543.943V544.899C283.331 547.023 284.713 547.979 286.364 548.341C287.014 548.461 287.654 548.526 288.294 548.526C288.934 548.526 289.574 548.461 290.233 548.341C290.743 548.229 291.207 548.053 291.634 547.821C292.608 547.292 293.257 546.374 293.257 544.899V543.943C293.276 541.8 291.856 540.873 290.233 540.501C289.574 540.381 288.934 540.316 288.294 540.316C287.654 540.316 287.014 540.381 286.364 540.501C285.854 540.613 285.381 540.789 284.954 541.021Z" fill="#0000FF"/>
</svg>
