<svg width="84" height="84" viewBox="0 0 84 84" fill="none" xmlns="http://www.w3.org/2000/svg">
<path fill-rule="evenodd" clip-rule="evenodd" d="M81.0942 41.5242L71.1285 41.6026L61.1029 51.2492L61.2755 61.6333L50.6381 61.9171L41.1529 71.3208L31.8404 62.003L21.1991 61.4764L21.0227 51.3366L11.7665 41.767L3.08838 42.6938L13.9023 53.1642L14.4203 69.1118L29.4269 69.4988L41.3255 81.6801L54.7932 68.5128L68.0957 68.5338L68.6137 53.8823L81.0942 41.5242Z" fill="#9696FF"/>
<path fill-rule="evenodd" clip-rule="evenodd" d="M2 42.0208L12.9115 30.1653L14.4242 14.3964L29.6034 14.2414L41.1755 2L55.1912 14.7714L68.7339 14.6621L68.8465 29.4503L81.5034 41.6087L68.8765 53.6339L68.824 69.2373L54.6619 68.9625L41.1267 82L29.6222 69.0173L14.3754 69.3007L14.4842 53.7536L2 42.0208Z" stroke="#0000FF" stroke-width="3" stroke-miterlimit="1.5" stroke-linecap="round" stroke-linejoin="round"/>
<path d="M22.1978 43.9343L30.6057 40.9739L41.0855 21.543L44.7602 21.3006L46.7833 26.0964L45.2519 33.3314L57.6535 33.4485L52.2035 53.7885L37.9138 54.3639L32.7264 58.2364" stroke="#0000FF" stroke-width="3" stroke-miterlimit="1.5" stroke-linecap="round" stroke-linejoin="round"/>
</svg>
