<svg width="191" height="48" viewBox="0 0 191 48" fill="none" xmlns="http://www.w3.org/2000/svg">
<path d="M24.6032 44.9967C36.092 44.9967 45.4054 35.6833 45.4054 24.1946C45.4054 12.7059 36.092 3.39243 24.6032 3.39243C13.1145 3.39243 3.80109 12.7059 3.80109 24.1946C3.80109 35.6833 13.1145 44.9967 24.6032 44.9967Z" fill="#0000FF"/>
<path d="M58.8973 16.6378V28.1578H72.0649V33.5027H52.32V16.6378H58.8973Z" fill="#0000FF"/>
<path d="M80.4454 22.7092L85.3881 16.6573H93.1914L83.7276 27.7622V33.5222H77.1503V27.7622L67.6865 16.6573H75.5027L80.4454 22.7092Z" fill="#0000FF"/>
<path d="M110.141 16.6378H116.731V33.5027H109.323L100.262 23.2022V33.5027H93.6843V16.6378H102.733L110.141 25.5762V16.6378Z" fill="#0000FF"/>
<path d="M142.099 25.6995C142.099 28.9103 140.809 30.986 138.662 32.2379L142.099 37.2195H135.094L132.973 33.8335C132.195 33.8984 131.39 33.9308 130.573 33.9308C124.249 33.9049 119.027 32.0951 119.053 25.6995V24.467C119.027 18.0908 124.249 16.2616 130.573 16.2357C136.897 16.2616 142.119 18.0908 142.093 24.467V25.6995H142.099ZM135.509 25.2973V24.8822C135.548 22.106 133.265 21.6324 130.579 21.5935C127.881 21.6324 125.611 22.106 125.637 24.8822V25.2973C125.611 28.0476 127.881 28.547 130.579 28.586C133.258 28.547 135.548 28.0476 135.509 25.2973Z" fill="#0000FF"/>
<path d="M152.504 22.7092L157.446 16.6573H165.25L155.786 27.7622V33.5222H149.209V27.7622L139.745 16.6573H147.561L152.504 22.7092Z" fill="#0000FF"/>
<path d="M186.259 24.4541V25.6865C186.285 32.0627 181.09 33.9049 174.752 33.9179C168.402 33.9049 163.206 32.0627 163.232 25.6865V24.4541C163.206 18.0649 168.402 16.2357 174.752 16.2227C181.103 16.2227 186.259 18.0779 186.259 24.4541ZM179.682 24.8562C179.721 22.106 177.438 21.6065 174.752 21.5676C172.054 21.6065 169.771 22.106 169.81 24.8562V25.2714C169.771 28.0346 172.054 28.5341 174.752 28.573C177.438 28.5341 179.721 28.0346 179.682 25.2714V24.8562Z" fill="#0000FF"/>
<path d="M28.7027 21.1005L25.6281 22.8L25.7319 22.9816L25.667 23.2022L25.0249 25.44L18.5124 29.04L17.2865 28.6897L16.0605 28.3395L14.4454 25.4205L15.1524 22.9622L21.6649 19.3622L21.6843 19.3686L26.0368 16.9622C24.2595 16.4497 23.1373 16.1254 21.2432 15.5805L12.1881 20.5946C11.5978 22.6443 11.267 23.7989 10.6768 25.8486L13.6995 31.3168C15.7492 31.907 16.9038 32.2378 18.9535 32.8281L28.0086 27.8141C28.5989 25.7643 28.9297 24.6097 29.52 22.56L28.7027 21.1005Z" fill="white"/>
<path d="M30.2659 15.5676L21.2108 20.5816C20.6205 22.6313 20.2897 23.7859 19.6995 25.8357L20.5038 27.2951L23.5784 25.5957L23.4746 25.4141L23.5395 25.1935L24.1816 22.9557L30.6941 19.3557L31.92 19.7059L33.1459 20.0562L34.7611 22.9751L34.0541 25.4335L27.5416 29.0335L27.5222 29.027L23.1697 31.4335C24.947 31.9459 26.0692 32.2703 27.9632 32.8151L37.0184 27.8011C37.6087 25.7514 37.9395 24.5968 38.5297 22.547L35.507 17.0789L30.2659 15.5676Z" fill="white"/>
</svg>
