<svg width="322" height="182" viewBox="0 0 322 182" fill="none" xmlns="http://www.w3.org/2000/svg">
<path d="M0.5 1.22998V20.9175H23.542V14.6772H8.17578V1.22998H0.5Z" fill="#0000FF"/>
<path d="M27.585 1.25928H18.459L29.5039 14.2231V20.9468H37.1797V14.2231L48.2246 1.25928H39.1133L33.3418 8.31982L27.585 1.25928Z" fill="#0000FF"/>
<path d="M68.0146 11.6597L59.3721 1.22998H48.8105V20.9175H56.4863V8.89111L67.0625 20.9175H75.7051V1.22998H68.0146V11.6597Z" fill="#0000FF"/>
<path d="M105.324 10.3706C105.354 2.9292 99.2598 0.790527 91.877 0.76123C84.4941 0.790527 78.4004 2.9292 78.4297 10.3706V11.8062C78.4004 19.2769 84.4941 21.3862 91.877 21.4155C92.8291 21.4155 93.7666 21.3716 94.6748 21.2983L97.1504 25.2534H105.324L101.311 19.438C103.815 17.9731 105.324 15.5562 105.324 11.8062V10.3706ZM91.877 15.1753C88.7275 15.1313 86.0762 14.5454 86.1055 11.3374V10.854C86.0762 7.6167 88.7275 7.06006 91.877 7.01611C95.0117 7.06006 97.6777 7.6167 97.6338 10.854V11.3374C97.6777 14.5454 95.0117 15.1313 91.877 15.1753Z" fill="#0000FF"/>
<path d="M111.726 1.25928H102.6L113.645 14.2231V20.9468H121.32V14.2231L132.365 1.25928H123.254L117.482 8.31982L111.726 1.25928Z" fill="#0000FF"/>
<path d="M143.439 0.746582C136.027 0.76123 129.963 2.8999 129.992 10.356V11.7915C129.963 19.2329 136.027 21.3862 143.439 21.4009C150.837 21.3862 156.901 19.2329 156.872 11.7915V10.356C156.872 2.91455 150.852 0.746582 143.439 0.746582ZM149.196 11.3081C149.24 14.5308 146.574 15.1167 143.439 15.1606C140.29 15.1167 137.624 14.5308 137.668 11.3081V10.8247C137.624 7.6167 140.29 7.03076 143.439 6.98682C146.574 7.03076 149.24 7.6167 149.196 10.8247V11.3081Z" fill="#0000FF"/>
<mask id="mask0_701_2614" style="mask-type:alpha" maskUnits="userSpaceOnUse" x="0" y="33" width="322" height="149">
<path d="M26.162 163.378C18.4561 163.378 12.2527 160.362 7.55159 154.331C2.85053 148.252 0.5 138.409 0.5 124.804V69.4392C0.5 63.746 1.03311 58.6559 2.09933 54.1688C3.21401 49.6818 4.91027 45.8943 7.18811 42.8065C9.5144 39.6704 12.5192 37.3062 16.2025 35.7141C19.8858 34.0736 24.3203 33.2534 29.506 33.2534C35.1279 33.2534 39.7078 34.0978 43.2457 35.7864C46.7836 37.4268 49.4976 39.8392 51.3878 43.0236C53.3263 46.1597 54.6591 50.0195 55.3861 54.6031C56.1131 59.1866 56.4765 64.3732 56.4765 70.163V79.2094H38.3023V65.893C38.3023 60.1515 37.6965 56.0746 36.4849 53.6622C35.3218 51.2498 33.0924 50.0436 29.7968 50.0436C26.162 50.0436 23.6418 51.4669 22.2363 54.3136C20.8309 57.1119 20.1281 62.1056 20.1281 69.2945V124.514C20.1281 132.523 20.7097 138.265 21.8729 141.739C23.0845 145.164 25.5804 146.877 29.3606 146.877C33.0439 146.877 35.6368 145.116 37.1392 141.594C38.6901 138.023 39.4655 132.089 39.4655 123.79V106.638H29.6514V92.5258H56.4765V162.075H47.7529L44.7724 149.555C43.7061 153.945 41.4283 157.347 37.9389 159.759C34.4979 162.171 30.5722 163.378 26.162 163.378Z" fill="#3B3B53"/>
<path d="M83.6012 163.161C76.1376 163.161 70.9519 160.459 68.0441 155.055C65.1846 149.651 63.7065 142.486 63.6096 133.561V126.613C63.6096 120.823 64.4334 116.119 66.0812 112.5C67.7775 108.882 70.1765 105.939 73.2782 103.671C76.38 101.403 80.0875 99.4252 84.4008 97.7365C88.7142 96.0479 93.5122 94.2386 98.7948 92.3087V82.828C98.7948 79.1612 98.6494 76.2422 98.3586 74.071C98.0678 71.8516 97.4136 70.2353 96.3958 69.2221C95.3781 68.2089 93.803 67.7023 91.6705 67.7023C89.5865 67.7023 87.9872 68.233 86.8725 69.2945C85.8063 70.3077 85.0793 71.8999 84.6916 74.071C84.3039 76.1939 84.1101 78.9199 84.1101 82.249V87.0979H65.0635V83.8412C65.0635 78.8717 65.4754 74.4329 66.2993 70.5248C67.1717 66.6167 68.6256 63.3118 70.6611 60.6099C72.6967 57.8598 75.4591 55.7851 78.9486 54.3859C82.4865 52.9385 86.921 52.2148 92.2521 52.2148C96.9532 52.2148 100.976 52.8903 104.32 54.2412C107.664 55.5439 110.378 57.522 112.462 60.1757C114.546 62.781 116.072 66.0619 117.042 70.0182C118.011 73.9745 118.496 78.5822 118.496 83.8412V162.075H99.0856V151.292C98.504 153.366 97.5105 155.32 96.105 157.154C94.6996 158.939 92.9306 160.386 90.7982 161.496C88.7142 162.606 86.3152 163.161 83.6012 163.161ZM90.2893 148.397C92.7125 148.397 94.6511 147.528 96.105 145.791C97.559 144.054 98.4556 142.293 98.7948 140.508V103.164C95.8869 104.467 93.4395 105.697 91.4524 106.855C89.4654 107.965 87.8661 109.195 86.6544 110.546C85.4428 111.897 84.5705 113.489 84.0374 115.323C83.5042 117.156 83.2377 119.4 83.2377 122.053V134.212C83.2377 139.181 83.7466 142.8 84.7643 145.068C85.8305 147.287 87.6722 148.397 90.2893 148.397Z" fill="#3B3B53"/>
<path d="M127.446 162.075V33.6153H146.638V162.075H127.446Z" fill="#3B3B53"/>
<path d="M174.926 163.161C167.462 163.161 162.277 160.459 159.369 155.055C156.509 149.651 155.031 142.486 154.934 133.561V126.613C154.934 120.823 155.758 116.119 157.406 112.5C159.102 108.882 161.501 105.939 164.603 103.671C167.705 101.403 171.412 99.4252 175.725 97.7365C180.039 96.0479 184.837 94.2386 190.119 92.3087V82.828C190.119 79.1612 189.974 76.2422 189.683 74.071C189.392 71.8516 188.738 70.2353 187.72 69.2221C186.703 68.2089 185.128 67.7023 182.995 67.7023C180.911 67.7023 179.312 68.233 178.197 69.2945C177.131 70.3077 176.404 71.8999 176.016 74.071C175.629 76.1939 175.435 78.9199 175.435 82.249V87.0979H156.388V83.8412C156.388 78.8717 156.8 74.4329 157.624 70.5248C158.496 66.6167 159.95 63.3118 161.986 60.6099C164.021 57.8598 166.784 55.7851 170.273 54.3859C173.811 52.9385 178.246 52.2148 183.577 52.2148C188.278 52.2148 192.3 52.8903 195.644 54.2412C198.988 55.5439 201.702 57.522 203.786 60.1757C205.87 62.781 207.397 66.0619 208.366 70.0182C209.336 73.9745 209.82 78.5822 209.82 83.8412V162.075H190.41V151.292C189.829 153.366 188.835 155.32 187.43 157.154C186.024 158.939 184.255 160.386 182.123 161.496C180.039 162.606 177.64 163.161 174.926 163.161ZM181.614 148.397C184.037 148.397 185.976 147.528 187.43 145.791C188.884 144.054 189.78 142.293 190.119 140.508V103.164C187.212 104.467 184.764 105.697 182.777 106.855C180.79 107.965 179.191 109.195 177.979 110.546C176.767 111.897 175.895 113.489 175.362 115.323C174.829 117.156 174.562 119.4 174.562 122.053V134.212C174.562 139.181 175.071 142.8 176.089 145.068C177.155 147.287 178.997 148.397 181.614 148.397Z" fill="#3B3B53"/>
<path d="M211.138 162.075L230.548 105.408L212.373 53.5175H229.457L240.652 84.8544L250.248 53.5175H267.259L248.794 107.434L268.35 162.075H250.467L239.053 129.58L228.948 162.075H211.138Z" fill="#3B3B53"/>
<path d="M267.777 181.253V168.009H274.102C276.234 168.009 278.027 167.816 279.481 167.43C280.935 167.093 281.759 166.321 281.953 165.115C282.292 164.487 282.413 163.378 282.316 161.785C282.22 160.145 282.074 158.601 281.88 157.154L264.433 53.5175H282.753L289.732 109.027L292.639 138.265H294.239L296.856 109.027L303.253 53.5175H321.5L302.599 166.707C302.066 170.132 301.315 172.907 300.345 175.029C299.424 177.201 298.019 178.769 296.129 179.734C294.239 180.747 291.622 181.253 288.278 181.253H267.777Z" fill="#3B3B53"/>
</mask>
<g mask="url(#mask0_701_2614)">
<g filter="url(#filter0_f_701_2614)">
<path d="M214.925 19.1557C243.11 23.6367 245.112 4.37637 267.701 1.73407C347.951 -7.65264 355.563 123.325 272.991 143.071C194.871 161.753 114.411 54.3405 114.411 54.3405C114.411 54.3405 98.8616 25.8829 114.411 14.3733C128.443 3.98616 146.743 4.48929 166.809 8.13908C182.662 11.0226 198.945 16.6151 214.925 19.1557Z" fill="#0000FF"/>
</g>
<g filter="url(#filter1_f_701_2614)">
<path d="M279.396 102.437C298.521 105.486 299.879 92.3788 315.208 90.5805C369.663 84.1924 374.829 173.33 318.798 186.768C265.788 199.482 211.189 126.382 211.189 126.382C211.189 126.382 200.638 107.015 211.189 99.1822C220.712 92.1132 233.129 92.4556 246.745 94.9395C257.503 96.9019 268.552 100.708 279.396 102.437Z" fill="#7F30FF"/>
</g>
<g filter="url(#filter2_f_701_2614)">
<path d="M53.925 36.1557C82.1102 40.6367 84.1115 21.3764 106.701 18.7341C186.951 9.34736 194.563 140.325 111.991 160.071C33.8713 178.753 -46.5892 71.3405 -46.5892 71.3405C-46.5892 71.3405 -62.1384 42.8829 -46.5892 31.3733C-32.5565 20.9862 -14.2568 21.4893 5.80915 25.1391C21.6624 28.0226 37.9446 33.6151 53.925 36.1557Z" fill="#00B0FF"/>
</g>
<g filter="url(#filter3_f_701_2614)">
<path d="M78.3433 137.183C67.6594 158.838 62.9849 175.34 78.3433 195.659C108.287 235.274 215.524 234.962 246.349 195.659C270.713 164.595 235.145 139.628 209.256 109.137C197.832 95.6834 194.87 84.4719 174.849 76.9545C130.046 60.1327 94.5992 104.235 78.3433 137.183Z" fill="#2400FF"/>
</g>
<g filter="url(#filter4_f_701_2614)">
<ellipse cx="47.5" cy="176.253" rx="76" ry="51" fill="#FF8000"/>
</g>
</g>
<defs>
<filter id="filter0_f_701_2614" x="7.5" y="-98.7466" width="424" height="344" filterUnits="userSpaceOnUse" color-interpolation-filters="sRGB">
<feFlood flood-opacity="0" result="BackgroundImageFix"/>
<feBlend mode="normal" in="SourceGraphic" in2="BackgroundImageFix" result="shape"/>
<feGaussianBlur stdDeviation="50" result="effect1_foregroundBlur_701_2614"/>
</filter>
<filter id="filter1_f_701_2614" x="106.5" y="-9.74658" width="352" height="298" filterUnits="userSpaceOnUse" color-interpolation-filters="sRGB">
<feFlood flood-opacity="0" result="BackgroundImageFix"/>
<feBlend mode="normal" in="SourceGraphic" in2="BackgroundImageFix" result="shape"/>
<feGaussianBlur stdDeviation="50" result="effect1_foregroundBlur_701_2614"/>
</filter>
<filter id="filter2_f_701_2614" x="-153.5" y="-81.7466" width="424" height="344" filterUnits="userSpaceOnUse" color-interpolation-filters="sRGB">
<feFlood flood-opacity="0" result="BackgroundImageFix"/>
<feBlend mode="normal" in="SourceGraphic" in2="BackgroundImageFix" result="shape"/>
<feGaussianBlur stdDeviation="50" result="effect1_foregroundBlur_701_2614"/>
</filter>
<filter id="filter3_f_701_2614" x="-31.5" y="-26.7466" width="386" height="352" filterUnits="userSpaceOnUse" color-interpolation-filters="sRGB">
<feFlood flood-opacity="0" result="BackgroundImageFix"/>
<feBlend mode="normal" in="SourceGraphic" in2="BackgroundImageFix" result="shape"/>
<feGaussianBlur stdDeviation="50" result="effect1_foregroundBlur_701_2614"/>
</filter>
<filter id="filter4_f_701_2614" x="-128.5" y="25.2534" width="352" height="302" filterUnits="userSpaceOnUse" color-interpolation-filters="sRGB">
<feFlood flood-opacity="0" result="BackgroundImageFix"/>
<feBlend mode="normal" in="SourceGraphic" in2="BackgroundImageFix" result="shape"/>
<feGaussianBlur stdDeviation="50" result="effect1_foregroundBlur_701_2614"/>
</filter>
</defs>
</svg>
