<svg width="248" height="80" viewBox="0 0 248 80" fill="none" xmlns="http://www.w3.org/2000/svg">
<path d="M48.0666 37.5692C47.2371 29.8461 41.5228 23.0461 34.0266 20.8308C32.7977 20.4615 31.5074 20.3077 30.2785 20H26.1311C24.9022 20.3077 23.6119 20.4615 22.383 20.8308C14.8561 23.0769 9.20328 29.7846 8.34306 37.5692C8.34306 37.6923 8.28161 37.7846 8.25089 37.9077C8.25089 37.5692 8.25089 37.2308 8.25089 36.8616C8.22017 37.1692 8.18945 37.4769 8.18945 37.7538C8.18945 37.8769 8.18945 37.9692 8.18945 38.0923V41.8769C8.18945 41.9692 8.18945 42.0615 8.22017 42.1538C8.25089 42.3692 8.25089 42.5846 8.28162 42.8308C8.28162 42.5846 8.28162 42.3077 8.28162 42.0615C8.58884 43.7538 8.89606 45.4769 9.54122 47.1076C11.6303 52.4 15.2555 56.2154 20.509 58.4307C22.4752 59.2615 24.5643 59.6923 26.7148 59.8769V59.9077C26.7148 59.9384 26.7148 59.9692 26.7148 60H29.7255C29.7255 59.9692 29.7255 59.9076 29.7255 59.8769C30.0942 59.8461 30.4936 59.7846 30.8623 59.723C33.1664 59.3538 35.4091 58.8308 37.4368 57.7538C44.2263 54.1231 48.1895 47.4769 48.1895 39.9385C48.1895 39.1692 48.1587 38.3692 48.0666 37.5692ZM23.0896 35.5077C23.0896 34.0923 24.1956 32.9538 25.6088 32.9538C26.9913 32.9538 28.128 34.0615 28.1587 35.4461C28.1895 36.8615 27.0527 38 25.6395 38C24.1956 38 23.1203 36.8923 23.0896 35.5077ZM15.2555 39.1076C15.0712 42.0615 14.8561 45.0462 13.9959 47.9385C13.7501 48.7692 13.5044 49.5692 13.0435 50.4C12.1526 49.2 11.5074 47.9385 11.0159 46.6154C6.8684 35.6308 13.6272 23.6923 25.1787 21.7846C30.9237 20.8308 36.1157 22.2769 40.509 26.2154C45.148 30.3692 47.1142 35.6307 46.6226 41.8154C45.9775 49.6 39.8638 56.4308 32.1219 58.0615C31.5381 58.1846 31.4767 57.9692 31.4767 57.5077C31.3231 54.9538 32.2448 52.7385 33.5044 50.6154C35.0097 48.0615 37.0067 45.9385 39.1265 43.8462C40.0174 42.9846 41.0312 42.1538 41.7071 41.1076C41.062 41.4461 40.509 41.9692 39.8024 42.2462C37.406 43.5077 34.9176 44.4 32.1833 44.3692C30.893 44.3692 29.6948 43.9692 28.7425 43.0461C29.5105 43.323 30.2785 43.6 31.108 43.6923C33.9345 43.9692 36.6073 43.3231 39.1572 42.2462C39.3108 42.1846 39.4644 42.1231 39.618 42.0615C40.4168 41.6923 41.0927 41.0769 41.9529 40.8C42.3216 40.3692 42.5673 39.9077 42.7824 39.3846C43.489 37.6308 42.9974 36.123 41.277 34.9538C40.171 34.1846 38.9114 33.7231 37.6211 33.3846C36.3615 33.0462 35.1633 32.5231 33.9345 32.0923C33.6887 32 33.5658 31.8154 33.4122 31.6308C33.0435 30.8308 32.4291 30.3077 31.5996 30.0615C30.6165 29.7538 29.6334 29.8154 28.6503 30.0615C28.128 30.1846 27.6057 30 27.1142 29.9077C24.8715 29.4769 22.8438 30.123 20.7855 30.9538C17.0988 32.4923 15.4706 35.2615 15.2555 39.1076ZM37.6211 38.9846C37.6211 38.5231 37.9283 38.2462 38.3891 38.2462C38.85 38.2462 39.0958 38.5231 39.1572 39.0154C39.0958 39.4462 38.8807 39.7846 38.3891 39.7846C37.8976 39.7846 37.6211 39.4769 37.6211 38.9846Z" fill="#C0BFC7"/>
<path d="M143.2 34.4283C140.274 24.1681 129.653 18.012 119.177 20.5843C109.083 23.0698 102.528 33.0699 104.284 43.33C106.157 54.2838 116.661 61.8561 127.985 59.6018C131.642 58.8792 134.832 57.203 137.553 54.7174C138.109 54.1972 138.313 53.5613 138.109 52.8388C137.904 52.1451 137.436 51.7116 136.763 51.5671C136.002 51.3937 135.446 51.7116 134.89 52.2029C129.77 56.7694 122.484 57.6654 116.398 54.4862C114.671 53.5902 113.15 52.4052 111.862 50.9312C114.671 46.4803 117.451 42.0873 120.26 37.6653C120.377 37.8676 120.377 38.041 120.377 38.1855C120.377 39.9774 120.348 41.7693 120.406 43.5613C120.436 44.3994 120.523 45.2954 120.787 46.0757C121.43 48.0699 123.508 48.6191 125.088 47.2607C125.673 46.7405 126.171 46.1046 126.609 45.4688C127.399 44.3127 128.102 43.0988 128.862 41.8849C129.77 40.4398 130.677 38.9948 131.584 37.5208C131.642 37.5208 131.671 37.5497 131.73 37.5497C131.73 38.2722 131.701 38.9659 131.73 39.6884C131.788 40.9023 131.759 42.1451 132.023 43.3011C132.783 46.7116 135.856 48.5613 139.103 47.6942C141.737 47.0006 143.756 44.4572 143.961 41.5381C144.107 39.1393 143.844 36.7693 143.2 34.4283ZM140.274 41.1335C140.186 42.1451 139.806 43.0699 138.957 43.7058C137.64 44.7173 136.119 44.2838 135.592 42.7231C135.417 42.2029 135.358 41.6537 135.358 41.1046C135.3 39.3127 135.329 37.5497 135.241 35.7578C135.212 35.1797 134.978 34.5439 134.714 34.0236C133.954 32.5786 132.374 32.1739 130.94 32.9543C130.033 33.4456 129.36 34.1971 128.804 35.0352C127.37 37.2607 125.966 39.5439 124.532 41.7694C124.386 42.0006 124.239 42.2318 123.976 42.4341V41.9139C123.976 39.515 124.005 37.1161 123.976 34.7173C123.976 34.0815 123.859 33.4167 123.713 32.7808C123.508 31.8849 122.952 31.2491 122.016 31.0178C121.05 30.7866 120.231 31.1624 119.587 31.8849C119.265 32.2606 118.973 32.6652 118.709 33.0699C115.754 37.752 112.769 42.4341 109.814 47.1451C109.726 47.2607 109.639 47.4052 109.463 47.6364C109.083 46.7116 108.702 45.8734 108.439 45.0352C105.396 35.9023 110.897 26.2201 120.377 23.9658C127.429 22.2895 135.036 25.8155 138.401 32.2895C139.864 35.1219 140.508 38.041 140.274 41.1335Z" fill="#C0BFC7"/>
<path d="M235.875 36.7791C234.607 35.6748 233.184 34.8159 231.638 34.1411C231.298 33.9877 231.112 33.8037 231.174 33.3742C231.638 31.1656 232.04 28.9571 232.504 26.7485C232.875 24.908 232.597 23.2515 231.329 21.7791C230.524 20.8589 229.473 20.4294 228.39 20H226.287C224.957 20.4294 223.751 20.9816 222.916 22.2086C222.266 23.1595 221.926 24.2025 221.926 25.3374C221.926 27.2699 221.895 29.2025 221.957 31.1043C221.957 31.6258 221.833 31.7791 221.276 31.7485C220.225 31.6871 219.173 31.6871 218.152 31.7485C217.657 31.7791 217.565 31.6258 217.565 31.1963C217.596 29.2945 217.503 27.3926 217.596 25.4908C217.688 22.8528 215.74 20.4601 213.327 20.1227C213.296 20.1227 213.265 20.0307 213.234 20H211.131C210.079 20.3988 209.059 20.8282 208.285 21.6564C206.955 23.1288 206.584 24.8466 207.017 26.7485C207.481 28.9571 207.883 31.1656 208.347 33.3742C208.44 33.865 208.162 33.9877 207.791 34.1718C205.378 35.3374 203.275 36.8712 201.605 39.0184C200.708 40.184 200.275 41.5644 199.811 42.9141V49.1411C200.398 49.9693 200.522 51.0123 201.079 51.8712C202.78 54.6012 205.254 56.3804 208.131 57.6994C210.667 58.865 213.389 59.5092 216.173 59.816C216.296 59.816 216.482 59.816 216.513 60H217.039C217.441 60 217.843 60 218.245 60H221.214C221.678 60 222.142 60 222.606 60H222.792C222.823 59.816 223.008 59.8466 223.132 59.816C226.936 59.4479 230.555 58.4356 233.803 56.411C236.185 54.9386 238.164 53.0675 239.216 50.3681C239.927 48.589 239.773 46.7792 239.804 44.9387C239.927 41.5644 238.412 38.9571 235.875 36.7791ZM214.162 41.5337C214.533 42.1779 214.781 42.8834 214.781 43.6503C214.781 44.2638 214.657 44.8773 214.41 45.3988C214.069 46.043 213.667 46.7178 212.77 46.7178C211.904 46.7178 211.348 46.1656 211.038 45.4908C210.358 44.0797 210.482 42.638 211.379 41.319C212.121 40.184 213.482 40.3374 214.162 41.5337ZM225.637 41.0736C226.473 40.3374 227.4 40.3988 228.081 41.319C229.04 42.638 229.071 44.5399 228.174 45.8896C227.524 46.9018 226.132 46.9018 225.39 45.9509C224.833 45.2147 224.648 44.4172 224.709 43.589C224.679 42.6074 224.895 41.7484 225.637 41.0736Z" fill="#C0BFC7"/>
</svg>
