<svg width="52" height="52" viewBox="0 0 52 52" fill="none" xmlns="http://www.w3.org/2000/svg">
<path d="M37.1845 5.88354L13.4175 15.2039L24.7573 19.2428V49.6894L49.9223 39.7476L49.4563 10.3884L37.1845 5.88354Z" fill="#9696FF"/>
<path d="M2.07764 39.4369L24.4466 49.8447L49.6116 39.7476L49.4563 10.5437L25.6893 2L2.07764 10.5437V39.4369Z" stroke="#0000FF" stroke-width="3"/>
<path d="M2.07764 10.6991L13.3398 14.9709M24.6019 19.2428L49.4563 10.6991M24.6019 19.2428V50.0001M24.6019 19.2428L13.3398 14.9709M13.3398 14.9709L36.7184 5.88354M30.9708 42.0777V34.9321M30.9708 34.9321L28.0194 37.8835M30.9708 34.9321L34.0776 37.4175" stroke="#0000FF" stroke-width="3"/>
<path d="M39.5146 38.8155V31.9806M39.5146 31.9806L36.2524 34.3107M39.5146 31.9806L42.1554 34.3107" stroke="#0000FF" stroke-width="3"/>
</svg>
