<svg width="56" height="52" viewBox="0 0 56 52" fill="none" xmlns="http://www.w3.org/2000/svg">
<path d="M49.5455 23.4546H1.54547L7.00002 32H8.63638L9.90911 37.0909H20.0909L20.4546 36.5455L17.9091 32H19.7273L21.7273 32.3637L49.9091 44.3637V28.1818L54.6364 25.4546V21.0909L50.0909 18.7273L49.5455 19.2727V23.4546Z" fill="#9696FF"/>
<path d="M20.4546 32L49.7273 44.5455V2L20.4546 14.7273M20.4546 32V14.7273M20.4546 32H17.5455M20.4546 14.7273H7.9091L1.36365 23.4545L7.00001 32H8.81819M17.5455 32L20.2727 36.5455L18.2727 41.4545L21.9091 44.1818L23.1818 48.9091L12.2727 50L8.81819 32M17.5455 32H8.81819" stroke="#0000FF" stroke-width="2"/>
<path d="M49.7273 18.7273L54.6364 21.2727V25.6364L49.9091 28" stroke="#0000FF" stroke-width="2"/>
</svg>
