<svg width="62" height="52" viewBox="0 0 62 52" fill="none" xmlns="http://www.w3.org/2000/svg">
<path d="M47.6468 21.9957L43.766 25.4681L47.2383 32.2085L46.0128 34.8638L36.4128 23.4255H25.7915L15.1702 36.4978L16.1915 30.1659L18.234 25.6723L14.3532 20.5659L16.8043 14.0298L16.1915 12.6L12.5149 13.0085L7 12.6L9.85958 20.1574V22.4042L3.32341 31.8L1.0766 35.4766L2.50639 43.034L9.24681 47.7319L17.2128 47.1191L20.6851 49.3659L36.2085 51L43.766 48.1404L54.3872 47.7319L60.5149 42.217L60.9234 33.6383L51.5277 21.1787L55.2043 12.6L50.5064 14.0298L45.6043 13.0085L47.6468 21.9957Z" fill="#9696FF"/>
<path d="M25.7915 12.3958L23.1362 10.966L25.5872 17.0936H36.2085L39.0681 10.966L36.617 12.3958L31.3064 8.31067L25.7915 12.3958Z" fill="#9696FF" stroke="#0000FF" stroke-width="2"/>
<path d="M42.7447 17.9106H20.2766M25.383 50.5915L14.966 45.2808L14.5575 31.8L25.1787 17.9106L19.2553 3.61277L25.1787 6.6766L31.1021 3L36.617 6.6766L43.1532 3L37.2298 17.9106L47.4426 31.8V44.6681L36.617 50.5915H25.383Z" stroke="#0000FF" stroke-width="2"/>
<path d="M52.3447 47.9362H54.183L60.9234 42.4213V34.0468L52.3447 20.7702L56.2255 11.5787L50.0979 14.0298L43.766 11.5787L48.8723 20.7702L47.034 22.6085M55.817 20.7702H46.0128" stroke="#0000FF" stroke-width="2"/>
<path d="M10.0638 47.9362H8.22553L1.4851 42.4213V34.0468L10.0638 20.7702L6.18297 11.5787L12.3106 14.0298L18.6425 11.5787L13.5362 20.7702L15.3745 22.6085M6.59148 20.7702H16.3957" stroke="#0000FF" stroke-width="2"/>
<path d="M34.5745 31.1872H31.3064M28.4468 42.217H31.3064M31.3064 45.6893V42.217M31.3064 42.217H33.9617L35.1872 39.5617L33.3489 36.9064H28.4468L27.017 34.251L28.4468 31.1872H31.3064M31.3064 28.3276V31.1872" stroke="#0000FF" stroke-width="2"/>
</svg>
