<svg width="90" height="83" viewBox="0 0 90 83" fill="none" xmlns="http://www.w3.org/2000/svg">
<path fill-rule="evenodd" clip-rule="evenodd" d="M13.0215 27.6036L41.6639 10.6063L42.5825 26.3667L28.0739 35.8472L13.0215 27.6036Z" fill="#9696FF"/>
<path fill-rule="evenodd" clip-rule="evenodd" d="M6.78711 75.5579L28.4233 64.9509L54.6279 65.5025L57.4452 60.0377L76.2096 52.9961L77.5509 58.6656C77.5509 58.6656 60.0807 71.0366 59.2594 71.2903C58.4381 71.5445 48.7342 72.8282 47.4809 72.9309C46.2279 73.0333 30.7587 72.4183 30.7587 72.4183C30.7587 72.4183 11.6996 81.7178 10.976 81.9919C10.2521 82.2655 6.78711 75.5579 6.78711 75.5579Z" fill="#9696FF"/>
<path fill-rule="evenodd" clip-rule="evenodd" d="M88.5216 37.73L82.4586 33.8641L69.6174 41.3413L56.839 34.1813L50.3174 36.9679L68.6856 47.0832L88.5216 37.73Z" fill="#9696FF"/>
<path d="M2 64.0843L10.3331 62.3257L20.5784 49.7944L37.8899 39.7822L40.6297 45.1061L32.0347 56.8967L57.325 58.8086L77.0668 52.3509L78.3069 59.0675L57.5737 72.2511L31.7466 71.4548L9.93917 81.4004" stroke="#0000FF" stroke-width="3" stroke-miterlimit="1.5" stroke-linecap="round" stroke-linejoin="round"/>
<path fill-rule="evenodd" clip-rule="evenodd" d="M27.6527 2L12.7151 9.78307L12.3555 27.3195L27.9045 35.8943L42.6334 27.5048L42.4762 10.372L27.6527 2Z" stroke="#0000FF" stroke-width="3" stroke-miterlimit="1.5" stroke-linecap="round" stroke-linejoin="round"/>
<path d="M32.2647 11.307L23.5681 11.3031L21.1245 15.2421L24.3964 19.0511L31.6591 19.3142L33.2822 22.5888L30.8031 26.7124L23.4459 26.4648" stroke="#0000FF" stroke-width="3" stroke-miterlimit="1.5" stroke-linecap="round" stroke-linejoin="round"/>
<path d="M27.6324 8.28186L27.6323 11.3116" stroke="#0000FF" stroke-width="3" stroke-miterlimit="1.5" stroke-linecap="round" stroke-linejoin="round"/>
<path d="M27.6095 26.8682L27.6094 30.0486" stroke="#0000FF" stroke-width="3" stroke-miterlimit="1.5" stroke-linecap="round" stroke-linejoin="round"/>
<path fill-rule="evenodd" clip-rule="evenodd" d="M69.181 5.09917L50.2889 14.9427L49.834 37.1218L69.4994 47.9666L88.1277 37.3561L87.9288 15.6875L69.181 5.09917Z" stroke="#0000FF" stroke-width="3" stroke-miterlimit="1.5" stroke-linecap="round" stroke-linejoin="round"/>
<path d="M75.0142 16.8699L64.0153 16.865L60.9248 21.8468L65.0629 26.6642L74.2483 26.997L76.3011 31.1385L73.1657 36.3537L63.8607 36.0406" stroke="#0000FF" stroke-width="3" stroke-miterlimit="1.5" stroke-linecap="round" stroke-linejoin="round"/>
<path d="M69.1554 13.0439L69.1553 16.8758" stroke="#0000FF" stroke-width="3" stroke-miterlimit="1.5" stroke-linecap="round" stroke-linejoin="round"/>
<path d="M69.1266 36.5509L69.1265 40.5733" stroke="#0000FF" stroke-width="3" stroke-miterlimit="1.5" stroke-linecap="round" stroke-linejoin="round"/>
</svg>
