<svg width="1136" height="254" viewBox="0 0 1136 254" fill="none" xmlns="http://www.w3.org/2000/svg">
<g clip-path="url(#clip0_138_835)">
<rect x="536" width="600" height="254" rx="16" fill="white"/>
<g filter="url(#filter0_f_138_835)">
<path d="M923.014 -53.019C978.116 -44.2632 982.028 -81.8978 1026.19 -87.0608C1183.08 -105.402 1197.96 150.527 1036.53 189.112C883.81 225.616 726.51 15.7321 726.51 15.7321C726.51 15.7321 696.112 -39.874 726.51 -62.3638C753.944 -82.6602 789.72 -81.6771 828.949 -74.5454C859.941 -68.911 891.773 -57.9834 923.014 -53.019Z" fill="#0000FF"/>
</g>
<g filter="url(#filter1_f_138_835)">
<path d="M1049.51 110.113C1086.94 116.059 1089.6 90.5036 1119.6 86.9977C1226.18 74.5431 1236.29 248.329 1126.63 274.529C1022.87 299.317 916.012 156.798 916.012 156.798C916.012 156.798 895.361 119.039 916.012 103.768C934.649 89.9858 958.953 90.6534 985.603 95.4961C1006.66 99.3221 1028.28 106.742 1049.51 110.113Z" fill="#7F30FF"/>
</g>
<g filter="url(#filter2_f_138_835)">
<path d="M608.014 -20.019C663.116 -11.2632 667.028 -48.8978 711.191 -54.0608C868.077 -72.4024 882.96 183.527 721.533 222.112C568.81 258.616 411.51 48.7321 411.51 48.7321C411.51 48.7321 381.112 -6.87401 411.51 -29.3638C438.944 -49.6602 474.72 -48.6771 513.949 -41.5454C544.941 -35.911 576.773 -24.9834 608.014 -20.019Z" fill="#00B0FF"/>
</g>
<g filter="url(#filter3_f_138_835)">
<ellipse cx="906.625" cy="301.696" rx="186.042" ry="125.871" fill="#0038FF"/>
</g>
<g filter="url(#filter4_f_138_835)">
<path d="M656.206 177.635C635.36 219.853 626.239 252.024 656.206 291.637C714.631 368.87 923.868 368.26 984.013 291.637C1031.55 231.076 962.152 182.401 911.638 122.958C889.349 96.7286 883.569 74.8711 844.504 60.2155C757.087 27.4204 687.924 113.4 656.206 177.635Z" fill="#FF4880"/>
</g>
<g filter="url(#filter5_f_138_835)">
<ellipse cx="596.023" cy="254.105" rx="148.333" ry="100.33" fill="#FF8000"/>
</g>
</g>
<path d="M769.114 133.108C765.73 142.184 762.45 150.954 759.177 159.724C758.629 161.198 758.042 162.652 757.553 164.145C757.266 165.025 756.869 165.429 755.845 165.41C751.828 165.345 747.805 165.351 743.789 165.41C742.804 165.423 742.387 165.097 742.054 164.177C736.134 147.668 730.194 131.171 724.202 114.687C723.732 113.396 724.084 113.246 725.245 113.26C729.046 113.305 732.848 113.325 736.649 113.246C737.738 113.227 738.11 113.651 738.442 114.609C742.165 125.407 745.934 136.185 749.69 146.97C749.833 147.381 749.983 147.785 750.244 148.515C750.89 146.768 751.45 145.281 751.991 143.788C755.499 134.118 759.02 124.455 762.483 114.772C762.894 113.631 763.415 113.194 764.674 113.233C767.823 113.338 770.979 113.357 774.122 113.227C775.543 113.168 776.045 113.716 776.482 114.968C780.212 125.707 784.02 136.413 787.802 147.133C787.925 147.485 788.075 147.831 788.323 148.47C789.96 143.925 791.505 139.641 793.044 135.357C795.535 128.432 798.045 121.508 800.477 114.564C800.823 113.572 801.253 113.227 802.303 113.246C805.778 113.312 809.254 113.338 812.729 113.24C814.183 113.201 814.261 113.579 813.805 114.831C808.673 128.863 803.601 142.914 798.508 156.959C797.641 159.352 796.741 161.732 795.926 164.138C795.626 165.019 795.241 165.429 794.211 165.41C790.136 165.338 786.067 165.338 781.992 165.41C780.949 165.429 780.623 164.973 780.316 164.112C776.776 154.227 773.202 144.355 769.636 134.477C769.525 134.131 769.381 133.786 769.114 133.108Z" fill="white"/>
<path d="M896.236 118.587C911.689 106.126 933.383 113.768 937.236 132.912C939.231 142.836 937.575 152.199 929.751 159.372C921.874 166.59 912.582 167.848 902.6 164.477C899.952 163.584 897.749 161.876 895.538 159.359C895.538 161.224 895.473 162.639 895.558 164.047C895.623 165.11 895.284 165.423 894.208 165.41C890.302 165.344 886.39 165.338 882.478 165.416C881.284 165.442 881.069 165.032 881.076 163.943C881.115 153.634 881.102 143.319 881.102 133.01C881.102 120.367 881.115 107.717 881.076 95.0741C881.069 93.9069 881.284 93.4961 882.562 93.5222C886.631 93.6135 890.706 93.6135 894.775 93.5222C896.066 93.4896 896.268 93.9265 896.255 95.0806C896.203 102.41 896.229 109.732 896.229 117.061C896.236 117.478 896.236 117.895 896.236 118.587ZM922.565 138.982C922.546 138.604 922.539 137.9 922.48 137.196C921.985 130.584 917.036 125.524 910.496 124.931C903.852 124.331 898.192 128.354 896.549 134.849C896.04 136.87 895.975 138.924 896.105 140.991C896.66 150.035 904.634 155.72 913.261 153.23C918.999 151.567 922.572 146.22 922.565 138.982Z" fill="white"/>
<path d="M970.738 110.195C970.145 110.195 969.623 110.195 969.108 110.195C960.638 110.195 952.162 110.169 943.692 110.221C942.505 110.228 942.094 109.98 942.133 108.721C942.231 105.468 942.198 102.207 942.146 98.9537C942.133 97.9496 942.335 97.5388 943.476 97.5388C958.467 97.5779 973.457 97.5779 988.448 97.5388C989.504 97.5388 989.706 97.8974 989.68 98.8494C989.621 101.451 989.621 104.059 989.68 106.667C989.7 107.509 989.406 108.089 988.878 108.682C984.496 113.644 980.128 118.626 975.759 123.607C975.374 124.044 975.003 124.494 974.501 125.088C976.815 125.609 978.98 126.046 980.995 126.939C987.515 129.854 991.682 134.686 992.549 141.891C993.508 149.865 990.756 156.392 984.262 161.217C979.671 164.627 974.357 166.023 968.743 166.394C958.956 167.04 949.599 165.534 940.947 160.689C938.704 159.437 938.736 159.385 939.884 157.122C941.279 154.371 942.727 151.639 944.057 148.854C944.624 147.674 944.963 147.342 946.313 148.176C953.29 152.473 960.853 154.279 969.036 152.897C970.712 152.617 972.264 151.971 973.659 150.993C976.215 149.2 977.239 146.703 976.907 143.651C976.587 140.743 974.918 138.787 972.303 137.633C970.028 136.629 967.582 136.413 965.137 136.342C962.855 136.277 960.573 136.283 958.297 136.329C957.43 136.348 957.039 136.172 957.065 135.188C957.13 132.423 957.124 129.652 957.065 126.881C957.045 126.072 957.456 125.59 957.926 125.055C961.844 120.621 965.763 116.187 969.669 111.74C970.034 111.323 970.549 110.984 970.738 110.195Z" fill="white"/>
<path d="M850.997 143.612C844.973 143.612 838.941 143.658 832.916 143.579C831.391 143.56 831.325 144.029 831.801 145.268C833.797 150.484 837.781 153.106 843.108 153.836C848.826 154.618 854.147 153.634 858.607 149.656C859.22 149.109 859.539 149.246 860.035 149.787C862.147 152.121 864.253 154.462 866.457 156.711C867.272 157.546 867.194 158.022 866.405 158.785C862.278 162.788 857.283 164.96 851.656 165.742C843.955 166.812 836.476 166.107 829.539 162.306C819.432 156.764 814.79 146.879 816.394 135.324C817.998 123.738 826.252 115.222 837.409 113.162C846.785 111.434 855.536 112.823 862.832 119.395C869.717 125.603 871.602 133.694 870.885 142.627C870.8 143.684 870.154 143.618 869.418 143.612C863.275 143.605 857.14 143.612 850.997 143.612ZM843.897 134.777C847.692 134.777 851.486 134.725 855.281 134.803C856.598 134.829 856.833 134.457 856.501 133.231C854.962 127.572 850.208 123.966 844.105 123.933C837.872 123.894 833.092 127.428 831.482 133.147C831.13 134.405 831.214 134.849 832.682 134.816C836.411 134.712 840.154 134.777 843.897 134.777Z" fill="white"/>
<path d="M804.507 93.2679C806.3 92.205 808.028 91.7356 809.925 92.1529C812.207 92.6549 813.733 94.1807 813.87 96.5085C814.027 99.1558 813.935 101.823 813.981 104.483C813.994 105.096 813.785 105.285 813.153 105.344C810.036 105.618 810.036 105.644 810.036 102.546C810.036 101.138 810.069 99.7231 810.01 98.3147C809.938 96.515 809.162 95.6217 807.708 95.5239C806.078 95.4131 804.813 96.2868 804.644 97.9886C804.448 99.9252 804.455 101.894 804.539 103.837C804.592 105.057 804.253 105.526 803.027 105.337C802.499 105.252 801.938 105.291 801.403 105.331C800.771 105.376 800.562 105.135 800.569 104.503C800.588 99.0775 800.588 93.6526 800.569 88.2211C800.562 87.4843 800.875 87.3473 801.534 87.3017C804.52 87.093 804.513 87.0735 804.513 90.0729C804.507 91.0444 804.507 92.0225 804.507 93.2679Z" fill="white"/>
<path d="M734.517 99.8927C733.324 99.8927 732.13 99.8796 730.931 99.8992C730.578 99.9057 730.096 99.7101 729.913 100.153C729.711 100.643 730.168 100.949 730.448 101.242C731.635 102.481 733.891 102.749 735.56 101.608C737.262 100.447 737.444 102.24 738.096 102.833C738.996 103.642 737.836 104.027 737.379 104.346C734.83 106.12 730.187 105.781 727.762 103.714C725.656 101.914 725.01 98.556 726.249 95.7978C727.573 92.8506 731.159 91.3575 734.68 92.2833C737.679 93.0723 739.655 95.9152 739.427 99.0189C739.374 99.7362 739.088 99.9253 738.416 99.9057C737.125 99.8601 735.821 99.8927 734.517 99.8927ZM735.645 97.5192C735.182 96.0326 734.373 95.2958 733.069 95.1328C731.856 94.9828 730.833 95.3414 730.109 96.3716C729.666 97.0041 729.424 97.5518 730.605 97.5258C732.222 97.4932 733.839 97.5192 735.645 97.5192Z" fill="white"/>
<path d="M825.418 99.8926C824.166 99.8926 822.921 99.8861 821.669 99.8991C821.369 99.9057 820.984 99.7818 820.841 100.193C820.71 100.564 821.017 100.799 821.206 101.04C822.334 102.481 824.662 102.703 826.689 101.503C828.189 100.616 828.248 102.299 828.991 102.736C829.695 103.153 829.265 103.603 828.822 104.007C826.787 105.859 822.099 105.989 819.471 104.248C816.935 102.573 815.905 99.3123 816.974 96.352C818.128 93.1505 821.486 91.4552 825.203 92.1985C828.443 92.8506 830.491 95.5239 830.386 98.9015C830.36 99.6709 830.106 99.9448 829.324 99.9057C828.026 99.8535 826.722 99.8926 825.418 99.8926ZM826.585 97.5192C826.142 95.9804 825.268 95.2501 823.899 95.1132C822.679 94.9958 821.675 95.4131 820.991 96.4629C820.567 97.1084 820.515 97.5387 821.519 97.5192C823.129 97.4931 824.746 97.5192 826.585 97.5192Z" fill="white"/>
<path d="M850.743 99.8926C849.491 99.8926 848.246 99.8796 847 99.8991C846.648 99.9057 846.166 99.7166 845.977 100.14C845.761 100.623 846.218 100.936 846.498 101.236C847.678 102.481 849.947 102.762 851.604 101.614C853.312 100.434 853.488 102.24 854.147 102.827C855.053 103.635 853.905 104.02 853.442 104.34C850.899 106.113 846.257 105.781 843.831 103.72C841.712 101.927 841.073 98.5755 842.306 95.8108C843.623 92.8571 847.202 91.3639 850.723 92.2833C853.723 93.0658 855.698 95.8956 855.483 99.0124C855.431 99.7166 855.17 99.9383 854.486 99.9122C853.24 99.86 851.988 99.8926 850.743 99.8926ZM851.714 97.5192C851.206 96.0325 850.41 95.2696 849.093 95.1262C847.874 94.9893 846.863 95.3544 846.146 96.3912C845.67 97.0758 845.553 97.5583 846.681 97.5322C848.298 97.4866 849.908 97.5192 851.714 97.5192Z" fill="white"/>
<path d="M752.924 100.942C752.924 101.536 752.924 102.136 752.924 102.729C752.924 105.455 752.324 106.185 749.833 105.181C748.529 104.653 747.845 105.213 746.886 105.35C745.471 105.546 744.076 105.604 742.733 105.011C741.181 104.326 740.313 102.905 740.411 101.262C740.516 99.547 741.455 98.3864 743.195 97.8843C744.676 97.454 746.201 97.5127 747.721 97.4996C748.066 97.4996 748.529 97.6952 748.725 97.2584C748.927 96.8085 748.634 96.4042 748.34 96.0912C747.362 95.0479 746.11 95.1392 744.858 95.3218C744.487 95.374 744.141 95.5696 743.769 95.6413C743.215 95.7522 742.719 96.6128 742.211 96.1043C741.657 95.5631 741.37 94.735 741.018 94.0112C740.776 93.5157 741.207 93.3526 741.546 93.1896C744.356 91.8204 747.251 91.4748 750.172 92.7136C751.874 93.4374 752.683 94.9175 752.807 96.7107C752.904 98.1125 752.826 99.5275 752.826 100.929C752.852 100.942 752.885 100.942 752.924 100.942ZM747.323 99.86C746.221 100.134 744.571 99.5405 744.369 101.308C744.239 102.416 745.295 102.736 746.299 102.736C747.688 102.729 748.973 101.738 748.927 100.642C748.875 99.4492 747.897 100.088 747.323 99.86Z" fill="white"/>
<path d="M766.343 98.6798C766.343 96.8346 766.369 94.9893 766.33 93.144C766.317 92.4463 766.545 92.0421 767.236 92.2442C768.24 92.5311 769.629 91.4096 770.288 93.0984C770.425 93.444 770.816 92.968 771.07 92.8376C775.745 90.4902 779.671 92.8571 779.736 98.08C779.762 100.088 779.677 102.097 779.769 104.105C779.814 105.142 779.462 105.363 778.484 105.35C775.804 105.324 775.811 105.37 775.804 102.762C775.804 101.242 775.837 99.7231 775.772 98.2039C775.693 96.5085 774.917 95.6413 773.522 95.524C771.925 95.3936 770.783 96.176 770.444 97.7865C770.06 99.6057 770.184 101.477 770.321 103.303C770.451 105.076 769.805 105.605 768.182 105.331C767.914 105.285 767.634 105.292 767.367 105.331C766.454 105.474 766.297 105.018 766.317 104.216C766.376 102.37 766.343 100.525 766.343 98.6798Z" fill="white"/>
<path d="M790.566 98.6798C790.566 98.0865 790.534 97.4866 790.573 96.8932C790.631 96.0325 790.553 95.374 789.406 95.5566C788.617 95.6804 788.434 95.1327 788.584 94.5524C788.767 93.8678 787.932 92.6289 789.184 92.5702C790.56 92.505 790.703 91.8725 790.553 90.8488C790.377 89.6556 790.788 89.1209 792.046 89.3296C792.47 89.4013 792.92 89.3948 793.344 89.3296C794.4 89.1731 794.713 89.6751 794.563 90.6206C794.335 92.0551 794.824 92.7919 796.376 92.492C797.791 92.2181 797.758 93.0788 797.784 94.096C797.81 95.1392 797.654 95.7913 796.408 95.5696C794.974 95.3088 794.348 95.8239 794.544 97.3627C794.674 98.3734 794.531 99.4232 794.583 100.447C794.668 102.012 795.287 102.54 796.767 102.149C798.495 101.692 797.973 103.257 798.423 103.896C799.043 104.783 798.162 104.992 797.589 105.2C793.605 106.602 790.644 104.535 790.566 100.31C790.56 99.7622 790.566 99.221 790.566 98.6798Z" fill="white"/>
<path d="M832.519 98.6407C832.519 96.9063 832.59 95.1653 832.492 93.4374C832.434 92.3876 832.831 92.0029 833.77 92.2442C834.67 92.4724 836.02 91.4357 836.444 93.1505C836.509 93.4179 836.796 93.1831 836.972 93.0919C837.35 92.8897 837.709 92.6354 838.107 92.4855C838.902 92.192 840.004 91.6182 840.506 92.2312C841.119 92.981 840.715 94.2134 840.682 95.2305C840.663 95.7978 840.102 95.5566 839.769 95.6218C837.357 96.0586 836.548 96.9454 836.457 99.4493C836.405 101.021 836.392 102.599 836.463 104.17C836.502 105.089 836.222 105.35 835.29 105.357C832.512 105.37 832.512 105.415 832.512 102.722C832.519 101.353 832.519 99.997 832.519 98.6407Z" fill="white"/>
<path d="M755.911 98.6799C755.911 96.8346 755.937 94.9893 755.898 93.144C755.884 92.4529 756.106 92.0356 756.804 92.2442C757.801 92.5376 759.223 91.3835 759.81 93.118C759.921 93.4375 760.162 93.1962 760.331 93.1114C760.71 92.9093 761.068 92.655 761.466 92.4985C762.261 92.1855 763.376 91.6378 763.878 92.2051C764.524 92.9354 764.087 94.1743 764.081 95.198C764.081 95.7783 763.533 95.5566 763.2 95.6218C760.697 96.0782 759.921 96.965 759.855 99.5797C759.816 101.099 759.803 102.618 759.862 104.137C759.895 105.011 759.699 105.357 758.727 105.363C755.911 105.37 755.911 105.422 755.911 102.586C755.911 101.282 755.911 99.9774 755.911 98.6799Z" fill="white"/>
<path fill-rule="evenodd" clip-rule="evenodd" d="M0 16C0 7.16344 7.16344 0 16 0H465.758H487.335H545.857V65.5903C548.769 65.2009 551.74 65 554.757 65C591.894 65 622 95.4446 622 133C622 170.555 591.894 201 554.757 201C551.74 201 548.769 200.799 545.857 200.41V254H487.335H465.758H16C7.16344 254 0 246.837 0 238V16Z" fill="#0000FF"/>
<path d="M314.327 120.406C314.809 120.543 314.966 120.275 315.161 120.119C326.266 111.31 341.217 115 346.186 128.211C350.293 139.139 349.387 149.839 341.712 159.163C335.544 166.662 324.681 169.002 315.774 165.214C313.909 164.419 312.247 163.291 310.825 161.85C310.232 161.25 309.893 161.25 309.541 162.006C309.45 162.202 309.273 162.358 309.195 162.554C308.25 164.96 306.528 165.723 303.985 165.449C302.694 165.312 302.427 164.999 302.427 163.78C302.466 148.424 302.434 133.062 302.46 117.706C302.466 112.444 302.277 107.176 302.655 101.92C302.714 101.105 302.421 101.008 301.768 101.053C300.197 101.158 298.619 101.184 297.054 101.34C296.2 101.425 295.894 101.21 295.939 100.323C296.024 98.6472 295.411 96.5281 296.22 95.4196C296.976 94.3764 299.252 95.061 300.849 94.9045C303.829 94.6176 306.75 94.1677 309.417 92.6289C310.799 91.8334 312.39 92.3159 313.877 92.3289C314.672 92.3355 314.307 93.1896 314.307 93.6526C314.333 101.36 314.327 109.067 314.327 116.774C314.327 118 314.327 119.226 314.327 120.406ZM314.327 140.756C314.464 144.407 314.053 148.867 314.542 153.301C315.103 158.374 319.198 161.471 324.27 160.878C329.376 160.278 332.082 156.992 333.725 152.584C335.538 147.713 335.779 142.627 335.231 137.502C334.84 133.864 334.012 130.349 331.912 127.252C329.702 123.986 326.631 122.538 322.725 122.871C319.784 123.118 317.365 124.462 315.24 126.437C314.548 127.076 314.294 127.787 314.307 128.732C314.359 132.475 314.327 136.218 314.327 140.756Z" fill="white"/>
<path d="M204.282 132.097C201.446 143.221 197.475 153.582 194.058 164.119C193.641 165.403 193.061 165.899 191.789 165.677C191.58 165.638 191.352 165.677 191.137 165.67C189.409 165.592 187.277 166.336 186.064 165.384C184.943 164.503 184.773 162.397 184.219 160.819C180.287 149.519 176.368 138.22 172.45 126.92C172.378 126.718 172.326 126.502 172.247 126.3C171.83 125.25 172.091 123.712 171.211 123.17C170.441 122.701 169.118 123.099 168.042 123.164C167.429 123.203 167.109 123.034 167.161 122.375C167.175 122.212 167.161 122.049 167.161 121.886C167.194 120.321 166.64 118.287 167.416 117.322C168.237 116.298 170.363 117.022 171.908 117.009C177.229 116.963 182.556 117.048 187.877 116.957C189.279 116.93 189.729 117.361 189.52 118.684C189.455 119.108 189.461 119.558 189.52 119.982C189.696 121.384 189.429 122.232 187.714 122.434C186.182 122.616 185.575 123.94 185.484 125.433C185.36 127.415 185.771 129.313 186.305 131.197C188.229 137.965 190.498 144.636 192.115 151.508C192.826 151.221 192.682 150.497 192.819 149.982C195.701 139.263 199.275 128.745 202.417 118.104C202.685 117.204 203.102 116.937 204.015 116.97C205.964 117.041 207.927 117.054 209.877 116.97C210.881 116.924 211.266 117.302 211.546 118.221C214.923 129.3 218.34 140.371 221.75 151.443C221.848 151.749 221.959 152.056 222.142 152.564C225.33 142.601 228.356 132.775 231.837 122.903C230.625 122.968 229.314 122.975 228.01 123.131C226.986 123.249 226.491 123.053 226.595 121.886C226.738 120.328 225.969 118.313 226.875 117.322C227.808 116.304 229.849 117.028 231.401 117.009C235.365 116.957 239.329 117.015 243.294 116.97C244.187 116.957 244.617 117.172 244.48 118.124C244.435 118.443 244.441 118.776 244.48 119.102C244.715 120.954 244.552 122.31 242.127 122.577C240.483 122.753 239.362 124.201 238.39 125.537C237.171 127.22 236.337 129.091 235.652 131.047C231.746 142.177 227.814 153.308 223.922 164.445C223.615 165.325 223.224 165.742 222.22 165.69C220.433 165.599 218.634 165.592 216.847 165.69C215.699 165.749 215.158 165.41 214.793 164.256C211.455 153.79 207.595 143.488 204.68 132.886C204.634 132.742 204.543 132.612 204.282 132.097Z" fill="white"/>
<path d="M376.89 165.384C370.37 165.384 363.856 165.345 357.336 165.416C355.914 165.429 355.679 165.005 355.745 163.662C356.116 156.34 359.324 150.341 364.241 145.151C366.699 142.549 369.314 140.091 371.902 137.613C375.201 134.451 378.357 131.178 380.881 127.331C384.591 121.671 385.771 115.587 383.991 109.008C383.032 105.461 381.011 102.833 377.216 102.11C372.874 101.275 369.164 102.429 366.314 105.95C365.851 106.524 365.773 106.974 366.262 107.639C367.253 108.989 367.716 110.554 367.488 112.236C367.057 115.424 364.658 117.472 361.587 117.361C358.568 117.25 356.227 114.883 355.96 111.655C355.732 108.839 356.847 106.459 358.477 104.287C361.287 100.545 365.062 98.1322 369.535 96.9715C375.697 95.374 381.8 95.7587 387.734 98.1452C399.04 102.683 399.836 114.792 396.132 121.58C394.534 124.514 392.487 127.096 390.231 129.528C386.084 134.001 381.455 137.939 376.773 141.825C372.704 145.203 368.922 148.854 366.249 153.49C364.632 156.294 364.645 156.314 367.801 156.392C373.069 156.529 378.331 156.666 383.6 156.79C385.334 156.829 387.069 156.809 388.797 156.516C391.665 156.033 393.159 154.618 393.491 151.749C393.615 150.68 393.935 150.315 395.069 150.328C398.747 150.367 398.76 150.321 398.623 153.947C398.499 157.09 398.271 160.239 398.225 163.382C398.205 164.921 397.814 165.468 396.119 165.436C389.709 165.305 383.3 165.384 376.89 165.384Z" fill="white"/>
<path d="M270.751 166.929C257.945 166.844 248.712 158.361 247.343 145.575C246.339 136.224 248.575 128.002 255.559 121.443C262.314 115.092 273.346 113.501 281.692 117.596C287.867 120.628 290.912 125.909 292.034 132.469C292.288 133.962 292.249 135.494 292.431 137C292.581 138.213 292.171 138.546 290.938 138.552C281.816 138.637 272.688 138.806 263.566 138.963C259.79 139.028 259.81 139.035 260.051 142.758C260.188 144.877 260.54 146.957 261.101 149.004C263.435 157.533 270.256 161.36 278.778 158.915C282.566 157.826 285.833 155.857 288.467 152.91C289.054 152.251 289.38 152.128 290.104 152.773C293.214 155.557 293.24 155.531 290.384 158.655C285.428 164.093 278.576 166.981 270.751 166.929ZM270.392 133.271C273.372 133.271 276.352 133.244 279.332 133.284C280.225 133.297 280.584 133.101 280.486 132.103C280.271 129.88 279.958 127.696 278.954 125.674C277.767 123.294 275.896 121.769 273.242 121.345C268.912 120.647 265.013 122.486 262.731 126.242C261.649 128.022 261.068 129.978 260.579 131.98C260.331 132.984 260.527 133.316 261.616 133.29C264.537 133.225 267.465 133.271 270.392 133.271Z" fill="white"/>
<path d="M173.206 95.9217C173.63 95.2892 173.975 94.6828 174.406 94.1547C176.108 92.0681 178.885 92.5115 179.863 94.9958C181.793 99.9122 178.8 105.044 173.604 105.526C172.371 105.644 171.895 105.95 171.954 107.169C171.993 107.867 171.869 108.578 171.798 109.275C171.739 109.856 171.7 110.384 172.567 110.267C173.121 110.195 173.167 110.612 173.147 111.01C173.128 111.447 172.802 111.486 172.456 111.479C171.367 111.473 170.285 111.486 169.196 111.473C168.948 111.473 168.629 111.545 168.524 111.193C168.413 110.834 168.511 110.599 168.876 110.417C169.613 110.051 169.711 109.315 169.77 108.617C170.135 104.568 170.487 100.512 170.833 96.4629C170.872 96.0326 170.872 95.5957 170.859 95.1653C170.846 94.8458 170.839 94.4481 170.448 94.3698C170.102 94.2981 169.848 94.5655 169.633 94.8132C169.489 94.9762 169.392 95.1719 169.248 95.3349C168.909 95.7326 169.039 96.8411 168.218 96.4368C167.39 96.0326 168.198 95.3088 168.413 94.8067C168.805 93.9004 169.437 93.131 170.493 92.9158C172.156 92.5898 172.71 93.1962 173.206 95.9217ZM177.972 97.7931C177.959 97.5192 177.985 97.0237 177.907 96.5477C177.757 95.6544 177.751 94.5524 176.662 94.3046C175.573 94.0569 175.038 95.0219 174.575 95.7978C173.376 97.8191 172.75 100.056 172.417 102.364C172.326 102.996 171.745 103.818 172.456 104.281C173.199 104.77 174.145 104.561 174.96 104.229C175.671 103.935 176.231 103.433 176.649 102.768C177.575 101.314 177.985 99.7166 177.972 97.7931Z" fill="white"/>
<path d="M223.133 96.7302C223.693 95.8826 224.202 95.0023 224.821 94.2068C225.786 92.9484 227.149 92.5572 228.603 93.0527C229.999 93.5287 230.214 94.8393 230.214 96.1369C230.22 98.256 229.881 100.349 229.64 102.449C229.575 103.009 229.36 103.779 230.096 103.987C230.801 104.19 231.048 103.44 231.368 102.951C231.603 102.586 231.563 101.757 232.183 102.005C232.887 102.292 232.352 102.931 232.189 103.394C231.922 104.124 231.446 104.731 230.814 105.174C229.294 106.25 227.547 105.441 227.449 103.59C227.319 101.249 227.886 98.9537 228.016 96.6259C228.062 95.7652 228.303 94.7415 227.293 94.3503C226.295 93.9656 225.676 94.8328 225.193 95.524C223.433 98.0343 222.631 100.884 222.604 103.929C222.598 104.868 222.552 105.396 221.346 105.376C220.003 105.35 220.355 104.49 220.394 103.831C220.642 99.2862 220.929 94.735 221.548 90.2229C221.652 89.4404 221.998 88.5406 220.577 88.7232C220.264 88.7623 220.107 88.5276 220.159 88.195C220.205 87.9016 220.335 87.6799 220.655 87.6538C221.581 87.5886 222.454 87.3474 223.335 87.067C224.156 86.8062 224.13 87.3474 224.039 87.9929C223.622 90.8879 223.263 93.7895 222.878 96.6846C222.963 96.6976 223.048 96.7172 223.133 96.7302Z" fill="white"/>
<path d="M182.126 99.4036C182.165 97.6627 182.725 95.7718 184.29 94.3177C185.907 92.818 187.831 92.479 189.872 93.2092C191.854 93.92 192.571 95.5631 192.695 97.5453C192.793 99.0841 192.63 100.577 191.997 101.992C190.772 104.731 188.287 106.048 185.555 105.428C183.201 104.894 181.969 102.859 182.126 99.4036ZM184.44 99.8014C184.414 100.453 184.532 101.353 184.805 102.24C185.145 103.322 185.627 104.274 186.925 104.385C188.183 104.496 188.979 103.766 189.474 102.742C190.556 100.506 190.713 98.1713 189.97 95.8044C189.683 94.8785 189.07 94.1743 188.066 94.0047C187.055 93.8352 186.279 94.3177 185.686 95.0936C184.669 96.3912 184.427 97.9235 184.44 99.8014Z" fill="white"/>
<path d="M233.598 99.5405C233.585 98.7776 233.826 97.3953 234.452 96.1043C235.613 93.6917 237.797 92.5376 240.457 92.9354C241.605 93.1049 242.563 93.5939 242.844 94.8132C243.137 96.0652 242.87 97.1867 241.755 97.9822C240.353 98.9928 238.716 99.4232 237.054 99.6514C235.997 99.7948 235.834 100.264 235.984 101.145C236.186 102.292 236.421 103.479 237.634 103.942C238.931 104.437 240.079 103.929 241.044 103.009C241.357 102.709 241.624 102.364 241.879 102.018C242.166 101.627 242.394 101.086 243 101.542C243.62 102.018 243.039 102.416 242.824 102.775C241.383 105.142 239.088 106.087 236.584 105.376C234.576 104.809 233.559 103.055 233.598 99.5405ZM236.036 98.6994C237.484 98.4973 238.749 98.106 239.812 97.2193C240.835 96.3651 241.011 95.1523 240.281 94.3764C239.59 93.6461 238.221 93.77 237.399 94.735C236.46 95.8369 236.043 97.1541 236.036 98.6994Z" fill="white"/>
<path d="M261.655 92.8701C263.129 92.9027 264.531 93.1309 265.013 94.8132C265.476 96.4368 264.765 97.6887 262.94 98.5559C261.76 99.1167 260.508 99.5014 259.217 99.6579C258.336 99.7687 257.971 100.069 258.134 100.982C258.356 102.233 258.545 103.551 259.96 103.981C261.505 104.444 262.64 103.616 263.69 102.553C264.094 102.136 264.231 100.818 265.137 101.588C265.946 102.273 264.883 102.912 264.505 103.427C263.064 105.37 260.821 106.048 258.591 105.337C256.817 104.77 255.859 103.211 255.774 100.682C255.715 98.9797 255.943 97.3301 256.778 95.8043C257.834 93.8808 259.425 92.8571 261.655 92.8701ZM261.29 93.9264C259.758 93.9199 257.534 97.1801 258.199 98.4581C258.33 98.7124 258.499 98.6863 258.721 98.6342C260.103 98.3081 261.46 97.9169 262.425 96.7628C262.92 96.176 263.044 95.4978 262.725 94.7871C262.444 94.1938 261.968 93.8873 261.29 93.9264Z" fill="white"/>
<path d="M199.066 92.8767C200.363 92.8767 201.576 93.118 202.391 94.233C202.795 94.7807 202.926 95.4327 202.502 96.0587C202.228 96.4564 201.804 96.6194 201.354 96.476C200.676 96.2608 200.461 95.7261 200.591 95.061C200.735 94.3177 200.207 94.083 199.679 93.9656C198.7 93.7439 197.846 94.0439 197.214 94.8328C196.836 95.3023 196.803 95.8239 197.181 96.3325C197.683 96.9976 198.361 97.441 199.059 97.8713C199.431 98.0996 199.809 98.3147 200.174 98.5429C202.802 100.167 203.519 102.142 202.15 103.961C200.741 105.833 196.81 106.191 195.029 104.62C194.514 104.164 194.227 103.609 194.247 102.905C194.267 102.227 194.527 101.764 195.271 101.692C196.06 101.621 196.47 102.129 196.405 102.749C196.281 103.929 196.862 104.333 197.859 104.418C198.883 104.509 199.874 104.327 200.35 103.296C200.78 102.357 200.572 101.484 199.672 100.864C198.824 100.284 197.964 99.7166 197.109 99.1428C195.023 97.754 194.469 96.7498 194.958 95.2306C195.414 93.8156 197.051 92.8832 199.066 92.8767Z" fill="white"/>
<path d="M205.997 100.884C206.121 99.3775 206.225 97.5388 206.447 95.7131C206.558 94.7872 206.662 94.083 205.365 94.2721C205.032 94.3242 204.537 94.4025 204.497 93.8287C204.465 93.3266 204.713 93.0071 205.247 92.968C206.786 92.8441 207.458 91.7617 207.94 90.4967C208.129 90.0077 208.331 89.5448 208.957 89.7273C209.577 89.9099 209.192 90.4511 209.257 90.8293C209.264 90.8814 209.251 90.9401 209.244 90.9923C209.081 93.0723 209.081 93.0723 211.187 93.0919C211.513 93.0919 211.839 93.0853 212.165 93.1114C212.544 93.1375 212.765 93.3266 212.733 93.7309C212.707 94.0504 212.518 94.2069 212.205 94.2199C212.094 94.2264 211.989 94.2199 211.879 94.2329C210.887 94.3829 209.564 93.7439 208.977 94.559C208.449 95.2892 208.599 96.5346 208.514 97.5518C208.377 99.1689 208.266 100.792 208.214 102.416C208.195 103.035 208.162 103.811 208.977 104.027C209.675 104.216 210.203 103.805 210.698 103.342C211.024 103.042 211.187 102.116 211.872 102.749C212.491 103.309 211.709 103.72 211.448 104.079C210.49 105.396 208.918 105.898 207.588 105.422C206.101 104.887 206.062 103.609 205.997 102.351C205.978 101.979 205.997 101.601 205.997 100.884Z" fill="white"/>
<path d="M249.364 96.2086C250.016 95.3218 250.473 94.5915 251.034 93.9525C251.796 93.0788 252.807 92.7397 253.968 92.9158C254.626 93.0136 255.057 93.3787 255.2 94.0373C255.324 94.6241 255.148 95.1588 254.613 95.4326C254.039 95.7195 253.446 95.6478 253.009 95.0936C252.142 93.9851 251.659 95.0675 251.327 95.5174C249.723 97.6561 249.117 100.186 248.758 102.781C248.693 103.264 248.628 103.766 248.686 104.242C248.823 105.278 248.262 105.324 247.447 105.363C246.489 105.402 246.365 104.959 246.437 104.196C246.697 101.555 246.945 98.908 247.193 96.2607C247.258 95.5826 247.565 94.6567 246.763 94.4155C246.117 94.2198 245.759 95.0675 245.446 95.6413C245.237 96.0195 245.25 96.7889 244.539 96.4694C243.855 96.1564 244.441 95.5956 244.559 95.224C244.767 94.5589 245.211 93.9916 245.739 93.5026C246.463 92.8375 247.304 92.7593 248.171 93.007C249.051 93.2548 249.156 94.0829 249.28 94.8328C249.338 95.1849 249.325 95.5696 249.364 96.2086Z" fill="white"/>
<defs>
<filter id="filter0_f_138_835" x="513" y="-288" width="837.917" height="681.376" filterUnits="userSpaceOnUse" color-interpolation-filters="sRGB">
<feFlood flood-opacity="0" result="BackgroundImageFix"/>
<feBlend mode="normal" in="SourceGraphic" in2="BackgroundImageFix" result="shape"/>
<feGaussianBlur stdDeviation="100" result="effect1_foregroundBlur_138_835"/>
</filter>
<filter id="filter1_f_138_835" x="706.833" y="-113.64" width="697.5" height="591.064" filterUnits="userSpaceOnUse" color-interpolation-filters="sRGB">
<feFlood flood-opacity="0" result="BackgroundImageFix"/>
<feBlend mode="normal" in="SourceGraphic" in2="BackgroundImageFix" result="shape"/>
<feGaussianBlur stdDeviation="100" result="effect1_foregroundBlur_138_835"/>
</filter>
<filter id="filter2_f_138_835" x="198" y="-255" width="837.917" height="681.376" filterUnits="userSpaceOnUse" color-interpolation-filters="sRGB">
<feFlood flood-opacity="0" result="BackgroundImageFix"/>
<feBlend mode="normal" in="SourceGraphic" in2="BackgroundImageFix" result="shape"/>
<feGaussianBlur stdDeviation="100" result="effect1_foregroundBlur_138_835"/>
</filter>
<filter id="filter3_f_138_835" x="520.583" y="-24.1755" width="772.083" height="651.742" filterUnits="userSpaceOnUse" color-interpolation-filters="sRGB">
<feFlood flood-opacity="0" result="BackgroundImageFix"/>
<feBlend mode="normal" in="SourceGraphic" in2="BackgroundImageFix" result="shape"/>
<feGaussianBlur stdDeviation="100" result="effect1_foregroundBlur_138_835"/>
</filter>
<filter id="filter4_f_138_835" x="437" y="-147" width="762.917" height="696.333" filterUnits="userSpaceOnUse" color-interpolation-filters="sRGB">
<feFlood flood-opacity="0" result="BackgroundImageFix"/>
<feBlend mode="normal" in="SourceGraphic" in2="BackgroundImageFix" result="shape"/>
<feGaussianBlur stdDeviation="100" result="effect1_foregroundBlur_138_835"/>
</filter>
<filter id="filter5_f_138_835" x="247.69" y="-46.2255" width="696.667" height="600.66" filterUnits="userSpaceOnUse" color-interpolation-filters="sRGB">
<feFlood flood-opacity="0" result="BackgroundImageFix"/>
<feBlend mode="normal" in="SourceGraphic" in2="BackgroundImageFix" result="shape"/>
<feGaussianBlur stdDeviation="100" result="effect1_foregroundBlur_138_835"/>
</filter>
<clipPath id="clip0_138_835">
<rect x="536" width="600" height="254" rx="16" fill="white"/>
</clipPath>
</defs>
</svg>
