<svg width="958" height="80" viewBox="0 0 958 80" fill="none" xmlns="http://www.w3.org/2000/svg">
<path d="M56.4118 37.0948C55.4222 27.8638 48.6048 19.7361 39.6615 17.0882C38.1953 16.6469 36.6559 16.463 35.1898 16.0952H30.2417C28.7756 16.463 27.2361 16.6469 25.77 17.0882C16.7901 19.7729 10.046 27.7902 9.01969 37.0948C9.01969 37.2419 8.94638 37.3523 8.90972 37.4994C8.90972 37.0948 8.90972 36.6903 8.90972 36.249C8.87307 36.6168 8.83643 36.9845 8.83643 37.3155C8.83643 37.4626 8.83643 37.573 8.83643 37.7201V42.2436C8.83643 42.3539 8.83642 42.4643 8.87307 42.5746C8.90972 42.832 8.90973 43.0895 8.94638 43.3837C8.94638 43.0895 8.94638 42.7585 8.94638 42.4642C9.31291 44.487 9.67944 46.5465 10.4491 48.4956C12.9415 54.8213 17.2666 59.3816 23.5342 62.0296C25.88 63.0225 28.3724 63.5374 30.9381 63.758V63.7949C30.9381 63.8316 30.9381 63.8684 30.9381 63.9052H34.5301C34.5301 63.8684 34.5301 63.7948 34.5301 63.758C34.9699 63.7213 35.4464 63.6477 35.8862 63.5742C38.6352 63.1328 41.3108 62.5077 43.7299 61.2205C51.8302 56.8808 56.5584 48.937 56.5584 39.9267C56.5584 39.0073 56.5218 38.051 56.4118 37.0948ZM26.6131 34.6307C26.6131 32.939 27.9326 31.5782 29.6186 31.5782C31.268 31.5782 32.6241 32.9023 32.6608 34.5572C32.6974 36.2489 31.3413 37.6097 29.6552 37.6097C27.9326 37.6097 26.6497 36.2857 26.6131 34.6307ZM17.2666 38.9336C17.0467 42.4642 16.7901 46.0316 15.7638 49.4887C15.4706 50.4817 15.1774 51.4379 14.6276 52.4308C13.5646 50.9965 12.7949 49.4887 12.2085 47.9073C7.26035 34.7779 15.324 20.5085 29.1054 18.2283C35.9595 17.0882 42.1539 18.8167 47.3952 23.5241C52.9298 28.489 55.2756 34.7779 54.6891 42.17C53.9194 51.4746 46.6255 59.6391 37.389 61.5882C36.6926 61.7354 36.6193 61.4779 36.6193 60.9262C36.436 57.8738 37.5356 55.2259 39.0384 52.6883C40.8344 49.6358 43.2168 47.0982 45.7458 44.5973C46.8088 43.5676 48.0183 42.5745 48.8247 41.3241C48.055 41.7287 47.3952 42.354 46.5522 42.6849C43.6933 44.1928 40.7244 45.2593 37.4623 45.2225C35.9229 45.2225 34.4934 44.7444 33.3572 43.6411C34.2735 43.9721 35.1898 44.3031 36.1794 44.4134C39.5515 44.7444 42.7403 43.9721 45.7825 42.6849C45.9658 42.6114 46.149 42.5378 46.3323 42.4642C47.2853 42.0229 48.0916 41.2874 49.1179 40.9564C49.5577 40.4415 49.8509 39.8899 50.1075 39.2647C50.9505 37.1684 50.3641 35.3663 48.3115 33.9687C46.992 33.0493 45.4893 32.4977 43.9498 32.0932C42.4471 31.6886 41.0176 31.0634 39.5515 30.5486C39.2583 30.4382 39.1117 30.2176 38.9284 29.9969C38.4886 29.0407 37.7555 28.4155 36.7659 28.1213C35.593 27.7535 34.4201 27.827 33.2472 28.1213C32.6241 28.2684 32.001 28.0477 31.4146 27.9374C28.7389 27.4225 26.3198 28.1948 23.8641 29.1877C19.4657 31.0266 17.5231 34.3365 17.2666 38.9336ZM43.9498 38.7866C43.9498 38.2349 44.3164 37.9039 44.8662 37.9039C45.416 37.9039 45.7092 38.2349 45.7825 38.8234C45.7092 39.3382 45.4526 39.7428 44.8662 39.7428C44.2797 39.7428 43.9498 39.375 43.9498 38.7866Z" fill="#C0BFC7"/>
<path d="M247.666 42.9792C246.53 37.7569 241.838 35.0355 236.121 36.2491C231.869 37.1318 229.193 40.8462 229.157 45.4433C229.157 45.7376 229.157 46.0686 229.193 46.3628C229.45 49.5991 230.403 52.4309 233.335 54.233C238.98 57.7636 245.834 55.0421 247.666 48.6061C247.703 48.4958 247.813 48.3854 247.886 48.3119V43.2367C247.813 43.1632 247.703 43.0896 247.666 42.9792ZM242.791 49.9301C241.765 51.6219 240.262 52.4677 238.246 52.3573C236.231 52.2102 234.911 51.0702 234.105 49.3049C233.115 47.0983 233.115 44.8181 233.995 42.5747C234.801 40.4784 236.597 39.2648 238.686 39.3015C240.702 39.3383 242.388 40.5519 243.231 42.6115C243.671 43.6412 243.781 44.7445 243.818 45.8478C243.781 47.2821 243.524 48.6797 242.791 49.9301Z" fill="#C0BFC7"/>
<path d="M165.711 41.5448C163.145 41.5816 160.579 41.5448 158.014 41.5448C155.741 41.508 155.741 41.508 155.741 43.8985C155.741 44.7444 155.998 45.0753 156.841 45.0018C158.417 44.9282 160.029 45.0018 161.605 44.9651C162.485 44.9283 162.632 45.2593 162.522 46.0684C162.119 48.8634 160.799 50.9597 157.977 51.6953C154.935 52.5044 152.039 52.063 149.913 49.4518C146.944 45.8109 147.018 38.4555 150.06 34.8881C153.102 31.3208 159.736 31.7989 161.422 35.9179C162.082 37.5361 162.888 37.7935 164.318 37.6464C164.758 37.6096 165.197 37.6096 165.637 37.6464C166.334 37.6832 166.48 37.389 166.37 36.7638C166.114 35.5502 165.711 34.4101 165.014 33.3435C161.532 28.0844 152.699 27.0914 147.714 31.5782C143.609 35.2559 142.656 40.037 143.499 45.2593C144.122 49.1577 146.065 52.3204 149.62 54.3064C154.202 56.8072 158.563 56.182 163.218 52.3572C163.328 52.7249 163.438 52.9824 163.475 53.2399C163.915 55.2626 163.915 55.2258 165.931 55.1523C166.627 55.1155 166.847 54.8948 166.847 54.2328C166.847 50.3713 166.847 46.5097 166.883 42.6481C166.774 41.8022 166.48 41.5448 165.711 41.5448Z" fill="#C0BFC7"/>
<path d="M87.6033 45.2959C87.3467 45.2959 87.0901 45.3327 86.7969 45.2959C85.6607 45.0753 85.2941 45.627 85.1109 46.6935C84.5244 49.4885 82.9484 51.401 80.0161 51.9526C77.2672 52.4675 74.4815 51.2538 72.9055 48.8633C70.4864 45.1856 70.5964 38.9335 73.1621 35.3662C75.911 31.5414 82.2886 31.4311 84.2679 35.4765C85.2941 37.5728 86.5037 37.9406 88.4096 37.6831C88.5562 37.6464 88.6662 37.6464 88.8128 37.6831C89.8391 37.8303 89.9124 37.3521 89.6925 36.543C89.3626 35.0352 88.7761 33.6745 87.7865 32.5344C85.4774 29.8497 82.4352 28.9302 79.393 28.8567C75.4712 28.8199 72.2457 30.1807 70.1199 32.5712C65.5383 37.6832 65.3916 46.6199 69.8633 51.8054C73.0154 55.4464 77.1206 56.4762 81.6655 55.52C85.8439 54.6005 88.4463 51.8791 89.5092 47.7233C90.059 45.296 90.059 45.2959 87.6033 45.2959Z" fill="#C0BFC7"/>
<path d="M226.921 36.3223C226.885 36.3958 226.811 36.4694 226.738 36.5062C226.885 36.5062 227.032 36.5062 227.179 36.5062C227.105 36.4694 227.032 36.3958 226.921 36.3223Z" fill="#C0BFC7"/>
<path d="M221.057 44.3399C220.544 43.6043 220.654 43.2366 221.24 42.5746C223.109 40.5886 224.942 38.5659 226.775 36.5064C226.225 36.5432 225.675 36.5431 225.125 36.4696C223.219 36.2121 221.753 36.8005 220.544 38.3819C219.737 39.4853 218.674 40.3679 217.648 41.3241C216.842 42.0964 216.255 43.0895 215.082 43.7882V32.3138C215.082 29.3348 215.082 29.3716 212.15 29.3716C211.27 29.3716 210.941 29.5555 210.941 30.5117C210.977 38.382 210.977 46.2155 210.941 54.0858C210.941 54.8581 211.087 55.1523 211.967 55.1523C215.119 55.1523 215.192 55.1891 215.082 52.063C215.009 49.7093 215.046 47.5027 217.648 46.3258C218.784 48.1279 220.214 49.9667 221.13 51.9894C222.34 54.6373 224.172 55.6304 226.958 55.1523C227.288 55.1155 227.764 55.2994 227.947 54.9684C228.167 54.6006 227.728 54.3432 227.581 54.049C225.382 50.8126 223.256 47.5395 221.057 44.3399Z" fill="#C0BFC7"/>
<path d="M187.079 41.3239C185.576 38.0876 183.121 36.1384 179.492 36.0281C175.973 35.881 173.188 37.3521 171.502 40.4413C169.596 43.9351 169.559 47.5761 171.282 51.1434C172.711 54.1224 175.314 55.4831 178.576 55.6302C181.911 55.7773 184.77 54.8211 186.639 51.8422C187.079 51.1066 187.739 50.2608 187.446 49.562C187.189 48.9368 186.09 49.4149 185.356 49.3046C185.137 49.2678 184.917 49.3046 184.697 49.2678C184.074 49.231 183.67 49.4149 183.341 50.0401C182.278 51.9893 180.298 52.7616 178.026 52.2468C176.01 51.8054 174.507 50.0033 174.324 47.9071C174.287 47.2083 174.434 46.9876 175.13 46.9876C177.11 47.0244 179.125 47.0244 181.105 47.0244C182.241 47.0244 183.377 47.0244 184.55 47.0244C188.252 47.0244 188.545 46.5831 187.592 42.8686C187.446 42.317 187.299 41.802 187.079 41.3239ZM182.901 44.1558C181.581 44.1558 180.262 44.1558 178.906 44.1558C177.623 44.1558 176.34 44.1191 175.057 44.1558C174.544 44.1558 174.251 44.0823 174.324 43.4203C174.507 41.2137 176.743 39.2644 179.125 39.3012C181.325 39.338 183.414 41.324 183.597 43.4938C183.67 44.119 183.341 44.1558 182.901 44.1558Z" fill="#C0BFC7"/>
<path d="M103.987 36.1386C99.4054 35.2927 95.1904 37.058 93.5043 40.7724C91.9649 44.1191 92.0016 47.5762 93.541 50.9229C94.1641 52.3204 95.1904 53.4605 96.5099 54.2328C99.8819 56.182 103.364 56.2188 106.773 54.4167C110.145 52.6146 111.134 49.3783 111.171 45.7741C111.171 45.3328 111.208 44.8914 111.171 44.4501C110.804 40.184 107.946 36.9109 103.987 36.1386ZM106.223 49.4518C105.27 51.2907 103.84 52.394 101.678 52.3204C99.5154 52.2837 98.1226 51.1436 97.2796 49.2679C96.2533 46.9878 96.2533 44.5973 97.3162 42.3171C98.1226 40.4783 99.5887 39.3749 101.641 39.3014C103.767 39.2646 105.27 40.2944 106.223 42.1332C106.846 43.3469 106.993 44.6708 107.029 45.6638C106.956 47.2084 106.773 48.3853 106.223 49.4518Z" fill="#C0BFC7"/>
<path d="M139.541 41.7655C139.504 38.7498 137.708 36.6535 134.849 36.1386C131.807 35.6237 129.205 36.2857 127.189 39.0807C126.932 36.4328 126.932 36.4328 124.55 36.4328C124.513 36.4328 124.476 36.4328 124.403 36.4328C123.487 36.3225 123.194 36.6902 123.194 37.6097C123.23 42.5378 123.194 47.429 123.194 52.3572C123.194 55.1154 123.23 55.0419 126.053 55.1154C127.115 55.1522 127.372 54.8213 127.372 53.7915C127.299 50.5551 127.335 47.3187 127.335 44.0823C127.372 41.2137 129.278 39.191 131.88 39.2278C134.299 39.2646 135.326 40.6253 135.326 43.8249C135.326 46.5096 135.326 49.2311 135.326 51.9159C135.326 55.1522 135.326 55.1522 138.588 55.0419C139.358 55.0051 139.541 54.7844 139.541 54.0121C139.541 50.0034 139.577 45.8845 139.541 41.7655Z" fill="#C0BFC7"/>
<path d="M202.84 41.2876C203.426 42.6115 204.086 43.0161 205.149 42.7586C205.662 42.7586 205.992 42.7219 206.322 42.7586C207.458 42.9057 207.715 42.4644 207.385 41.4346C207.018 40.221 206.469 39.1545 205.552 38.235C202.767 35.2929 194.96 34.6677 191.771 39.5591C189.901 42.3909 189.608 45.5169 190.268 48.7533C191.074 52.9459 194.336 55.5937 198.661 55.6673C203.316 55.7776 206.139 53.6814 207.348 49.452C207.678 48.2384 207.385 47.9442 206.249 48.0913C205.699 48.1281 205.112 48.1281 204.526 48.0913C203.72 48.0177 203.426 48.2384 203.206 49.1211C202.767 50.8863 201.63 52.0631 199.724 52.3574C197.782 52.6148 196.132 51.9161 195.253 50.1875C193.713 47.2454 193.677 44.1929 195.436 41.3243C197.049 38.6028 201.667 38.5661 202.84 41.2876Z" fill="#C0BFC7"/>
<path d="M118.832 45.8475C118.832 43.7144 118.832 41.5814 118.832 39.4484C118.832 36.3959 118.832 36.4694 115.789 36.4694C114.836 36.4694 114.617 36.8004 114.617 37.7199C114.653 42.5009 114.653 47.3186 114.653 52.0996C114.653 55.1521 114.653 55.1153 117.695 55.1521C118.758 55.1889 118.905 54.7843 118.905 53.8281C118.832 51.1801 118.832 48.4954 118.832 45.8475Z" fill="#C0BFC7"/>
<path d="M117.402 29.335C114.543 29.4453 114.58 29.3718 114.617 32.2036C114.617 32.9759 114.836 33.3804 115.643 33.2701C115.973 33.2333 116.339 33.2701 116.706 33.2701C118.868 33.2701 118.868 33.2701 118.868 31.137C118.868 31.0634 118.868 30.9531 118.868 30.8796C119.052 29.7763 118.648 29.335 117.402 29.335Z" fill="#C0BFC7"/>
<path d="M350.029 33.3406C346.571 21.0772 334.017 13.7191 321.636 16.7936C309.704 19.7644 301.957 31.717 304.032 43.9804C306.246 57.073 318.661 66.1238 332.046 63.4293C336.369 62.5656 340.138 60.5621 343.355 57.5912C344.012 56.9694 344.254 56.2094 344.012 55.3458C343.77 54.5167 343.216 53.9985 342.421 53.8257C341.522 53.6185 340.865 53.9985 340.208 54.5857C334.155 60.0438 325.544 61.1148 318.35 57.3148C316.31 56.2439 314.511 54.8276 312.99 53.0658C316.31 47.7458 319.595 42.495 322.915 37.2096C323.054 37.4514 323.054 37.6587 323.054 37.8315C323.054 39.9732 323.019 42.115 323.088 44.2568C323.123 45.2586 323.227 46.3295 323.538 47.2622C324.299 49.6458 326.754 50.3022 328.622 48.6786C329.313 48.0568 329.901 47.2968 330.42 46.5368C331.354 45.155 332.184 43.7041 333.083 42.2532C334.155 40.5259 335.227 38.7987 336.3 37.0369C336.369 37.0369 336.403 37.0714 336.472 37.0714C336.472 37.9351 336.438 38.7642 336.472 39.6278C336.542 41.0787 336.507 42.5641 336.818 43.9459C337.717 48.0222 341.349 50.2331 345.188 49.1968C348.3 48.3677 350.687 45.3277 350.929 41.8387C351.102 38.9714 350.79 36.1388 350.029 33.3406ZM346.571 41.355C346.467 42.5641 346.018 43.6695 345.015 44.4295C343.458 45.6386 341.66 45.1204 341.038 43.255C340.83 42.6332 340.761 41.9768 340.761 41.3205C340.692 39.1787 340.726 37.0715 340.623 34.9297C340.588 34.2388 340.311 33.4788 340 32.857C339.101 31.1297 337.233 30.6461 335.539 31.5788C334.467 32.1661 333.671 33.0642 333.014 34.066C331.319 36.726 329.659 39.4551 327.965 42.115C327.792 42.3914 327.619 42.6677 327.308 42.9095V42.2878C327.308 39.4205 327.342 36.5533 327.308 33.6861C327.308 32.9261 327.169 32.1315 326.996 31.3715C326.754 30.3006 326.097 29.5406 324.99 29.2643C323.849 28.9879 322.881 29.437 322.12 30.3006C321.739 30.7497 321.394 31.2333 321.082 31.717C317.589 37.3133 314.062 42.9096 310.569 48.5404C310.465 48.6786 310.361 48.8513 310.154 49.1276C309.704 48.0222 309.255 47.0204 308.943 46.0186C305.347 35.1024 311.848 23.5298 323.054 20.8353C331.389 18.8317 340.38 23.0462 344.358 30.7843C346.087 34.1697 346.848 37.6587 346.571 41.355Z" fill="#C0BFC7"/>
<path d="M451.535 49.8879C451.5 50.7861 451.05 51.4424 450.22 51.7879C449.425 52.0988 448.629 51.9606 448.007 51.3733C447.488 50.9242 447.281 50.3369 447.281 49.6806C447.281 46.7443 447.281 43.8425 447.281 40.9062V40.1807C445.828 41.7352 444.479 43.1861 443.165 44.637C442.923 44.8788 442.681 45.1552 442.473 45.397C441.609 46.3298 440.917 46.3643 440.053 45.4316C438.6 43.8425 437.147 42.288 435.66 40.6989C435.557 40.5953 435.453 40.4571 435.211 40.2153V40.9753C435.211 43.8425 435.211 46.7443 435.211 49.6115C435.211 50.8897 434.346 51.8569 433.136 51.926C431.891 51.9951 430.922 50.9933 430.922 49.6806C430.922 46.6752 430.922 43.7043 430.922 40.7335C430.922 37.5899 430.922 34.4808 430.922 31.3372C430.922 30.8881 430.853 30.4736 431.406 30.2663C431.925 30.0591 432.271 30.37 432.582 30.6809C434 32.2354 435.384 33.8245 436.802 35.379C438.012 36.7263 439.223 38.108 440.433 39.4553C441.125 40.2153 441.367 40.2153 442.058 39.4553C444.514 36.6917 446.969 33.9626 449.425 31.199C449.632 30.9572 449.84 30.6463 450.117 30.5081C450.428 30.3354 450.843 30.2318 451.154 30.3009C451.569 30.37 451.604 30.819 451.604 31.199C451.604 36.3117 451.604 41.4243 451.604 46.537C451.569 47.677 451.604 48.7824 451.535 49.8879Z" fill="#C0BFC7"/>
<path d="M581.848 40.8022C580.672 37.9695 578.044 36.3459 575.001 36.4495C573.271 36.5186 571.715 37.1058 570.435 38.384C570.401 38.2458 570.366 38.1422 570.332 38.0386C570.02 37.0022 569.363 36.5186 568.464 36.6568C567.565 36.7949 567.046 37.4859 567.046 38.5222C567.046 44.3948 567.046 50.302 567.046 56.1747C567.046 57.4874 567.98 58.4546 569.19 58.4892C570.366 58.4892 571.335 57.4874 571.369 56.2092C571.369 55.5183 571.369 54.8274 571.369 54.1365V50.9584C571.611 51.0966 571.784 51.2002 571.923 51.2693C575.727 53.1347 579.67 52.0638 581.606 48.2639C582.817 45.8457 582.92 43.3239 581.848 40.8022ZM577.318 47.0548C576.142 48.5402 574.136 48.713 572.718 47.4694C571.093 46.0876 570.85 43.3585 572.199 41.7003C573.064 40.5949 574.551 40.1458 575.831 40.5604C577.145 40.9749 578.113 42.2185 578.252 43.7385C578.252 43.9112 578.286 44.1185 578.286 44.2912C578.252 45.293 577.975 46.2257 577.318 47.0548Z" fill="#C0BFC7"/>
<path d="M545.743 49.2314C542.457 51.9605 538.757 52.9623 534.676 51.4768C530.664 50.026 528.312 47.0205 527.517 42.8406C527.413 42.2533 527.378 41.6315 527.344 41.2515C527.413 34.6189 532.635 29.6099 538.93 29.9553C540.935 30.059 542.803 30.6808 544.463 31.7862C545.259 32.3389 545.674 33.0644 545.501 34.0316C545.259 35.3789 543.668 36.0352 542.526 35.3098C541.005 34.308 539.345 33.7898 537.512 33.9971C535.264 34.2735 533.569 35.448 532.531 37.4516C531.286 39.9043 531.252 42.3915 532.531 44.8097C534.468 48.506 539.102 49.4041 542.561 46.8478C542.803 46.6751 543.011 46.4678 543.218 46.2951C544.048 45.6387 545.224 45.7424 545.881 46.5024C546.607 47.3314 546.538 48.5751 545.743 49.2314Z" fill="#C0BFC7"/>
<path d="M385.098 49.1965C380.775 53.031 374.895 53.0655 370.745 49.6456C367.875 47.2965 366.63 44.1875 366.664 40.3876C367.114 35.7931 369.397 32.3731 373.858 30.6113C377.282 29.2986 380.636 29.7477 383.714 31.7168C384.614 32.2695 384.994 33.1331 384.821 33.9968C384.648 34.7913 383.991 35.4822 383.127 35.5513C382.677 35.5858 382.158 35.4476 381.743 35.2058C379.495 33.8586 377.178 33.4095 374.723 34.584C372.198 35.7585 370.642 38.7639 370.953 41.6657C371.195 44.222 372.232 46.3638 374.619 47.5384C377.351 48.8856 379.91 48.3674 382.262 46.5711C382.642 46.2602 383.127 46.0184 383.611 45.9148C384.406 45.742 385.167 46.2257 385.513 46.9511C385.893 47.7456 385.755 48.6438 385.098 49.1965Z" fill="#C0BFC7"/>
<path d="M469.657 38.2461C469.588 37.3479 468.861 36.657 467.997 36.657C467.132 36.657 466.475 37.2789 466.371 38.177C466.337 38.3498 466.337 38.4879 466.268 38.7643C466.06 38.557 465.956 38.4879 465.853 38.3843C463.224 35.8625 459.178 35.828 456.515 38.3843C453.99 40.8024 453.368 44.9478 455.062 48.2641C456.377 50.8205 458.452 52.2714 461.426 52.1677C463.259 52.0986 464.953 51.5459 466.268 49.9569C466.302 50.2678 466.337 50.475 466.371 50.6478C466.475 51.2696 466.994 51.8223 467.616 51.9605C468.308 52.0987 468.931 51.9259 469.276 51.3387C469.484 50.9932 469.622 50.5096 469.622 50.0605C469.657 46.2606 469.622 42.4606 469.622 38.6607C469.657 38.4879 469.657 38.3497 469.657 38.2461ZM464.504 46.8823C462.982 48.955 460.146 48.7478 458.97 46.4678C458.625 45.8115 458.521 45.0515 458.279 44.326C458.417 43.0478 458.763 41.9079 459.8 41.1134C461.495 39.8006 463.985 40.4224 464.919 42.426C465.645 43.946 465.507 45.5005 464.504 46.8823Z" fill="#C0BFC7"/>
<path d="M563.139 38.5225C563.139 38.3498 563.139 38.2116 563.104 38.0389C562.966 37.2444 562.309 36.6571 561.479 36.6571C560.683 36.6571 560.026 37.2098 559.888 38.0044C559.853 38.2462 559.818 38.4534 559.749 38.9025C559.542 38.6262 559.473 38.488 559.369 38.3843C556.671 35.828 552.625 35.8626 549.962 38.488C547.126 41.2861 546.849 46.1915 549.339 49.4733C551.899 52.8932 556.844 53.1696 559.818 49.9914C559.888 50.3023 559.888 50.5096 559.957 50.7169C560.095 51.3732 560.614 51.8569 561.236 51.9605C561.928 52.0642 562.516 51.8569 562.862 51.2696C563.069 50.9242 563.173 50.5096 563.173 50.1296C563.173 46.2261 563.139 42.3916 563.139 38.5225ZM557.674 47.2624C556.118 48.8169 553.87 48.5751 552.66 46.7788C551.899 45.6388 551.691 44.3606 552.072 43.0479C552.521 41.3898 553.905 40.3189 555.392 40.388C557.121 40.4916 558.504 41.7352 558.781 43.497C558.816 43.7734 558.85 44.0497 558.85 44.2225C558.816 45.4661 558.504 46.4679 557.674 47.2624Z" fill="#C0BFC7"/>
<path d="M497.567 51.3387C496.702 52.1332 495.595 52.1677 494.765 51.3041C493.728 50.1987 492.725 49.0242 491.722 47.8496C490.961 46.986 490.2 46.0878 489.335 45.086C489.335 46.6405 489.335 48.0223 489.335 49.4041C489.335 49.6805 489.335 49.9914 489.266 50.2678C489.024 51.3387 488.056 52.0295 487.018 51.9259C485.981 51.8223 485.185 51.0278 485.082 49.9569C485.082 49.8187 485.082 49.715 485.082 49.5769C485.082 43.9115 485.082 38.2461 485.082 32.5807C485.082 31.1644 485.981 30.1626 487.226 30.1972C488.471 30.1972 489.37 31.2335 489.37 32.6153V42.9788C489.405 43.0133 489.474 43.0133 489.508 43.0479C491.03 41.3552 492.586 39.6625 494.108 37.9698C494.385 37.6934 494.627 37.3825 494.938 37.1407C495.768 36.4498 496.84 36.5189 497.567 37.3134C498.327 38.1079 498.362 39.2825 497.67 40.0425C496.46 41.3552 495.249 42.6679 494.039 44.0151C494.869 45.0169 495.664 45.9842 496.46 46.9515C496.909 47.5042 497.359 48.0223 497.774 48.5751C498.466 49.4041 498.397 50.5441 497.567 51.3387Z" fill="#C0BFC7"/>
<path d="M511.746 45.6037C512.887 45.6037 513.614 44.8783 513.614 43.7728C513.579 39.7656 511.193 36.9675 507.25 36.5184C503.896 36.1039 500.818 37.382 499.538 40.9747C498.846 42.9092 498.777 44.9128 499.261 46.8819C499.815 49.1273 501.198 50.7164 503.411 51.5454C504.968 52.1327 506.593 52.2363 508.253 52.0636C509.464 51.96 510.57 51.6146 511.573 50.9237C512.057 50.5782 512.438 50.1637 512.472 49.5419C512.576 48.091 511.193 47.2619 509.775 47.8837C508.115 48.6437 506.386 48.851 504.691 47.9873C503.757 47.5383 503.342 46.7092 503.308 45.5692H503.999C506.559 45.6037 509.152 45.6383 511.746 45.6037ZM506.074 40.4911C507.596 40.422 509.36 41.2165 509.394 42.8056H503.308C503.308 41.5274 504.483 40.5602 506.074 40.4911Z" fill="#C0BFC7"/>
<path d="M394.747 36.4495C390.493 36.484 386.931 40.0076 386.965 44.2221C386.965 48.5402 390.597 52.1329 394.92 52.1329C399.035 52.1329 402.494 48.4711 402.459 44.1876C402.459 39.8694 399.001 36.4149 394.747 36.4495ZM397.583 46.5366C396.407 48.6784 393.744 48.9202 392.222 47.0202C391.15 45.673 390.942 44.153 391.599 42.5639C392.222 41.0785 393.778 40.2494 395.335 40.4912C396.856 40.733 397.998 42.0112 398.17 43.7039C398.17 43.8766 398.205 44.0839 398.205 44.2566C398.24 44.2566 398.309 44.2912 398.343 44.2912C398.101 45.0512 397.963 45.8457 397.583 46.5366Z" fill="#C0BFC7"/>
<path d="M427.36 49.9222C427.36 51.0622 426.357 51.9603 425.251 51.9603C424.144 51.9603 423.175 51.1658 423.141 49.9913C423.072 47.9876 423.106 45.984 423.106 43.9804C423.106 43.5313 423.106 43.0477 423.037 42.5641C422.899 41.4241 422.276 40.7332 421.239 40.5259C419.821 40.215 418.645 40.5259 418.161 41.5277C417.815 42.2186 417.607 43.0132 417.573 43.8077C417.504 45.7422 417.573 47.6422 417.538 49.5767C417.538 50.9585 416.743 51.8567 415.567 51.9603C414.322 52.064 413.319 51.1312 413.284 49.8531C413.25 48.6094 413.284 47.4004 413.284 46.1568V38.6605C413.284 37.486 413.769 36.7951 414.668 36.6569C415.602 36.5187 416.224 37.0024 416.639 38.2114C417.677 37.3133 418.783 36.6914 420.132 36.5187C424.04 35.9315 427.118 38.2805 427.36 42.1841C427.464 44.7404 427.395 47.3313 427.36 49.9222Z" fill="#C0BFC7"/>
<path d="M525.684 50.4058C525.614 51.2694 524.888 52.0984 524.024 52.0984C523.021 52.133 521.983 52.0985 520.98 51.9603C519.389 51.6839 518.352 50.6821 517.971 49.1621C517.695 48.0567 517.556 46.8821 517.487 45.7076C517.418 44.1876 517.487 42.6331 517.487 41.1132V40.3877C517.072 40.3877 516.726 40.3877 516.415 40.3877C515.343 40.3532 514.513 39.5241 514.513 38.4878C514.513 37.4169 515.308 36.5187 516.346 36.4841C516.692 36.4496 517.072 36.4841 517.522 36.4841C517.522 35.1369 517.522 33.8587 517.522 32.5805C517.522 31.6133 517.902 30.8188 518.836 30.4042C520.219 29.7824 521.741 30.8188 521.81 32.3387C521.845 32.9951 521.81 33.686 521.81 34.3769V36.4841C522.467 36.4841 522.986 36.4841 523.539 36.4841C524.681 36.5187 525.511 37.3478 525.476 38.4878C525.476 39.5932 524.646 40.3877 523.539 40.4223C522.986 40.4223 522.433 40.4223 521.914 40.4223C521.879 40.5259 521.81 40.595 521.81 40.6295C521.845 42.7022 521.81 44.7749 521.914 46.8131C521.949 48.0912 522.294 48.2985 523.539 48.3331C524.923 48.3331 525.787 49.1621 525.684 50.4058Z" fill="#C0BFC7"/>
<path d="M483.421 38.4183C483.421 39.4892 482.557 40.3528 481.45 40.3528C481.277 40.3528 481.069 40.3529 480.896 40.3874C478.718 40.6292 477.818 41.5965 477.784 43.7728C477.784 45.7073 477.784 47.6073 477.784 49.5418C477.784 50.9236 476.954 51.8909 475.709 51.9254C474.464 51.9599 473.53 50.9927 473.495 49.5764C473.495 46.7437 473.495 43.9455 473.495 41.1129C473.495 40.1801 473.461 39.282 473.495 38.3493C473.53 37.5202 474.014 36.8638 474.706 36.6911C475.363 36.5184 476.089 36.7257 476.47 37.2784C476.643 37.5547 476.746 37.8656 476.885 38.1765C477.196 37.9693 477.473 37.7274 477.784 37.4856C478.891 36.6911 480.136 36.3802 481.484 36.4493C482.591 36.5184 483.421 37.4165 483.421 38.4183Z" fill="#C0BFC7"/>
<path d="M409.342 49.6804C409.342 50.9931 408.373 51.9604 407.163 51.9258C405.952 51.9258 405.053 50.9586 405.053 49.6113C405.053 47.815 405.053 46.0532 405.053 44.2569C405.053 42.4605 405.053 40.6987 405.053 38.9024C405.053 37.5551 405.952 36.5879 407.163 36.5879C408.373 36.5879 409.342 37.5551 409.342 38.8333C409.376 42.4951 409.376 46.0877 409.342 49.6804Z" fill="#C0BFC7"/>
<path d="M409.722 32.4772C409.757 33.859 408.616 34.9989 407.198 35.0335C405.814 35.0335 404.708 33.928 404.708 32.5117C404.708 31.0953 405.78 29.9554 407.163 29.9554C408.547 29.9208 409.688 31.0608 409.722 32.4772Z" fill="#C0BFC7"/>
<path d="M948.796 40.9898C948.17 38.5333 946.698 36.7001 944.343 35.8201C939.044 33.8036 933.892 34.3169 928.924 36.9934C928.336 37.2867 928.225 37.69 928.225 38.3133C928.262 44.8395 928.225 51.3657 928.225 57.8919C928.225 58.2586 928.262 58.6619 928.299 59.0285C928.446 60.2751 928.851 60.6417 930.102 60.6417C931.353 60.6784 932.604 60.6784 933.819 60.6417C935.217 60.6051 935.659 60.1285 935.659 58.7352C935.659 56.7554 935.659 54.7755 935.659 52.6123C935.732 52.649 935.806 52.6856 935.879 52.7223C935.916 52.759 935.953 52.759 935.99 52.7956C936.247 52.9056 936.505 53.0156 936.763 53.1256C937.167 53.2723 937.572 53.3823 937.977 53.4556C938.198 53.4923 938.382 53.5289 938.603 53.5656H938.639C938.676 53.5656 938.676 53.5656 938.713 53.5656C938.86 53.5656 939.007 53.6023 939.118 53.6023C939.265 53.6023 939.412 53.6389 939.559 53.6389C939.596 53.6389 939.633 53.6389 939.67 53.6389C940.111 53.6389 940.553 53.6389 940.994 53.6023C944.454 53.3456 946.993 51.769 948.391 48.5792C948.685 47.8826 948.906 47.1127 949.164 46.4161V41.8697C948.759 41.6864 948.869 41.2831 948.796 40.9898ZM935.695 43.373C935.695 42.5663 935.769 41.7964 935.659 41.0264C935.548 40.1832 936.027 39.9265 936.689 39.8532C937.499 39.7799 938.345 39.7065 939.154 39.9632C940.884 40.5131 941.583 41.6864 941.583 44.1062C941.583 44.9495 941.473 45.7928 941.142 46.5994C940.553 48.0293 939.302 48.7992 937.793 48.5059C936.358 48.2493 935.695 47.3693 935.695 45.6828C935.695 44.9495 935.695 44.1429 935.695 43.373Z" fill="#C0BFC7"/>
<path d="M681.306 36.1505C679.797 34.8306 678.104 33.804 676.264 32.9974C675.86 32.814 675.639 32.5941 675.712 32.0808C676.264 29.4409 676.743 26.8011 677.295 24.1613C677.736 21.9615 677.405 19.9816 675.896 18.2217C674.94 17.1218 673.689 16.6085 672.401 16.0952H669.898C668.316 16.6085 666.881 17.2685 665.887 18.735C665.114 19.8716 664.71 21.1182 664.71 22.4748C664.71 24.7846 664.673 27.0944 664.746 29.3676C664.746 29.9909 664.599 30.1742 663.937 30.1376C662.686 30.0642 661.435 30.0642 660.22 30.1376C659.631 30.1742 659.521 29.9909 659.521 29.4776C659.558 27.2044 659.447 24.9313 659.558 22.6581C659.668 19.505 657.35 16.6452 654.48 16.2419C654.443 16.2419 654.406 16.1319 654.369 16.0952H651.867C650.616 16.5718 649.401 17.0852 648.481 18.0751C646.899 19.835 646.457 21.8881 646.973 24.1613C647.525 26.8011 648.003 29.4409 648.555 32.0808C648.665 32.6674 648.334 32.814 647.893 33.034C645.022 34.4273 642.52 36.2605 640.533 38.827C639.466 40.2202 638.951 41.8701 638.399 43.4833V50.9261C639.098 51.916 639.245 53.1626 639.907 54.1892C641.931 57.4523 644.875 59.5788 648.297 61.1554C651.315 62.5486 654.553 63.3186 657.865 63.6852C658.012 63.6852 658.233 63.6852 658.27 63.9052H658.895C659.374 63.9052 659.852 63.9052 660.331 63.9052H663.863C664.415 63.9052 664.967 63.9052 665.519 63.9052H665.74C665.777 63.6852 665.998 63.7219 666.145 63.6852C670.671 63.2453 674.976 62.0353 678.84 59.6155C681.674 57.8556 684.029 55.6191 685.28 52.3927C686.126 50.2662 685.942 48.103 685.979 45.9031C686.126 41.8701 684.323 38.7536 681.306 36.1505ZM655.473 41.8334C655.915 42.6033 656.209 43.4466 656.209 44.3632C656.209 45.0965 656.062 45.8298 655.768 46.4531C655.363 47.2231 654.884 48.0296 653.817 48.0296C652.787 48.0296 652.124 47.3697 651.756 46.5631C650.947 44.8765 651.094 43.1533 652.161 41.5768C653.044 40.2202 654.664 40.4035 655.473 41.8334ZM669.125 41.2834C670.119 40.4035 671.223 40.4768 672.033 41.5768C673.173 43.1533 673.21 45.4265 672.143 47.0397C671.37 48.2496 669.714 48.2496 668.831 47.113C668.169 46.2331 667.948 45.2798 668.022 44.2899C667.985 43.1167 668.242 42.09 669.125 41.2834Z" fill="#C0BFC7"/>
<path d="M710.414 27.9746C706.255 27.4246 702.024 27.7179 697.828 27.8279C696.798 27.8646 696.393 28.4146 696.393 29.5511C696.393 33.1442 696.393 36.774 696.393 40.367C696.393 43.9601 696.393 47.5899 696.393 51.1829C696.393 52.6128 696.761 53.0162 698.196 53.0895C699.374 53.1262 700.552 53.1262 701.729 53.0895C703.532 53.0895 703.974 52.6495 703.974 50.8163C703.974 49.2031 704.011 47.5899 703.974 45.9767C703.974 45.3534 704.121 45.1334 704.783 45.1701C706.292 45.2067 707.838 45.2434 709.346 45.1334C714.351 44.8401 717.221 42.4202 717.663 37.8739C718.141 32.3376 716.007 28.7079 710.414 27.9746ZM707.212 39.7804C706.329 39.8537 705.409 39.7804 704.526 39.8171C704.011 39.8537 703.974 39.5971 703.974 39.1938C703.974 38.3139 703.974 37.3973 703.974 36.5173C703.974 35.6741 704.011 34.7941 703.974 33.9508C703.937 33.4375 704.047 33.1809 704.636 33.2176C705.446 33.2542 706.219 33.2175 707.028 33.2542C708.942 33.3275 710.046 34.4641 710.119 36.3707C710.119 38.3505 709.126 39.5971 707.212 39.7804Z" fill="#C0BFC7"/>
<path d="M870.746 40.4037C869.458 39.5971 868.096 38.9738 866.698 38.4238C865.336 37.8739 863.901 37.5072 862.65 36.664C861.84 36.114 861.435 35.3807 861.619 34.3908C861.803 33.3642 862.503 32.9609 863.459 32.7409C865.631 32.3376 867.618 32.7409 869.531 33.7308C870.856 34.4274 870.856 34.4274 871.666 33.1442C872.07 32.5576 872.438 31.9343 872.843 31.3477C873.579 30.2477 873.469 29.8078 872.328 29.1112C871.003 28.2679 869.531 27.7913 868.022 27.5346C864.747 27.0213 861.509 26.838 858.381 28.1212C855.989 29.1111 854.407 30.7977 854.076 33.4375C853.708 36.2973 854.444 38.7171 857.056 40.367C858.492 41.247 860 42.0169 861.546 42.6402C862.834 43.1535 864.122 43.5935 865.299 44.3268C866.072 44.8034 866.403 45.5 866.293 46.4166C866.183 47.3332 865.594 47.7732 864.784 48.0298C864.379 48.1765 863.901 48.2131 863.459 48.2498C860.957 48.3965 858.602 47.7732 856.431 46.5633C855.695 46.16 855.253 46.2333 854.849 47.0033C854.37 47.8832 853.781 48.6898 853.266 49.533C852.861 50.193 852.935 50.7796 853.634 51.1829C854.223 51.5129 854.812 51.8796 855.437 52.1729C858.087 53.3095 860.92 53.6394 863.791 53.6761C865.52 53.7128 867.25 53.6028 868.869 53.0161C871.482 52.0995 873.358 50.4497 873.763 47.6265C874.278 44.6201 873.469 42.0903 870.746 40.4037Z" fill="#C0BFC7"/>
<path d="M823.57 44.5832C823.054 43.9965 823.202 43.6666 823.643 43.1533C825.52 41.0635 827.36 38.9369 829.237 36.8104C829.568 36.4438 829.789 36.0771 829.605 35.6005C829.421 35.1605 828.979 35.1239 828.537 35.1239C826.734 35.1239 824.931 35.1239 823.165 35.1239C822.466 35.1239 821.95 35.3805 821.509 35.9671C820.589 37.2137 819.632 38.4236 818.712 39.6335C818.16 40.3301 817.608 41.0268 816.909 41.9067C816.909 38.8636 816.909 36.1138 816.909 33.364C816.909 32.0807 816.946 30.8342 816.909 29.5509C816.872 28.2677 816.467 27.791 815.29 27.7177C813.781 27.6444 812.272 27.681 810.764 27.7544C809.807 27.791 809.365 28.3777 809.365 29.2943C809.365 36.6637 809.365 44.0699 809.365 51.4394C809.365 52.3193 809.77 52.9059 810.69 52.9426C812.052 52.9793 813.45 53.0159 814.811 53.0159C816.431 53.0159 816.872 52.5393 816.909 50.9261C816.946 49.3129 816.909 47.6997 816.909 46.0864C816.983 46.0498 817.056 46.0131 817.13 45.9764C818.639 48.0296 820.184 50.0828 821.693 52.1727C822.098 52.7593 822.613 53.0159 823.349 53.0159C825.078 52.9792 826.808 53.0159 828.537 53.0159C829.016 53.0159 829.568 53.1259 829.825 52.6126C830.083 52.0627 829.715 51.6594 829.384 51.2561C827.397 49.0929 825.52 46.8197 823.57 44.5832Z" fill="#C0BFC7"/>
<path d="M901.656 35.1603C900.148 35.1237 898.639 35.1603 897.093 35.1603C896.468 35.1603 896.1 35.4536 895.952 36.1136C895.768 37.0669 895.511 37.9835 895.29 38.9001C894.885 40.5866 894.444 42.2732 894.002 44.2164C893.34 42.4565 892.751 40.9532 892.236 39.45C891.132 36.1869 891.5 36.8469 888.151 36.7369C887.489 36.7369 887.084 36.9569 886.863 37.6535C886.09 39.78 885.281 41.8699 884.434 44.143C884.324 43.7031 884.214 43.4464 884.14 43.1898C883.588 40.8433 883.036 38.5334 882.484 36.1869C882.374 35.6003 882.116 35.197 881.491 35.1603C879.761 35.1237 878.032 35.1603 876.339 35.1603C875.787 35.1603 875.529 35.417 875.713 36.0403C877.332 41.3932 878.951 46.7829 880.571 52.1358C880.791 52.8691 881.27 53.0524 881.969 53.0524C883.036 53.0524 884.103 53.0158 885.17 53.0524C886.09 53.0891 886.569 52.7224 886.9 51.8425C887.599 49.7527 888.409 47.6994 889.255 45.4996C889.954 47.3695 890.58 49.056 891.205 50.7792C892.162 53.529 891.978 53.0524 894.444 53.0891C897.572 53.1258 897.608 53.0891 898.528 50.1193C899.927 45.573 901.288 41.0266 902.687 36.4802C902.907 35.3803 902.797 35.197 901.656 35.1603Z" fill="#C0BFC7"/>
<path d="M925.134 37.7268C925.134 37.1768 924.987 36.8835 924.472 36.6269C921.307 34.867 917.922 34.3537 914.389 34.7203C909.053 35.2703 904.895 38.3501 904.49 44.033C904.306 46.7095 904.6 49.3127 906.551 51.4392C909.311 54.4456 914.978 54.4823 918.4 51.5859C918.915 52.0992 918.878 53.1624 919.946 53.1257C921.27 53.0891 922.558 53.1257 923.883 53.1257C924.729 53.1257 925.097 52.7957 925.097 51.8791C925.097 47.1495 925.097 42.4565 925.134 37.7268ZM918.069 43.3364C918.069 44.1064 918.069 44.913 918.069 45.6829C918.069 47.2595 917.333 48.2128 915.898 48.4694C914.058 48.7994 912.88 48.2494 912.255 46.7462C911.408 44.6196 912.255 41.5399 913.984 40.3666C915.051 39.6333 916.229 39.67 917.443 39.8533C917.885 39.9267 918.069 40.1466 918.032 40.6233C918.032 41.5399 918.069 42.4198 918.069 43.3364Z" fill="#C0BFC7"/>
<path d="M805.207 36.4801C801.932 34.7569 798.399 34.2803 794.793 34.7569C791.039 35.2702 787.985 36.9201 786.329 40.5132C785.225 42.8963 785.152 45.4262 785.74 47.956C786.476 50.9991 788.353 53.0156 791.518 53.4923C794.388 53.9322 797.148 53.5656 799.54 51.4757C799.761 52.9056 800.607 53.2356 801.858 53.1256C802.705 53.0523 803.588 53.1256 804.434 53.1256C805.98 53.1256 806.09 52.979 806.09 51.5124C806.09 46.9661 806.053 42.4564 806.127 37.91C806.127 37.1401 805.833 36.8101 805.207 36.4801ZM799.062 43.263C799.062 44.1429 799.098 45.0595 799.062 45.9395C798.951 47.516 798.068 48.3593 796.412 48.4693C794.572 48.616 793.579 47.956 793.174 46.3794C792.806 44.9495 792.953 43.593 793.468 42.2364C794.204 40.3299 796.449 39.2666 798.473 39.8165C798.878 39.9265 799.135 40.0732 799.098 40.5865C799.025 41.5031 799.062 42.383 799.062 43.263Z" fill="#C0BFC7"/>
<path d="M738.602 36.5171C735.179 34.7572 731.573 34.2806 727.783 34.8305C725.759 35.1238 723.919 35.8205 722.337 37.1037C718.73 39.9635 718.252 43.8132 719.025 47.9929C719.65 51.2194 722.3 53.4559 725.612 53.6392C728.224 53.7859 730.69 53.4559 732.788 51.476C733.008 52.9059 733.891 53.2359 735.106 53.1259C735.989 53.0526 736.909 53.1259 737.792 53.1259C739.19 53.1259 739.338 52.9426 739.338 51.6227C739.338 47.0397 739.338 42.4933 739.374 37.9103C739.411 37.2137 739.227 36.8471 738.602 36.5171ZM732.346 43.3366C732.346 44.1799 732.383 45.0598 732.346 45.9031C732.309 47.333 731.463 48.2496 730.064 48.4696C728.298 48.7262 727.084 48.1763 726.605 46.8197C725.943 44.9865 726.201 43.1533 727.157 41.5034C728.004 40.0735 730.175 39.3402 731.794 39.8535C732.199 39.9635 732.383 40.1835 732.346 40.6601C732.309 41.5401 732.346 42.4567 732.346 43.3366Z" fill="#C0BFC7"/>
<path d="M757.074 34.7938C754.131 34.2805 751.407 34.8304 748.905 36.7736C748.684 35.4171 748.574 35.1971 747.764 35.1604C746.44 35.1237 745.078 35.1604 743.717 35.1604C742.833 35.1604 742.576 35.6004 742.576 36.4803C742.613 41.3566 742.576 46.233 742.613 51.1093C742.613 52.5392 743.054 53.0158 744.526 53.0525C745.704 53.0892 746.881 53.0525 748.059 53.0525C749.715 53.0525 750.193 52.5759 750.193 50.8893C750.193 47.9928 750.193 45.133 750.193 42.2366C750.193 40.5134 751.003 39.7434 752.622 39.7434C754.057 39.7434 754.646 40.4033 754.646 42.1999C754.646 45.2063 754.646 48.1761 754.646 51.1826C754.646 52.5392 755.051 53.0158 756.412 53.0525C757.774 53.1258 759.172 53.0892 760.57 53.0525C761.748 53.0158 762.226 52.4659 762.226 51.2926C762.226 47.7728 762.263 44.2898 762.226 40.77C762.153 37.5802 760.276 35.3437 757.074 34.7938Z" fill="#C0BFC7"/>
<path d="M845.906 35.381C842.815 34.281 839.651 34.3177 836.596 35.3076C833.505 36.2976 831.665 38.4974 831.04 41.7239C830.819 42.8238 830.856 43.9237 830.856 44.987C830.893 48.0301 832.254 50.3766 834.867 51.9532C837.774 53.7497 841.012 53.7863 844.251 53.493C846.017 53.3464 847.673 52.8698 849.218 51.9898C849.991 51.5498 850.286 51.1099 849.77 50.3033C849.402 49.7166 849.108 49.02 848.777 48.3967C848.446 47.7001 848.004 47.5535 847.305 47.9568C845.355 49.02 843.257 49.2033 841.086 48.8734C839.761 48.69 838.584 48.1767 838.068 46.7468C837.811 46.0502 837.811 45.7203 838.768 45.7569C840.534 45.8302 842.3 45.7936 844.03 45.7936C845.833 45.7936 847.636 45.7936 849.402 45.7936C850.617 45.7936 851.205 45.3536 851.279 44.327C851.5 40.6239 850.065 36.8475 845.906 35.381ZM843.699 42.0539C842.889 41.9805 842.043 42.0539 841.233 42.0539C840.35 42.0539 839.43 42.0539 838.547 42.0539C838.032 42.0539 837.884 41.9072 837.995 41.3572C838.326 39.964 839.356 39.1574 841.012 39.0474C842.889 38.9374 843.993 39.5973 844.435 41.0272C844.619 41.7605 844.582 42.1272 843.699 42.0539Z" fill="#C0BFC7"/>
<path d="M782.097 47.8463C781.656 46.893 781.067 46.8564 780.221 47.3697C779.117 48.0296 777.939 48.4696 776.614 48.5062C774.517 48.5796 773.008 47.773 772.346 46.1231C771.573 44.1432 772.051 41.7234 773.56 40.5868C775.253 39.2669 777.093 39.6335 778.933 40.2568C779.705 40.5135 780.331 41.4667 781.14 41.1001C781.876 40.7701 782.097 39.8168 782.502 39.0835C783.79 36.9204 783.68 36.5537 781.324 35.6005C781.177 35.5271 780.993 35.4905 780.846 35.4171C778.749 34.5739 776.541 34.5005 774.333 34.6105C768.187 34.9772 764.213 38.6436 764.471 44.7298C764.618 48.3229 766.09 51.0361 769.512 52.5393C771.426 53.3826 773.413 53.6392 775.547 53.5659C778.049 53.6392 780.515 53.1259 782.796 51.8793C783.532 51.476 784.011 50.9994 783.422 50.1195C782.944 49.4228 782.465 48.6529 782.097 47.8463Z" fill="#C0BFC7"/>
</svg>
